<?xml version="1.0" encoding="utf-8"?>
<!-- Generator: Adobe Illustrator 16.0.4, SVG Export Plug-In . SVG Version: 6.00 Build 0)  -->
<!DOCTYPE svg PUBLIC "-//W3C//DTD SVG 1.1//EN" "http://www.w3.org/Graphics/SVG/1.1/DTD/svg11.dtd">
<svg version="1.1" id="Layer_1" xmlns="http://www.w3.org/2000/svg" xmlns:xlink="http://www.w3.org/1999/xlink" x="0px" y="0px"
	 width="500px" height="500px" viewBox="0 0 500 500" enable-background="new 0 0 500 500" xml:space="preserve">
<path fill="#FFFFFF" d="M208.401,230.174c0.661-0.518,0.656-1.217,0.909-1.79c0.48-1.092,0.976-1.226,1.855-0.415
	c1.19,1.082,1.732,2.548,2.292,3.98c0.703,1.804,1.333,3.615,2.519,5.217c0.445,0.598,0.586,1.439,0.816,2.215
	c0.2,0.681,0.574,1.034,1.294,0.777c0.984-0.305,1.404,0.09,1.735,1.02c0.918,2.704,1.928,5.366,2.938,8.029
	c0.491,1.324,1.171,2.533,2.842,2.661c0.599,0.026,0.731,0.547,0.829,1.01c0.721,3.25,2.291,6.131,3.714,9.09
	c0.342,0.718,0.724,1.105,1.562,0.68c0.607-0.336,1.108-0.031,1.56,0.467c1.262,1.417,2.181,3.105,3.013,4.809
	c2.512,5.112,5.189,10.169,8.538,14.778c3.445,4.793,7.525,9.069,11.814,13.135c0.552,0.508,1.194,0.908,1.892,1.188
	c0.696,0.296,1.009,0.111,1.131-0.643c0.233-1.626-0.138-3.18-0.589-4.684c-1.044-3.448-1.619-6.996-2.581-10.473
	c-1.269-4.536-3.503-8.546-6.25-12.301c-0.583-0.81-1.429-1.372-2.229-1.956c-0.829-0.604-1.617-1.25-2.269-2.098
	c-0.388-0.497-0.585-1.031-0.239-1.641c0.35-0.659,0.152-1.19-0.281-1.731c-1.863-2.319-3.833-4.544-6.282-6.275
	c-0.782-0.55-1.52-1.133-2.054-1.95c-0.645-0.947-0.504-1.394,0.571-1.741c1.979-0.685,2.043-0.944,0.483-2.49
	c-0.47-0.473-0.984-0.909-1.519-1.331c-1.554-1.175-2.8-2.631-3.793-4.331c-0.841-1.407-1.645-2.818-2.779-3.997
	c-0.671-0.682-0.655-1.343-0.053-1.973c0.627-0.635,0.474-1.127-0.066-1.71c-1.072-1.115-2.102-2.275-3.095-3.429
	c-1.054-1.22-1.784-2.627-2.31-4.141c-0.276-0.76-0.066-1.165,0.754-1.358c1.294-0.3,1.348-0.416,0.439-1.442
	c-1.259-1.46-2.606-2.865-3.898-4.299c-1.582-1.734-2.645-3.737-3.337-5.957c-0.306-0.922-0.177-1.571,0.926-1.701
	c0.935-0.104,1.064-0.554,0.748-1.394c-0.826-2.133-2.062-4.005-3.289-5.897c-1.218-1.906-2.295-3.862-2.716-6.151
	c-0.2-1.091,0.227-1.466,1.243-1.461c0.175,0.011,0.387,0.021,0.582,0.01c1.131-0.047,1.354-0.324,0.96-1.383
	c-0.786-2.117-1.605-4.22-2.365-6.327c-0.523-1.501-0.809-3.059-0.771-4.664c0.022-0.89,0.295-1.565,1.207-1.79
	c0.912-0.229,0.826-0.833,0.549-1.462c-0.811-1.851-1.654-3.678-2.479-5.533c-0.228-0.503-0.339-1.047-0.356-1.606
	c-0.09-1.768,0.012-1.891,1.776-2.202c1.042-0.192,1.171-0.434,0.54-1.309c-0.547-0.752-0.874-1.517-0.951-2.475
	c-0.072-1.065-0.608-2.031-1.118-2.983c-0.72-1.36-1.444-2.732-1.562-4.314c-0.103-1.239,0.266-1.591,1.506-1.447
	c0.75,0.11,1.38,0.57,2.092,0.799c0.383,0.132,0.804,0.267,1.078-0.131c0.267-0.371,0.015-0.727-0.202-0.965
	c-1.53-1.651-1.941-3.761-2.518-5.816c-0.4-1.506-1.305-2.789-2.027-4.161c-0.679-1.2-1.01-2.464-0.919-3.85
	c0.063-1.002,0.523-1.328,1.486-1.14c0.666,0.113,1.509,0.589,1.99-0.087c0.543-0.756-0.173-1.484-0.556-2.151
	c-0.497-0.818-0.758-1.631-0.427-2.59c0.301-0.793,0.12-1.576-0.213-2.308c-0.269-0.656-0.64-1.257-0.947-1.913
	c-0.354-0.79-0.757-1.563-1.02-2.389c-0.286-0.95-0.569-2.081,0.28-2.782c0.783-0.658,1.743-0.085,2.561,0.322
	c0.107,0.042,0.219,0.107,0.313,0.153c0.498,0.218,1.07,0.838,1.489,0.42c0.455-0.424-0.029-1.103-0.297-1.618
	c-0.245-0.45-0.544-0.866-0.854-1.273c-0.604-0.861-1.052-1.677-0.795-2.843c0.214-0.993-0.201-2.032-0.612-2.99
	c-0.55-1.305-1.16-2.604-1.326-4.048c-0.204-1.646,0.144-2.18,1.771-2.362c0.938-0.085,0.907-0.594,0.644-1.215
	c-0.629-1.667-1.303-3.315-1.907-4.987c-0.442-1.188-0.719-2.424-0.622-3.713c0.141-1.462,0.485-1.742,1.892-1.505
	c0.283,0.06,0.543,0.13,0.824,0.171c0.616,0.116,0.896-0.109,0.775-0.768c-0.382-2.215-0.657-4.449-1.799-6.481
	c-0.654-1.136-1.126-2.357-1.258-3.682c-0.145-1.789,0.452-2.456,2.198-2.324c1.046,0.093,1.255-0.311,1.088-1.228
	c-0.337-1.963-1.131-3.793-1.713-5.68c-0.434-1.412-0.793-2.833-0.632-4.311c0.172-1.493,0.725-1.86,2.159-1.456
	c2.013,0.571,2.024,0.568,1.638-1.466c-0.474-2.582-0.97-5.14-1.466-7.706c-0.17-0.854-0.193-1.717-0.218-2.599
	c-0.034-1.126,0.31-1.945,1.539-2.14c0.795-0.116,0.865-0.61,0.727-1.298c-0.444-2.284-1.214-4.52-1.505-6.839
	c-0.104-0.705-0.186-1.415-0.156-2.125c0.034-0.563,0.228-0.983,0.813-1.171c0.49-0.158,0.833-0.451,0.697-1.057
	c-0.689-3.278-0.509-6.605-0.573-9.921c-0.042-2.995-0.458-5.928-1.211-8.812c-1.045-4-1.084-8.049-0.854-12.122
	c0.077-1.339,0.125-2.691,0.2-4.031c0.031-0.439,0.079-0.913,0.603-1.032c0.581-0.139,0.887,0.239,1.071,0.707
	c0.231,0.651,0.532,1.276,0.602,1.926c1.038,8.676,4.279,16.669,7.544,24.67c0.488,1.168,0.882,2.364,1.313,3.562
	c0.225,0.683,0.585,1.229,1.192,1.699c1.872,1.49,2.42,3.735,3.076,5.894c0.218,0.71,0.414,1.441,0.561,2.176
	c0.186,0.807,0.642,1.064,1.379,0.83c1.312-0.409,1.966,0.257,2.468,1.373c1.056,2.443,1.538,5.061,2.382,7.575
	c0.114,0.344,0.248,0.667,0.35,1.013c0.285,0.951,0.784,1.168,1.648,0.552c0.936-0.642,1.622-0.416,2.363,0.662
	c1.066,1.55,1.171,3.338,1.215,5.126c0.04,1.498-0.003,3.005,0.022,4.498c0.031,1.313,0.41,1.492,1.512,0.881
	c1.605-0.902,2.323-0.644,2.961,1.09c0.625,1.711,0.449,3.52,0.572,5.281c0.077,1.139,0.03,2.304,0.262,3.427
	c0.19,0.9,0.636,1.381,1.579,1.047c1.287-0.478,1.831,0.19,2.152,1.271c0.366,1.313,0.558,2.628,0.647,3.98
	c0.122,1.47,0.339,2.929,1.55,3.982c0.264,0.229,0.33,0.527,0.294,0.856c-0.067,0.383-0.117,0.789-0.248,1.153
	c-0.724,2.331-0.718,2.362,1.629,2.115c0.764-0.084,1.165,0.282,1.456,0.916c0.549,1.237,0.518,2.555,0.396,3.853
	c-0.135,1.419-0.05,2.758,0.666,4.034c0.54,0.909,0.155,1.853-0.022,2.766c-0.251,1.471,0.089,1.767,1.465,1.297
	c1.471-0.486,1.915-0.284,2.254,1.276c0.321,1.482,0.202,2.996-0.081,4.479c-0.337,1.745-0.763,3.465,0.043,5.218
	c0.243,0.518,0.273,1.157,0.137,1.758c-0.234,1.078,0.271,1.208,1.181,1.041c1.631-0.3,1.771-0.146,2.141,1.464
	c0.527,2.262,0.252,4.479-0.181,6.702c-0.156,0.846-0.117,1.44,0.835,1.779c0.878,0.334,0.914,1.063,0.644,1.893
	c-0.399,1.25-0.247,1.477,1.04,1.537c0.734,0.026,1.036,0.38,1.306,0.98c0.535,1.351,0.515,2.722,0.271,4.092
	c-0.189,1.119-0.533,2.228-0.783,3.352c-0.263,0.995-0.437,2.013-0.32,3.043c0.162,1.351,0.468,1.666,1.746,1.414
	c1.097-0.233,1.509,0.198,1.773,1.154c0.473,1.696,0.336,3.375-0.091,5.032c-0.433,1.627-0.935,3.2-1.307,4.815
	c-0.28,1.173-0.004,1.389,1.139,1c1.404-0.507,1.602-0.381,1.873,1.098c0.277,1.503,0.016,2.989-0.594,4.308
	c-0.944,2.013-0.14,3.964-0.147,5.941c0.007,0.371,0.326,0.559,0.654,0.604c0.219,0.034,0.471,0.056,0.693-0.009
	c2.218-0.731,2.903,0.295,2.911,2.765c0.002,1.498-0.512,2.868-0.962,4.263c-0.314,0.981-0.646,1.953-0.881,2.961
	c-0.287,1.26,0.066,2.373,1.14,3.159c0.558,0.417,0.731,0.95,0.779,1.621c0.224,2.628,0.031,5.215-0.487,7.787
	c-0.095,0.5-0.217,0.975,0.078,1.498c1.497,2.758,1.478,5.696,0.797,8.657c-0.19,0.908-0.318,1.769-0.125,2.68
	c0.223,0.944,0.05,1.898-0.174,2.826c-0.177,0.726-0.05,1.273,0.771,1.436c0.99,0.196,1.15,0.94,1.194,1.775
	c0.157,2.076-0.443,3.994-1.145,5.907c-0.955,2.48-1.911,4.958-2.883,7.416c-0.345,0.881-0.36,1.553,0.799,1.723
	c0.641,0.118,0.799,0.511,0.749,1.113c-0.111,1.085-0.416,2.106-0.791,3.105c-1.262,3.241-2.522,6.493-3.809,9.74
	c-0.729,1.88-0.704,2.024,0.898,3.192c0.472,0.334,0.654,0.658,0.264,1.163c-0.919,1.259-1.444,2.719-1.995,4.169
	c-0.547,1.402-1.199,2.771-1.992,4.044c-1.202,1.954-1.893,4.063-1.985,6.386c-0.046,0.899-0.102,1.877-0.449,2.683
	c-2.012,4.556-2.124,9.456-2.715,14.271c-0.241,2.053-0.271,4.112,0.167,6.161c0.228,1.098,0.457,1.204,1.384,0.589
	c0.885-0.573,1.475-1.409,1.947-2.339c3.036-6.059,5.721-12.272,7.224-18.929c0.353-1.573,0.782-3.151,1.828-4.459
	c0.174-0.205,0.28-0.496,0.344-0.756c0.839-3.857,2.024-7.654,1.993-11.662c-0.012-0.74,0.259-1.212,0.962-1.44
	c0.783-0.242,1.07-0.779,1.156-1.588c0.314-2.868,0.177-5.766,0.306-8.638c0.038-0.948,0.146-1.91,0.22-2.852
	c0.061-0.742,0.396-1.212,1.226-1.081c0.903,0.132,1.272-0.357,1.527-1.121c0.58-1.693,0.712-3.476,0.906-5.244
	c0.182-1.57,0.312-3.154,0.684-4.697c0.177-0.665,0.493-1.157,1.257-1.185c0.768-0.066,1.026-0.547,1.169-1.255
	c0.707-3.771,1.36-7.556,2.611-11.192c0.367-1.027,0.72-2.008,1.989-2.242c0.696-0.128,0.795-0.802,0.935-1.393
	c0.632-2.821,1.098-5.669,1.914-8.444c0.194-0.698,0.445-1.357,0.65-2.052c0.258-0.957,0.796-1.341,1.714-0.785
	c0.705,0.403,1.076,0.191,1.355-0.516c0.484-1.136,0.799-2.321,1.139-3.498c0.469-1.56,0.979-3.104,1.99-4.41
	c0.556-0.734,0.604-1.627,0.554-2.505c-0.025-0.545-0.067-1.114-0.043-1.651c0.072-1.369,0.411-1.672,1.704-1.298
	c1.102,0.325,1.518-0.304,1.893-1.104c1.01-2.253,1.275-4.717,1.954-7.083c0.312-1.141,0.489-2.325,1.062-3.385
	c0.74-1.435,1.464-1.476,2.403-0.132c0.282,0.395,0.5,0.825,0.789,1.187c0.474,0.618,0.878,0.471,1.071-0.229
	c0.105-0.445,0.176-0.942,0.115-1.396c-0.153-1.167,0.218-2.121,0.957-2.95c0.903-1.002,1.247-2.18,1.329-3.477
	c0.13-1.93,0.561-3.763,1.72-5.344c0.853-1.147,1.161-1.155,2.102-0.152c0.215,0.227,0.436,0.483,0.649,0.704
	c0.412,0.352,0.867,0.614,1.419,0.377c0.504-0.223,0.586-0.72,0.559-1.21c-0.05-0.877,0.25-1.539,0.979-2.012
	c0.526-0.37,0.656-0.945,0.807-1.536c0.399-1.732,0.823-3.47,1.513-5.113c0.271-0.614,0.578-1.233,0.977-1.759
	c1.022-1.314,2.229-1.221,3.182,0.134c0.32,0.448,0.45,1.366,1.089,1.205c0.592-0.158,0.479-1.036,0.474-1.597
	c-0.029-1.983,0.438-3.617,2.302-4.739c0.968-0.593,1.2-1.819,1.525-2.882c0.315-1.104,0.559-2.22,1.249-3.176
	c0.892-1.211,1.593-1.234,2.588-0.142c0.451,0.505,0.745,1.429,1.574,1.221c0.839-0.217,0.612-1.314,1.035-1.851
	c2.07-2.604,2.053-6.278,4.654-8.565c1.243-1.114,1.265-1.142,2.159,0.223c0.239,0.37,0.486,0.752,1,0.658
	c0.494-0.079,0.807-0.464,0.839-0.891c0.191-1.46,0.925-2.523,1.969-3.514c0.712-0.638,0.939-1.627,1.269-2.518
	c0.411-1.074,0.808-2.155,1.7-2.958c0.678-0.619,1.255-0.713,1.859,0.153c0.645,0.94,1.054,0.878,1.508-0.159
	c0.206-0.427,0.332-0.891,0.471-1.344c0.322-1.081,0.727-2.04,2.142-1.887c0.554,0.047,0.793-0.479,1.002-0.89
	c0.74-1.504,1.44-3.014,2.155-4.514c0.507-1.072,1.153-2.076,1.984-2.947c0.609-0.663,1.278-0.923,2.023-0.181
	c0.701,0.727,1.274,0.398,1.529-0.367c0.41-1.271,1.257-1.99,2.378-2.623c1.008-0.588,1.478-1.732,2.008-2.748
	c0.754-1.433,1.314-2.972,2.325-4.272c0.627-0.828,1.335-1.49,2.496-0.9c0.532,0.262,0.802-0.147,1.047-0.513
	c1-1.434,1.986-2.855,2.961-4.297c1.315-1.945,2.606-3.884,4.24-5.566c0.844-0.868,1.265-2.017,1.883-3.027
	c3.199-5.227,6.4-10.452,9.586-15.695c0.655-1.081,1.158-2.262,1.771-3.366c0.546-0.942,1.357-2.182,2.351-1.757
	c0.993,0.406,0.489,1.842,0.193,2.794c-1.934,6.318-4.278,12.502-6.7,18.657c-2.056,5.19-3.876,10.453-5.81,15.694
	c-0.167,0.434-0.253,0.851-0.004,1.259c0.581,0.939,0.524,1.904,0.075,2.84c-1.05,2.163-1.343,4.619-2.539,6.728
	c-0.604,1.027-0.368,1.368,0.786,1.384c0.98,0.006,1.098,0.573,1.058,1.305c-0.15,2.22-1.047,4.143-2.433,5.829
	c-0.446,0.54-0.736,1.058-0.71,1.802c-0.003,1.134-0.697,1.999-1.276,2.892c-0.158,0.215-0.413,0.454-0.248,0.739
	c0.165,0.292,0.499,0.155,0.771,0.155c1.978,0.04,2.266,0.469,1.645,2.411c-0.376,1.19-1.155,2.139-1.874,3.144
	c-0.781,1.072-1.43,2.194-1.45,3.56c0.012,0.872-0.713,1.178-1.264,1.62c-1.324,1.074-1.334,1.304,0.112,2.091
	c1.556,0.848,1.695,1.205,0.902,2.812c-0.318,0.634-0.702,1.237-1.117,1.815c-1.15,1.548-2.415,3.025-2.762,5.052
	c-0.13,0.761-0.953,1.006-1.496,1.428c-0.378,0.298-0.987,0.547-0.875,1.027c0.146,0.537,0.795,0.356,1.234,0.38
	c1.657,0.061,1.951,0.446,1.532,2.065c-0.439,1.671-1.589,2.893-2.773,4.064c-0.734,0.711-1.369,1.373-1.104,2.55
	c0.201,0.954-0.604,1.351-1.224,1.828c-0.911,0.706-0.89,0.888,0.099,1.474c0.345,0.19,0.721,0.344,1.084,0.505
	c1.534,0.729,1.63,0.99,0.912,2.539c-0.979,2.087-2.682,3.534-4.486,4.838c-1.431,1.043-1.581,2.786-2.547,4.061
	c-0.318,0.436,0.308,0.531,0.594,0.664c2.149,0.924,2.468,2.11,1.031,4.007c-0.688,0.908-1.5,1.726-2.272,2.581
	c-0.688,0.782-1.292,1.6-1.468,2.666c-0.146,0.95-1.049,1.228-1.66,1.749c-0.618,0.533-1.874,0.925-1.737,1.6
	c0.186,0.87,1.467,0.635,2.277,0.795c1.804,0.386,2.105,0.943,1.156,2.524c-1.079,1.796-2.745,3.049-4.343,4.327
	c-1.049,0.832-2.074,1.595-2.252,3.053c-0.038,0.329-0.265,0.718-0.526,0.902c-1.083,0.775-0.449,1.203,0.252,1.706
	c2.222,1.578,2.232,1.775,0.416,3.812c-0.845,0.936-1.772,1.739-2.824,2.353c-2.317,1.342-4.076,3.226-5.916,5.088
	c-0.449,0.44-0.587,0.837,0.021,1.247c0.225,0.144,0.421,0.344,0.629,0.528c1.539,1.3,1.593,1.663,0.291,3.265
	c-1.156,1.452-2.765,2.341-4.276,3.349c-1.06,0.703-2.058,1.482-2.894,2.453c-0.615,0.695-0.714,1.432-0.045,2.114
	c0.681,0.667,0.544,1.275,0.054,1.973c-1.161,1.709-2.905,2.663-4.645,3.578c-1.691,0.903-3.432,1.67-4.92,2.885
	c-1.035,0.834-1.048,1.035-0.118,1.916c1.241,1.221,1.219,1.572-0.279,2.516c-3.445,2.143-6.905,4.279-10.372,6.439
	c-1.09,0.669-1.057,0.925,0.014,1.631c0.2,0.138,0.418,0.245,0.593,0.387c0.792,0.67,0.74,1.262-0.226,1.674
	c-3.764,1.559-7.354,3.506-11.077,5.156c-0.871,0.383-1.458,0.766-0.925,1.843c0.345,0.655-0.176,0.999-0.676,1.313
	c-2.643,1.723-5.579,2.994-8.392,4.403c-1.213,0.607-2.381,1.255-3.577,1.896c-0.678,0.348-0.979,0.798-0.398,1.471
	c0.767,0.864,0.389,1.367-0.467,1.833c-1.95,1.052-4.006,1.853-6.029,2.781c-3.263,1.453-6.323,3.255-9.218,5.373
	c-3.617,2.682-6.956,5.737-10.298,8.778c-2.638,2.428-4.474,5.517-6.287,8.587c-0.454,0.766-0.107,1.035,0.62,1.012
	c0.91-0.03,1.843-0.151,2.654-0.586c3.312-1.723,6.859-2.834,10.4-3.992c1.726-0.577,3.194-1.479,4.398-2.876
	c1.137-1.301,2.385-2.397,4.146-2.845c0.982-0.254,1.635-1.081,2.363-1.771c0.879-0.805,1.871-1.336,3.095-1.622
	c2.91-0.671,4.837-2.858,6.857-4.863c0.537-0.521,1.008-1.128,1.481-1.709c1.169-1.457,2.655-2.198,4.549-2.138
	c1.334,0.04,2.335-0.7,3.204-1.569c1.404-1.395,2.763-2.835,4.136-4.252c1.578-1.651,3.341-2.916,5.694-3.176
	c0.691-0.078,1.275-0.407,1.8-0.851c1.233-1.043,2.464-2.1,3.706-3.158c1.296-1.105,2.714-2.085,4.496-2.214
	c1.465-0.119,2.608-0.827,3.728-1.687c0.402-0.311,0.817-0.609,1.156-0.993c3.075-3.34,6.877-5.229,11.357-5.915
	c1.88-0.284,3.631-1.14,5.096-2.399c2.269-1.94,4.927-2.775,7.85-2.916c1.805-0.084,3.357-0.866,4.829-1.879
	c1.255-0.861,2.512-1.774,4.026-2.226c0.715-0.217,1.421-0.285,1.921,0.415c0.365,0.501,0.845,0.488,1.385,0.39
	c1.277-0.259,2.342-0.926,3.422-1.596c1.461-0.949,2.821-2.041,4.464-2.665c1.344-0.508,2.667-0.713,4.019-0.032
	c1.281,0.632,2.581,0.218,3.803-0.204c1.209-0.421,2.38-0.934,3.541-1.419c0.74-0.285,1.564-0.586,2.312-0.426
	c1.631,0.32,2.9-0.384,4.254-1.053c0.816-0.397,1.678-0.693,2.559-0.965c0.9-0.29,1.682-0.211,2.145,0.819
	c0.453,0.981,1.25,0.463,1.882,0.26c2.057-0.663,4.111-1.412,6.15-2.109c0.761-0.239,1.539-0.456,2.303-0.546
	c6.05-0.767,11.881-2.333,17.626-4.356c1.813-0.655,3.655-1.34,5.657-1.164c0.629,0.06,1.456-0.094,1.646,0.8
	c0.181,0.847-0.474,1.266-1.084,1.648c-6.21,3.668-12.557,7.076-18.877,10.493c-1.025,0.549-1.956,1.216-2.85,1.95
	c-1.082,0.843-2.174,1.711-3.517,2.156c-0.504,0.155-0.812,0.498-0.595,1.076c0.264,0.768-0.197,1.15-0.754,1.55
	c-2.793,1.852-5.771,3.452-8.488,5.436c-0.777,0.551-1.556,1.029-0.43,2.048c0.523,0.486,0.159,1.136-0.196,1.623
	c-0.997,1.445-2.404,2.412-3.941,3.149c-2.152,1.028-4.337,1.939-6.49,2.903c-1.291,0.585-1.351,0.867-0.62,2.071
	c0.105,0.179,0.222,0.33,0.315,0.499c0.897,1.457,0.709,2.036-0.918,2.423c-1.756,0.41-3.342,1.219-4.879,2.084
	c-1.628,0.918-3.236,1.872-5.001,2.443c-0.901,0.289-0.611,0.657-0.154,1.044c0.367,0.316,0.792,0.535,1.155,0.829
	c1.086,0.864,1.119,1.452,0.181,2.468c-1.347,1.435-3.115,2.12-4.952,2.643c-2.478,0.729-5.021,1.121-7.536,1.646
	c-1.146,0.222-1.264,0.541-0.492,1.441c0.569,0.661,1.353,1.085,1.849,1.838c0.804,1.264,0.502,2.112-1.012,2.167
	c-3.351,0.172-6.473,1.438-9.79,1.851c-1.009,0.111-1.361,0.622-0.874,1.522c0.571,1.083-0.012,1.414-0.91,1.641
	c-3.704,0.942-7.509,1.53-11.326,1.995c-1.103,0.129-2.204,0.269-3.298,0.373c-0.693,0.076-0.731,0.345-0.344,0.829
	c0.098,0.132,0.22,0.246,0.312,0.354c0.358,0.403,1.007,0.692,0.826,1.332c-0.194,0.693-0.909,0.714-1.479,0.841
	c-3.02,0.754-6.107,0.53-9.206,0.654c-0.823,0.027-1.649,0.054-2.479,0.121c-0.857,0.058-1.08,0.458-0.683,1.265
	c0.745,1.437,0.556,1.744-1.071,1.856c-3.667,0.266-7.271-0.21-10.889-0.488c-0.529-0.037-1.039-0.056-1.544-0.101
	c-0.829-0.068-1.235,0.217-1.011,1.104c0.232,0.86-0.142,1.116-0.974,1.108c-3.608-0.031-7.167-0.603-10.771-0.796
	c-1.112-0.054-2.265-0.399-3.178,0.709c-0.331,0.407-1,0.147-1.479,0.099c-5.448-0.534-10.873-1.072-16.346-0.934
	c-3.439,0.088-6.868,0.371-10.262,1.045c-0.331,0.072-0.816,0.074-0.892,0.459c-0.109,0.492,0.379,0.65,0.697,0.839
	c1.768,0.989,3.694,0.758,5.573,0.673c4.858-0.25,9.616,0.572,14.409,1.18c0.317,0.038,0.66,0.087,0.901,0.254
	c1.789,1.182,3.716,0.74,5.622,0.54c2.003-0.222,4.022-0.356,6.025,0.091c0.541,0.124,1.164,0.208,1.559,0.531
	c1.791,1.529,3.911,1.213,5.979,1.205c2.183,0.008,4.36-0.193,6.478,0.47c1.77,0.528,1.903,0.726,1.379,2.446
	c-0.229,0.784,0.251,0.821,0.745,0.828c1.729,0.104,3.476,0.178,5.211,0.257c2.591,0.143,5.145,0.293,7.627,1.063
	c1.392,0.423,1.53,0.647,1.017,2.029c-0.298,0.809,0.252,0.894,0.735,1.028c2.089,0.582,4.177,1.164,6.297,1.717
	c2.775,0.753,5.584,1.475,8.246,2.62c0.672,0.296,1.165,0.614,1.005,1.487c-0.15,0.731,0.478,0.915,0.959,1.175
	c5.347,3.018,10.684,6.035,16.038,9.04c6.171,3.446,12.007,7.364,17.543,11.747c0.989,0.796,1.884,1.698,2.649,2.694
	c0.374,0.477,0.733,0.956,0.847,1.566c0.093,0.441,0.409,0.952,0.036,1.344c-0.351,0.323-0.833,0.053-1.25-0.066
	c-1.646-0.394-3.098-1.215-4.527-2.055c-9.179-5.397-19.127-8.521-29.582-10.153c-0.689-0.098-1.337-0.125-1.899,0.387
	c-0.455,0.416-0.955,0.249-1.461,0.132c-3.937-0.924-7.868-1.836-11.789-2.763c-1.616-0.371-1.681-0.309-1.378,1.27
	c0.228,1.172,0.011,1.41-1.216,1.337c-1.668-0.113-3.131-0.796-4.563-1.588c-1.322-0.724-2.611-1.475-4.113-1.832
	c-0.868-0.199-1.319,0.034-1.196,0.976c0.124,1.017-0.406,1.226-1.263,1.148c-1.067-0.077-2.038-0.441-2.928-0.974
	c-1.518-0.91-3.009-1.874-4.528-2.807c-0.681-0.396-1.39-0.749-2.117-1.072c-0.73-0.337-1.337-0.325-1.367,0.721
	c-0.021,0.896-0.645,0.863-1.269,0.766c-1.773-0.28-3.282-1.141-4.776-2.057c-2.851-1.767-5.885-3.251-8.833-4.865
	c-0.32-0.189-0.714-0.586-1.058-0.298c-0.412,0.32-0.04,0.796,0.082,1.196c0.147,0.394,0.475,0.829,0.148,1.212
	c-0.336,0.383-0.818,0.125-1.229,0.052c-1.527-0.364-2.7-1.288-3.889-2.232c-2.425-1.932-5.059-3.529-7.758-5.014
	c-0.663-0.373-1.237-0.591-1.621,0.347c-0.245,0.554-0.686,0.449-1.107,0.179c-0.827-0.466-1.539-1.104-2.187-1.8
	c-1.07-1.167-2.256-2.236-3.608-3.054c-2.884-1.674-5.276-3.909-7.496-6.351c-1.155-1.297-2.405-2.505-3.852-3.5
	c-0.91-0.641-1.397-0.462-1.715,0.637c-0.282,0.967,0.026,1.964,0.068,2.935c0.404,8.062,1.505,16.071,2.031,24.123
	c0.321,5.043,1.021,10.065,1.769,15.082c1.215,8.211,2.306,16.444,3.133,24.713c0.444,4.451,1.133,8.857,1.651,13.296
	c0.722,6.146,1.86,12.216,2.649,18.312c0.146,1.211,0.02,2.397-0.394,3.526c-0.404,1.104-1.014,1.363-2,0.703
	c-0.823-0.566-1.617-0.841-2.646-0.715c-0.763,0.103-1.302-0.343-1.472-1.203c-0.28-1.459-0.277-2.921-0.186-4.376
	c0.164-2.878-0.059-5.711-0.635-8.503c-1.526-7.298-1.953-14.737-2.998-22.111c-1.094-7.702-1.548-15.495-2.974-23.184
	c-0.476-2.513-0.762-5.086-0.717-7.67c0.021-2.382-0.275-4.73-0.813-7.046c-0.413-1.709-0.58-3.425-0.32-5.179
	c0.078-0.585,0.125-1.214-0.004-1.772c-0.911-4.006-0.661-8.113-0.86-12.175c-0.147-3.009-0.582-5.986-1.317-8.911
	c-0.339-1.3-0.576-1.382-1.661-0.611c-2.656,1.925-4.872,4.288-6.732,6.961c-3.898,5.607-7.846,11.151-10.138,17.678
	c-0.387,1.124-1.088,2.095-2.021,2.886c-0.695,0.6-1.15,0.409-1.341-0.422c-0.229-0.975-0.374-1.963-0.539-2.924
	c-0.146-0.927-0.577-1.317-1.272-0.521c-2.727,3.089-6.321,5.434-8.227,9.278c-0.624,1.254-1.434,2.368-2.443,3.347
	c-0.686,0.646-1.305,0.786-1.801-0.165c-0.369-0.727-0.801-0.583-1.335-0.188c-1.401,1.063-2.428,2.49-3.415,3.923
	c-0.96,1.45-2.018,2.834-3.414,3.932c-1.188,0.95-1.608,0.816-2.1-0.578c-0.473-1.351-0.783-1.492-1.794-0.463
	c-3.665,3.72-8.354,6.092-12.4,9.349c-0.666,0.558-1.271,0.568-1.782-0.19c-0.306-0.453-0.68-0.47-1.122-0.179
	c-4.429,2.921-9.197,5.282-13.421,8.511c-4.09,3.153-7.261,7.058-9.701,11.566c-0.978,1.815-1.85,3.685-3.376,5.143
	c-0.938,0.891-1.158,0.844-1.595-0.39c-0.606-1.684-0.168-3.275,0.46-4.839c3.93-9.813,9.478-18.574,16.847-26.183
	c0.282-0.286,0.663-0.567,0.548-0.991c-0.315-1.106,0.396-1.684,1.047-2.324c2.747-2.634,5.782-4.925,8.75-7.305
	c0.701-0.562,1.116-1.071,0.592-1.966c-0.406-0.655-0.002-1.089,0.523-1.472c2.232-1.661,4.764-2.845,7.109-4.304
	c0.823-0.51,1.835-0.869,1.464-2.213c-0.131-0.447,0.362-0.662,0.706-0.873c3.175-1.997,6.202-4.262,9.537-5.999
	c0.606-0.337,1.035-0.7,0.817-1.479c-0.194-0.718,0.328-0.977,0.841-1.218c3.004-1.445,5.994-2.899,8.989-4.328
	c0.979-0.477,1.863-1.049,2.521-1.925c0.25-0.319,0.522-0.592,0.958-0.647c4.149-0.736,7.701-2.777,11.157-5.062
	c1.263-0.812,2.575-1.55,3.826-2.361c0.265-0.172,0.834-0.178,0.655-0.678c-0.125-0.349-0.611-0.295-0.948-0.245
	c-2.138,0.293-4.175,0.94-6.23,1.479c-3.238,0.854-6.404,1.809-9.606,2.72c-0.14,0.038-0.307,0.081-0.468,0.086
	c-4.507,0.135-8.421,2.291-12.551,3.743c-0.641,0.217-1.157,0.512-1.618-0.246c-0.315-0.499-0.75-0.234-1.171-0.106
	c-2.182,0.724-4.175,1.882-6.289,2.776c-1.541,0.643-3.077,1.249-4.772,1.325c-0.598,0.047-1.036-0.045-0.953-0.805
	c0.086-0.809-0.383-0.671-0.914-0.526c-1.679,0.508-3.206,1.359-4.768,2.092c-1.47,0.692-2.988,1.268-4.62,1.48
	c-1,0.148-1.615-0.099-1.674-1.227c-0.058-1.056-0.551-1.312-1.592-0.981c-2.168,0.67-4.104,1.866-6.231,2.618
	c-0.941,0.333-1.894,0.545-2.896,0.483c-1.079-0.076-1.331-0.437-0.996-1.441c0.119-0.369,0.498-0.735,0.156-1.106
	c-0.377-0.364-0.827-0.059-1.226,0.064c-2.28,0.667-4.539,1.379-6.824,2.023c-1.613,0.456-3.259,0.599-4.933,0.312
	c-0.97-0.159-1.276-0.608-0.872-1.574c0.586-1.397,0.468-1.573-1.031-1.57c-1.526-0.016-2.978,0.375-4.434,0.741
	c-2.214,0.555-4.46,0.796-6.708,0.293c-1.571-0.33-1.742-0.723-1.179-2.237c0.449-1.196,0.312-1.469-0.936-1.585
	c-0.551-0.035-1.126-0.065-1.659,0.069c-2.316,0.538-4.654,0.148-6.976-0.019c-0.565-0.045-0.932-0.422-1.224-0.865
	c-0.57-0.811-1.313-1.022-2.272-0.846c-1.498,0.275-2.997,0.402-4.475-0.02c-1.401-0.411-1.682-0.931-1.24-2.299
	c0.244-0.763-0.245-0.797-0.72-0.884c-1.549-0.208-3.083-0.126-4.62-0.066c-1.7,0.04-3.409,0.119-5.066-0.407
	c-1.34-0.422-1.542-0.844-0.975-2.075c0.414-0.842,0.06-1.013-0.672-1.162c-2.989-0.567-6.027-0.925-8.959-1.784
	c-1.229-0.355-2.62-0.509-3.054-2.065c-0.091-0.292-0.425-0.354-0.694-0.403c-7.309-1.556-14.498-3.749-21.987-4.404
	c-1.727-0.166-3.493-0.139-5.125-0.793c-0.451-0.164-1.151-0.269-1.158-0.851c-0.016-0.556,0.55-0.845,1.015-1.079
	c1.925-1.047,4.064-1.266,6.184-1.459c4.675-0.438,9.326,0.206,13.996,0.079c2.77-0.089,5.529-0.175,8.313-0.254
	c0.542-0.013,1.018-0.125,1.078-0.804c0.122-1.161,0.917-1.42,1.926-1.521c2.899-0.259,5.77,0.13,8.629,0.322
	c0.877,0.061,1.752,0.1,2.621,0.11c0.698,0.021,1.203-0.196,0.908-1.059c-0.311-0.883,0.174-1.208,0.925-1.433
	c1.428-0.386,2.83-0.175,4.228,0.164c1.617,0.372,3.205,0.45,4.768-0.206c0.909-0.38,1.794-0.009,2.679,0.148
	c0.932,0.152,1.717,0.182,1.542-1.174c-0.088-0.616,0.35-0.856,0.898-1.045c1.625-0.521,3.271-0.464,4.933-0.249
	c1.84,0.242,3.67,0.636,5.547,0.342c0.77-0.131,1.353-0.396,1.648-1.145c0.306-0.764,0.875-1.029,1.704-1.044
	c1.282-0.025,2.51,0.182,3.749,0.462c1.355,0.294,2.691,0.632,4.087,0.673c0.846,0.019,1.718-0.019,2.414-0.481
	c1.385-0.947,2.849-0.809,4.333-0.476c1.625,0.347,3.218,0.795,4.846,1.165c2.043,0.468,4.012,0.466,5.724-1.002
	c0.438-0.378,0.976-0.279,1.489-0.248c1.301,0.133,2.559,0.509,3.78,0.952c2.562,0.928,5.077,1.545,7.699,0.109
	c0.864-0.484,1.884-0.125,2.756,0.236c1.267,0.559,2.489,1.215,3.74,1.813c1.759,0.814,3.511,1.188,5.385,0.322
	c1.024-0.488,2.03-0.002,2.95,0.422c2.156,1.018,4.3,2.035,6.429,3.106c0.993,0.485,1.983,0.749,3.065,0.375
	c0.984-0.305,1.848-0.055,2.736,0.402c10.32,5.274,21.356,7.504,32.883,7.628c1.305,0.019,2.583-0.303,3.87-0.577
	c0.396-0.071,0.868-0.123,0.994-0.528c0.122-0.47-0.243-0.846-0.589-1.106c-1.439-1.096-2.956-2.131-4.364-3.259
	c-5.598-4.445-11.942-7.428-18.739-9.511c-1.128-0.338-2.271-0.698-3.352-1.192c-3.276-1.579-6.729-2.243-10.343-2.294
	c-0.756-0.012-1.586,0.065-1.305-1.175c0.112-0.604-0.47-0.742-0.915-0.934c-2.017-0.867-4.185-1.135-6.319-1.562
	c-1.362-0.269-2.708-0.58-4.059-0.863c-0.869-0.211-1.129-0.683-0.627-1.458c0.626-0.907,0.235-1.344-0.684-1.633
	c-2.756-0.843-5.621-1.332-8.454-1.927c-0.76-0.157-1.541-0.359-2.311-0.505c-0.771-0.154-1.152-0.542-0.789-1.326
	c0.477-0.979-0.066-1.302-0.885-1.449c-1.944-0.335-3.896-0.646-5.853-0.978c-1.651-0.293-3.247-0.692-4.664-1.659
	c-1.218-0.829-1.273-1.139-0.603-2.401c0.54-1.041,0.338-1.524-0.839-1.729c-0.461-0.088-0.954-0.072-1.425-0.073
	c-1.103-0.009-2.107-0.22-2.99-0.912c-1.098-0.85-2.471-1.043-3.763-1.399c-1.332-0.374-2.684-0.659-3.862-1.471
	c-1.238-0.874-1.415-1.3-0.799-2.664c0.318-0.69,0.038-1.009-0.525-1.302c-1.647-0.887-3.427-1.403-5.195-1.993
	c-1.779-0.577-3.518-1.211-4.999-2.399c-1.221-0.978-1.323-1.267-0.577-2.668c0.292-0.562,0.125-0.866-0.309-1.206
	c-1.091-0.817-2.327-1.338-3.582-1.833c-1.763-0.695-3.575-1.324-4.919-2.767c-1.389-1.492-1.287-2.085,0.494-3.045
	c0.179-0.096,0.336-0.191,0.517-0.286c0.27-0.148,0.626-0.296,0.571-0.668c-0.059-0.386-0.432-0.466-0.735-0.497
	c-1.334-0.119-2.484-0.504-3.012-1.898c-0.146-0.462-0.693-0.467-1.09-0.611c-2.045-0.682-4.025-1.481-5.548-3.091
	c-0.987-1.064-0.933-1.649,0.262-2.488c1.579-1.107,1.596-1.489,0.023-2.704c-1.039-0.799-2.234-1.374-3.375-1.987
	c-0.937-0.515-1.882-1.009-2.685-1.736c-1.094-0.963-1.506-2.132-0.927-3.5c0.286-0.667,0.131-1.108-0.363-1.569
	c-0.921-0.901-2.082-1.425-3.175-2.042c-1.197-0.653-2.392-1.293-3.112-2.512c-0.833-1.431-0.606-2.098,0.938-2.717
	c0.31-0.137,0.822-0.114,0.815-0.553c-0.013-0.406-0.465-0.509-0.787-0.648c-0.576-0.24-1.171-0.44-1.766-0.641
	c-1.158-0.375-2.16-0.767-2.362-2.277c-0.145-1.126-1.21-1.797-2.112-2.46c-0.889-0.661-1.83-1.262-2.645-1.997
	c-1.172-1.048-1.247-1.864-0.285-3.1c0.52-0.671,0.347-1.011-0.348-1.149c-1.479-0.298-2.531-1.04-3.278-2.407
	c-0.528-0.919-1.644-1.333-2.552-1.891c-1.05-0.662-1.984-1.431-2.443-2.647c-0.303-0.773-0.228-1.307,0.656-1.551
	c0.341-0.094,0.785-0.175,0.821-0.583c0.039-0.46-0.404-0.644-0.763-0.783c-0.868-0.336-1.732-0.591-2.572-0.919
	c-0.909-0.367-1.626-0.896-1.27-2.059c0.182-0.56-0.208-0.798-0.553-1.056c-0.817-0.606-1.66-1.22-2.481-1.848
	c-1.118-0.829-2.111-1.78-2.885-2.956c-0.88-1.355-0.87-1.635,0.461-2.55c0.572-0.384,0.293-0.63-0.007-0.909
	c-0.522-0.479-1.446-0.725-1.569-1.389c-0.548-2.99-3.27-3.845-5.17-5.496c-0.646-0.55-1.328-1.02-1.14-2.026
	c0.058-0.295-0.076-0.55-0.318-0.722c-2.594-1.709-4.506-4.236-7.068-5.977c-5.447-3.692-10.858-7.391-16.314-11.063
	c-1.037-0.725-2.083-1.431-2.771-2.549c-0.449-0.76-0.217-1.18,0.6-1.385c0.83-0.204,1.564,0.021,2.302,0.325
	c9.514,4.06,18.792,8.584,28.356,12.51c0.657,0.271,1.209,0.651,1.492-0.441c0.17-0.693,0.812-0.501,1.298-0.35
	c1.573,0.472,2.957,1.333,4.264,2.313c1.568,1.185,3.028,2.526,4.771,3.52c0.73,0.398,1.39,0.76,1.575-0.531
	c0.113-0.664,0.676-0.7,1.222-0.627c1.042,0.143,1.963,0.58,2.81,1.204c1.374,1.006,2.76,2.008,4.572,2.096
	c0.45,0.022,0.782,0.345,1.076,0.669c0.528,0.584,1.039,1.203,1.545,1.802c1.134,1.383,1.499,1.347,2.303-0.206
	c0.552-1.043,0.77-0.799,1.749-0.322c2.033,0.958,2.933,3.486,5.452,3.722c0.667,0.056,1.097,0.715,1.445,1.325
	c0.26,0.473,0.502,0.986,0.799,1.452c0.277,0.432,0.64,0.854,1.242,0.762c0.58-0.081,0.626-0.635,0.753-1.093
	c0.397-1.411,0.806-1.609,2.235-1.111c1.165,0.406,2.029,1.2,2.876,2.036c1.163,1.143,2.286,2.329,3.918,2.791
	c0.457,0.125,0.636,0.564,0.845,0.959c0.414,0.773,0.849,1.522,1.296,2.264c0.189,0.293,0.413,0.63,0.839,0.52
	c0.402-0.098,0.521-0.461,0.631-0.803c0.754-2.237,1.397-2.442,3.359-1.001c0.771,0.552,1.398,1.272,2.047,1.971
	c1.023,1.125,2.106,2.158,3.681,2.444c0.538,0.1,0.747,0.562,0.97,0.973c0.444,0.791,0.822,1.639,1.286,2.408
	c0.511,0.828,0.914,0.791,1.343-0.037c0.807-1.61,0.998-1.646,2.441-0.53c1.56,1.205,2.777,2.71,3.918,4.271
	c0.425,0.56,0.849,1.04,1.588,1.157c0.777,0.124,1.045,0.768,1.264,1.415c0.139,0.421,0.196,0.868,0.401,1.239
	c0.31,0.543,0.818,0.748,1.179,0.081c0.688-1.241,1.474-0.877,2.342-0.264c1.341,0.962,2.332,2.241,3.218,3.626
	c0.924,1.458,1.808,2.962,2.724,4.441c0.175,0.277,0.332,0.72,0.77,0.615c0.357-0.084,0.395-0.477,0.45-0.783
	c0.214-1.198,0.876-1.102,1.735-0.667c1.519,0.78,2.605,2.041,3.595,3.383c0.976,1.337,1.942,2.683,2.864,4.061
	c0.537,0.769,1.196,1.051,2.053,0.658c0.752-0.362,1.241-0.055,1.757,0.463c1.385,1.405,2.339,3.093,3.381,4.716
	c0.932,1.433,1.887,2.854,3.225,3.933c0.582,0.469,1.138,0.801,1.943,0.399c0.622-0.319,1.204-0.116,1.741,0.375
	c0.572,0.557,1.079,1.157,1.434,1.872c1.164,2.288,2.43,4.526,3.907,6.632C207.612,227.636,207.858,228.905,208.401,230.174z"/>
</svg>
