<?xml version="1.0" encoding="utf-8"?>
<!-- Generator: Adobe Illustrator 16.0.4, SVG Export Plug-In . SVG Version: 6.00 Build 0)  -->
<!DOCTYPE svg PUBLIC "-//W3C//DTD SVG 1.1//EN" "http://www.w3.org/Graphics/SVG/1.1/DTD/svg11.dtd">
<svg version="1.1" id="Layer_1" xmlns="http://www.w3.org/2000/svg" xmlns:xlink="http://www.w3.org/1999/xlink" x="0px" y="0px"
	 width="400px" height="90px" viewBox="0 0 400 90" enable-background="new 0 0 400 90" xml:space="preserve">
<g>
	<path fill="#FBB03B" d="M20.031,45.447c0,12.959,2.494,19.438,7.482,19.438c2.522,0,4.473-0.917,5.849-2.752
		c0.229-0.287,0.501-0.845,0.817-1.677c0.314-0.831,0.673-1.505,1.075-2.021c0.4-0.516,0.888-0.774,1.462-0.774
		c3.153,0,4.73,1.75,4.73,5.247c0,2.122-0.374,3.87-1.118,5.247c-1.09,2.236-2.825,4.128-5.203,5.676
		c-2.38,1.549-4.803,2.322-7.268,2.322c-5.792,0-10.149-2.666-13.073-7.998c-2.924-5.333-4.386-12.585-4.386-21.76
		c0-2.809,0.028-5.189,0.086-7.139c0.057-1.949,0.215-4.185,0.473-6.708c0.258-2.522,0.63-4.615,1.118-6.278
		c0.486-1.663,1.161-3.383,2.021-5.161c0.86-1.776,1.906-3.196,3.139-4.257c1.232-1.06,2.752-1.92,4.559-2.58
		c1.806-0.659,3.884-0.989,6.235-0.989c3.612,0,6.851,1.219,9.719,3.655c2.867,2.438,4.3,5.777,4.3,10.02
		c0,2.352-0.631,3.612-1.892,3.784c-0.976,0.172-1.95,0.258-2.924,0.258c-1.434,0-2.408-0.357-2.924-1.075
		c-0.516-0.716-0.832-1.706-0.946-2.967c-0.058-1.318-0.675-2.351-1.849-3.096c-1.176-0.745-2.537-1.118-4.085-1.118
		c-1.664,0-3.01,0.502-4.042,1.505c-1.032,1.004-1.778,2.494-2.236,4.473c-0.459,1.978-0.761,3.857-0.903,5.633
		c-0.144,1.778-0.215,3.956-0.215,6.537V45.447z"/>
	<path fill="#FBB03B" d="M62.174,13.367c11.123,0,16.686,11.755,16.686,35.263c0,4.358-0.574,8.63-1.72,12.815
		c-1.148,4.186-3.068,7.841-5.763,10.966c-2.696,3.125-5.878,4.687-9.546,4.687c-3.498,0-6.422-0.774-8.773-2.322
		c-2.352-1.548-4.1-3.797-5.247-6.751c-1.147-2.952-1.921-5.991-2.322-9.117c-0.402-3.125-0.602-6.837-0.602-11.138
		c0-3.44,0.142-6.679,0.43-9.719c0.287-3.039,0.817-6.12,1.591-9.246c0.774-3.125,1.776-5.776,3.01-7.956
		c1.232-2.179,2.895-3.97,4.988-5.375C56.999,14.07,59.422,13.367,62.174,13.367z M69.313,37.879c0-2.522-0.245-5.045-0.731-7.569
		c-0.488-2.522-1.363-4.773-2.624-6.751c-1.262-1.978-2.782-2.967-4.558-2.967h-0.086c-5.104,0-7.655,8.601-7.655,25.802
		c0,3.268,0.143,6.05,0.43,8.342c0.344,4.128,1.017,7.283,2.021,9.461c1.002,2.18,2.824,3.298,5.461,3.354
		c1.548,0,2.867-0.96,3.957-2.881c1.088-1.92,1.892-4.5,2.408-7.741c0.516-3.239,0.874-6.378,1.075-9.417
		C69.212,44.473,69.313,41.263,69.313,37.879z"/>
	<path fill="#FBB03B" d="M130.463,26.87c0,4.53,0.086,11.754,0.258,21.673c0.172,9.92,0.258,16.829,0.258,20.728v1.118
		c0,4.3-1.578,6.45-4.73,6.45l-0.172,0.086c-0.115,0-0.202,0-0.258,0h-0.086c-0.058-0.057-0.116-0.086-0.172-0.086
		c-1.835-0.288-3.04-1.26-3.612-2.923c-0.574-1.663-0.86-3.927-0.86-6.795v-4.73c0-2.522,0.071-6.623,0.215-12.299
		c0.143-5.677,0.215-9.805,0.215-12.385c0-1.146-0.172-1.72-0.516-1.72c-0.288,0-0.847,1.176-1.677,3.526
		c-0.832,2.352-1.677,4.932-2.537,7.741c-0.86,2.81-1.376,4.386-1.548,4.73c-0.574,1.434-1.405,3.67-2.494,6.708
		c-1.09,3.04-1.778,4.96-2.064,5.762c-0.172,0.516-0.402,1.219-0.688,2.107c-0.288,0.89-0.516,1.563-0.688,2.021
		c-0.172,0.46-0.43,0.946-0.774,1.462c-0.344,0.516-0.746,0.89-1.204,1.118c-0.459,0.229-1.032,0.344-1.72,0.344
		c-0.058,0-0.129,0.015-0.215,0.043c-0.086,0.03-0.159,0.043-0.215,0.043c-1.204,0-2.193-0.959-2.967-2.881
		c-0.774-1.92-1.434-4.558-1.978-7.913c-0.546-3.354-0.875-5.231-0.989-5.633c-2.18-8.601-3.956-14.793-5.333-18.577
		c0-0.114-0.086-0.301-0.258-0.559c-0.172-0.258-0.316-0.387-0.43-0.387h-0.086c-0.288,0.058-0.43,0.288-0.43,0.688v0.172v2.15
		c0,1.548,0.057,4.515,0.172,8.902c0.114,4.386,0.172,7.669,0.172,9.848c0,1.492-0.015,3.713-0.043,6.666
		c-0.03,2.954-0.043,5.061-0.043,6.321v0.86c0,1.204-0.417,2.165-1.247,2.881c-0.832,0.718-1.965,1.075-3.397,1.075
		c-1.778,0-3.04-0.487-3.784-1.463c-0.746-0.974-1.118-2.408-1.118-4.3c0-3.785,0.172-9.317,0.516-16.6
		c0.344-7.281,0.516-13.043,0.516-17.287c0-1.433,0.043-3.712,0.129-6.837c0.086-3.125,0.129-5.318,0.129-6.58
		c0-2.121,0.43-4.171,1.29-6.149c0.86-1.979,2.121-2.967,3.785-2.967c1.376,0,2.623,0.774,3.741,2.322
		c1.118,1.548,1.877,3.182,2.279,4.902c5.389,17.947,8.571,29.128,9.547,33.542c0,0.746,0.286,1.118,0.86,1.118
		c0.63,0,1.346-1.318,2.15-3.957c0.917-2.522,2.522-6.851,4.816-12.987c2.292-6.135,4.386-12.011,6.278-17.631
		c1.605-5.045,3.555-7.569,5.849-7.569c1.146,0,2.092,0.301,2.838,0.903c0.744,0.602,1.275,1.52,1.591,2.752
		c0.314,1.234,0.516,2.423,0.602,3.569c0.086,1.148,0.129,2.61,0.129,4.387V26.87z"/>
	<path fill="#FBB03B" d="M136.915,20.075c0-1.892,0.372-3.44,1.118-4.644c0.745-1.204,1.892-1.806,3.44-1.806
		c2.236,0.172,3.354,1.692,3.354,4.558v3.526c0,2.122,0.056,5.261,0.172,9.418c0.114,4.158,0.172,7.181,0.172,9.074
		c0,1.09-0.029,2.681-0.086,4.773c-0.058,2.094-0.086,3.685-0.086,4.773c0,1.204,0.013,2.853,0.043,4.945
		c0.028,2.094,0.043,3.685,0.043,4.773c0,0.86,0.013,2.352,0.043,4.473c0.028,2.122,0.043,3.612,0.043,4.472
		c0,4.816-1.176,7.225-3.526,7.225c-1.032,0-1.892-0.2-2.58-0.603c-0.688-0.4-1.219-0.873-1.591-1.419
		c-0.374-0.544-0.645-1.419-0.817-2.623s-0.273-2.25-0.301-3.139c-0.03-0.888-0.043-2.25-0.043-4.085v-1.29v-3.01
		c0-0.572-0.015-1.404-0.043-2.494c-0.029-1.088-0.043-1.892-0.043-2.408C136.226,43.957,136.455,32.46,136.915,20.075z"/>
	<path fill="#FBB03B" d="M150.847,32.632c0-2.464,0.043-4.601,0.129-6.407s0.286-3.742,0.602-5.806
		c0.314-2.064,0.845-3.655,1.591-4.773c0.744-1.118,1.69-1.677,2.838-1.677c3.383,0,6.106,3.326,8.171,9.977
		c0.688,2.18,1.533,5.147,2.537,8.901c1.002,3.756,1.677,6.236,2.021,7.44c0.287,0.976,0.716,2.58,1.29,4.816
		c0.573,2.236,1.089,4.171,1.548,5.805c0.458,1.634,0.946,3.083,1.462,4.343v-1.72c0-4.013,0.086-9.475,0.258-16.384
		c0.172-6.909,0.258-12.428,0.258-16.557c0-4.529,2.006-6.794,6.021-6.794c1.146,0,1.877,0.331,2.193,0.989
		c0.314,0.66,0.473,1.735,0.473,3.225c0,4.072-0.129,10.006-0.387,17.803c-0.258,7.798-0.387,13.877-0.387,18.233
		c0,1.09,0.028,2.494,0.086,4.214c0.057,1.72,0.086,3.068,0.086,4.042c0,0.688,0.028,1.735,0.086,3.139
		c0.056,1.406,0.086,2.481,0.086,3.225c0,0.23,0.013,0.688,0.043,1.376c0.028,0.688,0.043,1.204,0.043,1.548
		c0,2.752-1.348,4.128-4.042,4.128c-1.95-0.057-3.584-0.803-4.902-2.236c-1.319-1.433-2.236-2.809-2.752-4.128
		c-2.064-5.791-4.645-15.051-7.741-27.78c-0.288-0.86-0.718-1.892-1.29-3.096c-0.116-0.057-0.23-0.086-0.344-0.086
		c-0.459,0-0.688,0.201-0.688,0.602v0.43c0,3.44,0.043,8.544,0.129,15.309c0.086,6.767,0.129,12.271,0.129,16.514
		c0,1.492-0.402,2.595-1.204,3.311c-0.804,0.718-1.664,1.075-2.581,1.075c-4.014,0-6.02-2.809-6.02-8.429
		c0-3.784,0.043-9.489,0.129-17.115C150.804,42.467,150.847,36.646,150.847,32.632z"/>
	<path fill="#FBB03B" d="M205.117,76.582c-3.556,0-6.551-0.761-8.987-2.279c-2.438-1.519-4.3-3.684-5.591-6.494
		c-1.29-2.809-2.193-5.833-2.709-9.074c-0.516-3.239-0.774-6.98-0.774-11.224c0-4.587,0.2-8.285,0.602-11.095
		c0.286-2.292,1.346-6.106,3.182-11.438c1.318-3.727,3.641-6.795,6.966-9.203c2.637-1.948,5.935-2.924,9.891-2.924
		c2.236,0,3.984,0.172,5.246,0.516c3.039,0.688,4.988,2.122,5.85,4.3c0.974,2.466,1.518,5.562,1.634,9.289v0.258
		c0,1.95-0.46,3.298-1.376,4.042c-0.918,0.746-2.352,1.147-4.301,1.204c-2.752,0-4.129-0.802-4.129-2.408
		c0-0.745,0.087-1.978,0.259-3.698c0-0.114,0.043-0.516,0.129-1.204s0.129-1.175,0.129-1.462c0-1.26-0.374-2.121-1.118-2.58
		c-0.746-0.458-1.979-0.688-3.698-0.688c-1.606,0-2.968,0.473-4.085,1.419c-1.118,0.946-1.907,1.936-2.365,2.967
		c-0.459,1.032-0.946,2.408-1.462,4.128c-1.492,4.932-2.236,11.267-2.236,19.007c0,0.344,0.013,0.86,0.043,1.548
		c0.028,0.688,0.043,1.233,0.043,1.634c0.172,4.416,1.189,8.042,3.053,10.879c1.862,2.838,4.744,4.257,8.643,4.257
		c1.205,0,2.093-0.056,2.666-0.172c0.573-0.114,1.061-0.43,1.463-0.946c0.4-0.516,0.602-1.291,0.602-2.322v-0.602
		c-0.172-1.72-0.344-3.698-0.516-5.935c-0.058-0.86-0.516-1.29-1.376-1.29c-0.632,0-1.577,0.058-2.839,0.172
		c-1.262,0.116-2.149,0.172-2.666,0.172c-1.031,0-1.763-0.329-2.193-0.989c-0.43-0.659-0.645-1.906-0.645-3.741
		c0-1.032,0.658-1.792,1.979-2.279c1.318-0.486,3.383-0.817,6.191-0.989c2.81-0.172,4.301-0.258,4.473-0.258h0.517
		c0.974,0,1.776,0.359,2.408,1.075c0.63,0.717,1.032,1.562,1.204,2.537c0.859,4.128,1.29,9.547,1.29,16.255
		c0,3.268-1.505,5.691-4.516,7.268C212.986,75.793,209.359,76.582,205.117,76.582z"/>
	<path fill="#FBB03B" d="M259.903,13.367c5.217,0,8.829,1.247,10.837,3.742c2.006,2.494,3.01,5.977,3.01,10.45
		c0,1.778-0.373,3.068-1.117,3.87c-0.746,0.804-1.635,1.204-2.666,1.204c-1.262,0-2.338-0.4-3.226-1.204
		c-0.89-0.802-1.333-2.121-1.333-3.956c0-0.745-0.043-1.376-0.129-1.892c-0.086-0.516-0.273-1.132-0.56-1.85
		c-0.288-0.716-0.804-1.275-1.548-1.677c-0.746-0.4-1.721-0.602-2.924-0.602c-1.262,0-2.365,0.674-3.312,2.021
		c-0.945,1.348-1.418,2.739-1.418,4.171c0,1.835,0.716,3.713,2.15,5.633c1.432,1.922,3.167,3.784,5.203,5.59
		c2.034,1.806,4.07,3.742,6.105,5.806s3.77,4.558,5.204,7.482c1.433,2.924,2.149,6.078,2.149,9.461
		c0,4.072-0.945,7.454-2.838,10.148c-1.605,2.18-3.283,3.642-5.031,4.386c-1.75,0.745-4.314,1.118-7.697,1.118
		c-3.842,0-7.153-1.676-9.934-5.031c-2.782-3.354-4.172-7.41-4.172-12.17c0-1.892,0.473-3.569,1.42-5.031
		c0.945-1.462,2.249-2.193,3.912-2.193c1.09,0,1.906,0.417,2.451,1.247c0.545,0.832,0.846,1.677,0.904,2.538
		c0.285,4.358,0.744,7.168,1.375,8.428c0.861,1.664,2.352,2.495,4.473,2.495c1.834,0,3.211-0.759,4.129-2.279
		c0.916-1.519,1.375-3.253,1.375-5.204c0-2.522-0.487-4.83-1.461-6.923c-0.977-2.092-2.193-3.812-3.656-5.161
		c-1.461-1.346-3.053-2.752-4.773-4.214c-1.72-1.462-3.311-2.823-4.773-4.085c-1.461-1.261-2.68-2.867-3.654-4.816
		c-0.977-1.949-1.463-4.071-1.463-6.365c0-4.185,1.218-7.754,3.656-10.708C253.008,14.844,256.119,13.367,259.903,13.367z"/>
	<path fill="#FBB03B" d="M297.488,13.367c11.123,0,16.686,11.755,16.686,35.263c0,4.358-0.574,8.63-1.721,12.815
		c-1.147,4.186-3.068,7.841-5.762,10.966c-2.696,3.125-5.879,4.687-9.547,4.687c-3.498,0-6.422-0.774-8.773-2.322
		s-4.1-3.797-5.246-6.751c-1.147-2.952-1.922-5.991-2.322-9.117c-0.401-3.125-0.602-6.837-0.602-11.138
		c0-3.44,0.143-6.679,0.43-9.719c0.287-3.039,0.817-6.12,1.592-9.246c0.773-3.125,1.775-5.776,3.01-7.956
		c1.232-2.179,2.895-3.97,4.988-5.375C292.312,14.07,294.736,13.367,297.488,13.367z M304.627,37.879
		c0-2.522-0.244-5.045-0.73-7.569c-0.488-2.522-1.363-4.773-2.624-6.751c-1.262-1.978-2.782-2.967-4.558-2.967h-0.086
		c-5.104,0-7.655,8.601-7.655,25.802c0,3.268,0.143,6.05,0.431,8.342c0.344,4.128,1.017,7.283,2.021,9.461
		c1.003,2.18,2.823,3.298,5.462,3.354c1.548,0,2.866-0.96,3.956-2.881c1.089-1.92,1.892-4.5,2.408-7.741
		c0.516-3.239,0.874-6.378,1.075-9.417C304.525,44.473,304.627,41.263,304.627,37.879z"/>
	<path fill="#FBB03B" d="M335.762,13.367c11.123,0,16.686,11.755,16.686,35.263c0,4.358-0.574,8.63-1.721,12.815
		c-1.148,4.186-3.068,7.841-5.763,10.966c-2.696,3.125-5.878,4.687-9.546,4.687c-3.498,0-6.423-0.774-8.773-2.322
		c-2.352-1.548-4.1-3.797-5.246-6.751c-1.148-2.952-1.922-5.991-2.322-9.117c-0.402-3.125-0.602-6.837-0.602-11.138
		c0-3.44,0.142-6.679,0.43-9.719c0.286-3.039,0.816-6.12,1.591-9.246c0.774-3.125,1.776-5.776,3.011-7.956
		c1.232-2.179,2.895-3.97,4.988-5.375C330.586,14.07,333.01,13.367,335.762,13.367z M342.9,37.879c0-2.522-0.245-5.045-0.731-7.569
		c-0.487-2.522-1.362-4.773-2.624-6.751s-2.781-2.967-4.558-2.967h-0.086c-5.104,0-7.655,8.601-7.655,25.802
		c0,3.268,0.143,6.05,0.431,8.342c0.344,4.128,1.017,7.283,2.021,9.461c1.003,2.18,2.824,3.298,5.462,3.354
		c1.548,0,2.866-0.96,3.956-2.881c1.089-1.92,1.893-4.5,2.408-7.741c0.516-3.239,0.874-6.378,1.075-9.417
		C342.799,44.473,342.9,41.263,342.9,37.879z"/>
	<path fill="#FBB03B" d="M357.521,32.632c0-2.464,0.043-4.601,0.129-6.407s0.285-3.742,0.602-5.806
		c0.314-2.064,0.846-3.655,1.592-4.773c0.744-1.118,1.689-1.677,2.838-1.677c3.383,0,6.105,3.326,8.17,9.977
		c0.688,2.18,1.533,5.147,2.537,8.901c1.003,3.756,1.678,6.236,2.021,7.44c0.287,0.976,0.717,2.58,1.29,4.816
		c0.573,2.236,1.089,4.171,1.548,5.805s0.947,3.083,1.463,4.343v-1.72c0-4.013,0.086-9.475,0.258-16.384
		c0.172-6.909,0.258-12.428,0.258-16.557c0-4.529,2.006-6.794,6.021-6.794c1.146,0,1.878,0.331,2.193,0.989
		c0.314,0.66,0.474,1.735,0.474,3.225c0,4.072-0.13,10.006-0.388,17.803c-0.258,7.798-0.388,13.877-0.388,18.233
		c0,1.09,0.029,2.494,0.086,4.214s0.087,3.068,0.087,4.042c0,0.688,0.028,1.735,0.086,3.139c0.056,1.406,0.086,2.481,0.086,3.225
		c0,0.23,0.013,0.688,0.043,1.376c0.028,0.688,0.043,1.204,0.043,1.548c0,2.752-1.348,4.128-4.042,4.128
		c-1.95-0.057-3.584-0.803-4.902-2.236c-1.32-1.433-2.236-2.809-2.752-4.128c-2.064-5.791-4.645-15.051-7.741-27.78
		c-0.288-0.86-0.718-1.892-1.29-3.096c-0.115-0.057-0.23-0.086-0.344-0.086c-0.46,0-0.688,0.201-0.688,0.602v0.43
		c0,3.44,0.043,8.544,0.129,15.309c0.087,6.767,0.13,12.271,0.13,16.514c0,1.492-0.402,2.595-1.205,3.311
		c-0.803,0.718-1.664,1.075-2.58,1.075c-4.014,0-6.02-2.809-6.02-8.429c0-3.784,0.043-9.489,0.129-17.115
		C357.479,42.467,357.521,36.646,357.521,32.632z"/>
</g>
</svg>
