<?xml version="1.0" encoding="utf-8"?>
<!-- Generator: Adobe Illustrator 16.0.4, SVG Export Plug-In . SVG Version: 6.00 Build 0)  -->
<!DOCTYPE svg PUBLIC "-//W3C//DTD SVG 1.1//EN" "http://www.w3.org/Graphics/SVG/1.1/DTD/svg11.dtd">
<svg version="1.1" id="Layer_1" xmlns="http://www.w3.org/2000/svg" xmlns:xlink="http://www.w3.org/1999/xlink" x="0px" y="0px"
	 width="800px" height="91px" viewBox="0 0 800 91" enable-background="new 0 0 800 91" xml:space="preserve">
<g>
	<path fill="#333333" d="M22.161,15.863c0.831,1.385,1.431,2.878,1.8,4.478c0.369,1.6,0.662,3.631,0.877,6.093v1.385
		c0,1.846-0.354,3.701-1.062,5.562c-0.708,1.862-1.569,3.285-2.585,4.27c-2.708,3.046-5.816,5.016-9.324,5.908
		c-0.369,0.092-0.738,0.138-1.107,0.138c-1.601,0-2.616-0.4-3.046-1.2c-0.554-1.138-0.831-3.399-0.831-6.785
		c0-0.123,0.007-0.315,0.023-0.577c0.015-0.261,0.023-0.438,0.023-0.531c0-4.492,0.108-9.862,0.323-16.109
		c0-0.277,0.007-0.9,0.023-1.869c0.015-0.969,0.039-1.715,0.069-2.239c0.03-0.523,0.116-1.138,0.254-1.846
		c0.139-0.708,0.331-1.277,0.577-1.708c0.431-0.739,1.092-1.108,1.985-1.108c0.215,0,0.554,0.016,1.015,0.046
		c0.462,0.031,0.846,0.046,1.154,0.046c1.108,0,2.169,0.154,3.185,0.462C18.16,10.924,20.376,12.787,22.161,15.863z M12.19,36.219
		v0.416c0,1.17,0.154,1.754,0.462,1.754h0.138c0.123-0.061,0.361-0.169,0.715-0.323c0.354-0.153,0.624-0.292,0.808-0.415
		c0.738-0.462,1.708-1.169,2.908-2.124c2.431-2.031,3.646-5.277,3.646-9.739c0-3.2-0.77-5.816-2.308-7.847
		c-1.354-1.723-3.309-2.677-5.862-2.862H12.56c-0.369,0-0.554,0.185-0.554,0.554v4.247c0,0.216,0.007,0.539,0.023,0.97
		c0.015,0.431,0.023,0.754,0.023,0.969c0,0.954,0.015,2.292,0.046,4.016c0.03,1.724,0.046,3.339,0.046,4.847
		c0,0.585,0.007,1.439,0.023,2.562c0.015,1.124,0.023,1.978,0.023,2.562V36.219z"/>
	<path fill="#333333" d="M27.654,13.371c0-1.015,0.2-1.846,0.6-2.493c0.399-0.646,1.015-0.969,1.846-0.969
		c1.2,0.092,1.8,0.908,1.8,2.447v1.892c0,1.139,0.03,2.824,0.092,5.055c0.061,2.231,0.092,3.854,0.092,4.87
		c0,0.585-0.016,1.439-0.046,2.562c-0.031,1.124-0.046,1.978-0.046,2.562c0,0.646,0.007,1.531,0.023,2.654
		c0.015,1.124,0.023,1.978,0.023,2.562c0,0.462,0.007,1.262,0.023,2.4c0.015,1.139,0.023,1.938,0.023,2.4
		c0,2.585-0.631,3.877-1.893,3.877c-0.554,0-1.016-0.107-1.385-0.323c-0.369-0.215-0.654-0.469-0.854-0.762
		c-0.2-0.292-0.346-0.762-0.438-1.408c-0.092-0.646-0.146-1.208-0.162-1.685c-0.016-0.477-0.023-1.207-0.023-2.192v-0.692v-1.616
		c0-0.307-0.008-0.753-0.023-1.338c-0.016-0.584-0.023-1.016-0.023-1.292C27.285,26.188,27.407,20.018,27.654,13.371z"/>
	<path fill="#333333" d="M41.778,9.771c2.8,0,4.739,0.669,5.816,2.008c1.077,1.338,1.615,3.208,1.615,5.608
		c0,0.954-0.2,1.646-0.6,2.077c-0.4,0.431-0.877,0.646-1.431,0.646c-0.677,0-1.254-0.215-1.731-0.646
		c-0.478-0.431-0.716-1.138-0.716-2.124c0-0.399-0.023-0.738-0.069-1.016c-0.046-0.277-0.146-0.607-0.3-0.992
		c-0.154-0.384-0.431-0.685-0.831-0.9c-0.4-0.215-0.923-0.323-1.569-0.323c-0.677,0-1.27,0.362-1.777,1.084
		c-0.508,0.724-0.762,1.47-0.762,2.239c0,0.985,0.384,1.993,1.154,3.023c0.769,1.031,1.7,2.031,2.792,3
		c1.092,0.969,2.185,2.008,3.277,3.116c1.092,1.107,2.023,2.446,2.792,4.016c0.769,1.569,1.154,3.262,1.154,5.078
		c0,2.185-0.508,4-1.523,5.446c-0.862,1.17-1.762,1.955-2.701,2.354c-0.939,0.399-2.315,0.6-4.131,0.6
		c-2.062,0-3.839-0.9-5.332-2.701c-1.493-1.8-2.239-3.977-2.239-6.531c0-1.016,0.254-1.916,0.762-2.7s1.208-1.177,2.1-1.177
		c0.584,0,1.023,0.224,1.316,0.669c0.292,0.446,0.454,0.9,0.484,1.362c0.154,2.339,0.399,3.847,0.739,4.523
		c0.461,0.893,1.261,1.338,2.4,1.338c0.985,0,1.723-0.407,2.216-1.223c0.492-0.815,0.738-1.746,0.738-2.792
		c0-1.354-0.262-2.592-0.785-3.716c-0.523-1.123-1.177-2.046-1.961-2.77c-0.785-0.723-1.639-1.477-2.562-2.262
		c-0.923-0.785-1.777-1.515-2.562-2.192c-0.785-0.677-1.439-1.539-1.962-2.585c-0.523-1.046-0.785-2.185-0.785-3.416
		c0-2.246,0.653-4.161,1.962-5.747C38.078,10.563,39.747,9.771,41.778,9.771z"/>
	<path fill="#333333" d="M55.672,43.512c-0.677,0-1.239-0.284-1.685-0.854c-0.446-0.569-0.669-1.438-0.669-2.608v-8.493
		c0-0.861-0.016-2.162-0.046-3.9c-0.031-1.738-0.046-3.023-0.046-3.854c0-0.739-0.054-2.193-0.162-4.362
		c-0.108-2.169-0.161-3.762-0.161-4.777c0-2.123,0.185-3.37,0.554-3.739c0.676-0.676,1.769-1.016,3.277-1.016
		c0.215,0,0.746-0.015,1.592-0.046c0.846-0.03,1.5-0.046,1.962-0.046c2.646,0,4.893,0.916,6.739,2.747
		c1.846,1.831,2.77,4.009,2.77,6.531c0,0.092,0.007,0.239,0.023,0.438c0.015,0.201,0.023,0.362,0.023,0.485
		c0,2.4-0.738,4.424-2.216,6.07c-1.477,1.646-3.308,2.608-5.493,2.885c-1.231,0.154-2.093,0.231-2.585,0.231h-0.138
		c-0.308,0-0.478,0.185-0.508,0.554v0.277v0.369v0.692v9.739c0,0.646-0.346,1.254-1.039,1.823
		C57.172,43.228,56.441,43.512,55.672,43.512z M64.765,19.879c0-1.385-0.423-2.569-1.269-3.554c-0.847-0.984-1.9-1.492-3.162-1.523
		h-1.2c-0.308,0-0.492,0.215-0.554,0.646v0.139c0,0.893,0.046,2.324,0.139,4.292c0.092,1.97,0.138,3.508,0.138,4.616
		c0.03,0.339,0.154,0.508,0.37,0.508h0.277c1.969,0,3.37-0.662,4.2-1.985C64.411,21.972,64.765,20.926,64.765,19.879z"/>
	<path fill="#333333" d="M71.874,35.619v-3.37c0-2.338,0.053-5.739,0.161-10.201c0.107-4.461,0.162-7.893,0.162-10.293
		c0-1.262,0.861-1.893,2.585-1.893h0.692c0.8,0,1.87,0.031,3.208,0.092c1.339,0.062,2.393,0.092,3.162,0.092
		c0.831,0,1.431,0.4,1.8,1.2c0.123,0.247,0.185,0.77,0.185,1.569v0.092c0,0.431-0.201,0.808-0.6,1.131
		c-0.4,0.323-0.847,0.485-1.339,0.485h-4.985c-0.216,0-0.323,0.2-0.323,0.6c0,0.923-0.016,2.462-0.046,4.616
		c-0.031,2.154-0.046,3.662-0.046,4.523c0,0.4,0.069,0.654,0.208,0.762c0.139,0.108,0.438,0.192,0.9,0.254
		c0.277,0.031,0.699,0.054,1.269,0.069c0.569,0.016,1.031,0.039,1.385,0.069c0.354,0.031,0.731,0.092,1.131,0.185
		c0.4,0.093,0.692,0.239,0.877,0.439c0.185,0.2,0.277,0.469,0.277,0.808c0,1.97-0.508,2.954-1.523,2.954
		c-0.277,0-0.954,0.046-2.031,0.139c-1.078,0.092-1.8,0.138-2.169,0.138c-0.155,0-0.231,0.169-0.231,0.508
		c0,0.616,0.007,1.777,0.023,3.485c0.015,1.708,0.023,3.008,0.023,3.9v0.046v0.046c0,0.4,0.492,0.6,1.477,0.6
		c2.308,0,3.847,0.131,4.616,0.393c0.769,0.262,1.154,0.762,1.154,1.5c0,1.877-1.2,2.816-3.601,2.816h-2.262
		c-0.123,0-0.292,0.007-0.507,0.023c-0.216,0.015-0.37,0.023-0.462,0.023c-2.185,0-3.493-0.215-3.923-0.646
		c-0.801-0.861-1.2-1.969-1.2-3.324v-0.415c0-0.338-0.008-0.9-0.023-1.685C71.881,36.565,71.874,35.988,71.874,35.619z"/>
	<path fill="#333333" d="M86.321,20.11c0-1.323,0.023-2.469,0.069-3.439c0.046-0.969,0.154-2.008,0.323-3.116
		c0.169-1.107,0.454-1.961,0.854-2.562c0.399-0.6,0.907-0.9,1.523-0.9c1.815,0,3.277,1.785,4.385,5.354
		c0.37,1.17,0.823,2.762,1.362,4.777c0.538,2.016,0.9,3.347,1.084,3.993c0.154,0.524,0.385,1.385,0.692,2.585
		s0.584,2.239,0.831,3.116c0.246,0.877,0.508,1.655,0.785,2.331v-0.923c0-2.154,0.046-5.085,0.139-8.793
		c0.092-3.708,0.138-6.67,0.138-8.886c0-2.43,1.077-3.646,3.231-3.646c0.615,0,1.007,0.178,1.177,0.531
		c0.169,0.354,0.254,0.931,0.254,1.731c0,2.186-0.069,5.371-0.208,9.555c-0.139,4.185-0.208,7.447-0.208,9.786
		c0,0.585,0.015,1.338,0.046,2.262c0.03,0.923,0.046,1.646,0.046,2.169c0,0.369,0.015,0.931,0.046,1.685
		c0.03,0.754,0.046,1.332,0.046,1.731c0,0.124,0.007,0.37,0.023,0.739c0.015,0.369,0.023,0.646,0.023,0.831
		c0,1.477-0.724,2.216-2.169,2.216c-1.046-0.03-1.923-0.431-2.631-1.2c-0.708-0.769-1.2-1.507-1.477-2.215
		c-1.108-3.108-2.493-8.078-4.154-14.91c-0.155-0.461-0.385-1.015-0.692-1.662c-0.062-0.03-0.124-0.046-0.185-0.046
		c-0.247,0-0.369,0.108-0.369,0.323v0.231c0,1.846,0.023,4.585,0.069,8.216c0.046,3.631,0.069,6.585,0.069,8.862
		c0,0.801-0.216,1.393-0.646,1.777c-0.431,0.385-0.893,0.577-1.385,0.577c-2.154,0-3.231-1.507-3.231-4.523
		c0-2.031,0.023-5.092,0.069-9.186C86.298,25.388,86.321,22.264,86.321,20.11z"/>
	<path fill="#333333" d="M112.816,9.771c2.8,0,4.739,0.669,5.816,2.008c1.077,1.338,1.615,3.208,1.615,5.608
		c0,0.954-0.2,1.646-0.6,2.077c-0.4,0.431-0.877,0.646-1.431,0.646c-0.677,0-1.254-0.215-1.731-0.646
		c-0.478-0.431-0.716-1.138-0.716-2.124c0-0.399-0.023-0.738-0.069-1.016c-0.046-0.277-0.146-0.607-0.3-0.992
		c-0.154-0.384-0.431-0.685-0.831-0.9c-0.4-0.215-0.923-0.323-1.569-0.323c-0.677,0-1.27,0.362-1.777,1.084
		c-0.508,0.724-0.762,1.47-0.762,2.239c0,0.985,0.384,1.993,1.154,3.023c0.769,1.031,1.7,2.031,2.792,3
		c1.092,0.969,2.185,2.008,3.277,3.116c1.092,1.107,2.023,2.446,2.792,4.016c0.769,1.569,1.154,3.262,1.154,5.078
		c0,2.185-0.508,4-1.523,5.446c-0.862,1.17-1.762,1.955-2.701,2.354c-0.939,0.399-2.315,0.6-4.131,0.6
		c-2.062,0-3.839-0.9-5.332-2.701c-1.493-1.8-2.239-3.977-2.239-6.531c0-1.016,0.254-1.916,0.762-2.7s1.208-1.177,2.1-1.177
		c0.584,0,1.023,0.224,1.316,0.669c0.292,0.446,0.454,0.9,0.484,1.362c0.154,2.339,0.399,3.847,0.739,4.523
		c0.461,0.893,1.261,1.338,2.4,1.338c0.985,0,1.723-0.407,2.216-1.223c0.492-0.815,0.738-1.746,0.738-2.792
		c0-1.354-0.262-2.592-0.785-3.716c-0.523-1.123-1.177-2.046-1.961-2.77c-0.785-0.723-1.639-1.477-2.562-2.262
		c-0.923-0.785-1.777-1.515-2.562-2.192c-0.785-0.677-1.439-1.539-1.962-2.585c-0.523-1.046-0.785-2.185-0.785-3.416
		c0-2.246,0.653-4.161,1.962-5.747C109.116,10.563,110.785,9.771,112.816,9.771z"/>
	<path fill="#333333" d="M125.464,43.789c-1.693,0-2.539-1.045-2.539-3.139c0-0.215,0.092-1.2,0.277-2.954
		c1.631-12.155,4-21.109,7.108-26.864c0.338-0.615,0.831-0.923,1.477-0.923c1.261,0,2.723,2.408,4.385,7.224
		c1.662,4.816,3.03,9.786,4.108,14.909c1.077,5.124,1.616,8.516,1.616,10.178c0,0.493-0.231,0.885-0.692,1.177
		c-0.462,0.292-1,0.438-1.616,0.438c-0.985,0-1.724-0.531-2.216-1.592c-0.492-1.062-0.77-2.231-0.831-3.508
		c-0.062-1.276-0.216-2.446-0.461-3.508c-0.247-1.062-0.646-1.593-1.2-1.593h-0.277c-0.155,0.031-0.831,0.085-2.031,0.162
		c-1.2,0.077-2.169,0.231-2.908,0.461c-0.739,0.231-1.124,0.577-1.154,1.039c0,0.124-0.016,0.455-0.046,0.993
		c-0.031,0.539-0.054,0.939-0.069,1.2c-0.016,0.262-0.046,0.669-0.092,1.223c-0.046,0.554-0.101,0.985-0.162,1.292
		c-0.062,0.308-0.139,0.685-0.231,1.131c-0.092,0.446-0.215,0.808-0.369,1.084c-0.154,0.277-0.323,0.547-0.508,0.808
		c-0.185,0.261-0.416,0.454-0.692,0.577C126.064,43.727,125.771,43.789,125.464,43.789z M131.695,18.402
		c-0.339,0-0.816,1.585-1.431,4.754c-0.616,3.17-0.923,5.17-0.923,6c0,0.031-0.016,0.046-0.046,0.046
		c-0.031,0-0.046,0.016-0.046,0.046c0,0.308,0.23,0.461,0.692,0.461h0.046l1.431-0.139c0.923-0.092,1.7-0.223,2.331-0.392
		c0.63-0.169,0.946-0.393,0.946-0.669c0-0.615-0.432-2.454-1.292-5.516C132.542,19.933,131.972,18.402,131.695,18.402z"/>
	<path fill="#333333" d="M143.327,39.681c0-0.307,0.007-0.739,0.023-1.292c0.015-0.554,0.023-0.938,0.023-1.154v-0.37
		c0.03-1.784,0.046-4.446,0.046-7.985c0-1.784-0.008-4.423-0.023-7.916c-0.016-3.492-0.023-6.1-0.023-7.824v-0.185
		c0-1.569,0.246-2.507,0.739-2.815c0.615-0.338,1.893-0.508,3.831-0.508h1.569c2.031,0,3.508,0.092,4.431,0.277
		c1.508,0.308,2.908,0.9,4.201,1.777s2.216,1.916,2.77,3.116c0.523,1.108,0.785,2.385,0.785,3.831c0,1.17-0.216,2.139-0.646,2.908
		c-0.708,1.231-1.531,2.223-2.47,2.977c-0.939,0.754-2.054,1.454-3.347,2.1c-0.092,0.031-0.2,0.069-0.323,0.116
		c-0.124,0.046-0.208,0.085-0.254,0.115c-0.046,0.031-0.092,0.077-0.139,0.138c-0.046,0.062-0.069,0.155-0.069,0.277v0.046
		c0.308,0.431,1.039,1.462,2.193,3.093c1.154,1.631,2.008,2.87,2.562,3.716c0.554,0.847,1.208,1.955,1.962,3.323
		c0.753,1.37,1.315,2.608,1.685,3.716v0.323c0,0.831-0.292,1.416-0.877,1.754c-0.308,0.185-0.692,0.277-1.154,0.277
		c-0.677,0-1.216-0.2-1.616-0.6c-1.046-1.138-2.016-2.331-2.908-3.577c-0.893-1.246-1.87-2.692-2.931-4.339
		c-1.062-1.646-1.87-2.869-2.423-3.669c-0.124-0.185-0.354-0.554-0.692-1.108c-0.339-0.554-0.654-1.046-0.946-1.477
		c-0.293-0.431-0.562-0.754-0.808-0.969c-0.247,0-0.37,1.631-0.37,4.893c0,0.923,0.015,2.308,0.046,4.154
		c0.03,1.846,0.046,3.308,0.046,4.385c0,0.708-0.177,1.216-0.531,1.523c-0.354,0.308-1.084,0.461-2.192,0.461
		c-0.523,0-0.969-0.076-1.338-0.23C143.604,42.712,143.327,41.62,143.327,39.681z M148.312,23.756c0.615,0,1.523-0.2,2.724-0.6
		c1.2-0.399,2.107-0.8,2.723-1.2c0.062-0.03,0.223-0.138,0.485-0.323c0.261-0.185,0.446-0.315,0.554-0.393
		c0.107-0.076,0.277-0.208,0.508-0.392c0.231-0.185,0.399-0.346,0.508-0.485c0.107-0.139,0.231-0.307,0.369-0.508
		c0.139-0.2,0.238-0.407,0.3-0.623c0.061-0.215,0.092-0.431,0.092-0.646c0-0.861-0.369-1.63-1.108-2.308
		c-0.738-0.677-1.539-1.154-2.4-1.431c-0.954-0.307-2.308-0.461-4.062-0.461h-0.507c-0.247,0-0.37,1.4-0.37,4.2
		C148.127,22.033,148.189,23.756,148.312,23.756z"/>
	<path fill="#333333" d="M167.837,31.234c0-0.492-0.062-0.877-0.185-1.154c-0.616-1.538-1.523-4.085-2.724-7.639
		c-1.2-3.554-1.892-5.577-2.077-6.07c-0.708-2.062-1.062-3.492-1.062-4.293c0-1.446,0.785-2.169,2.354-2.169
		c1.138,0,2.154,0.993,3.047,2.978c0.892,1.985,1.677,4.462,2.354,7.431c0.676,2.97,1.046,4.532,1.108,4.686
		c0.185-0.462,0.592-2.084,1.223-4.87c0.63-2.785,1.331-5.208,2.1-7.27c0.769-2.061,1.584-3.092,2.446-3.092h0.046
		c0.399,0,0.815,0.154,1.246,0.461c0.246,0.216,0.369,0.816,0.369,1.8v0.277c0,0.893-0.169,2.354-0.508,4.385
		c-0.185,1.107-0.631,2.754-1.338,4.939c-0.708,2.185-1.37,4.093-1.985,5.724l-0.877,2.446c0.062,0.831,0.092,1.8,0.092,2.908
		c0,0.308-0.008,0.931-0.023,1.869c-0.016,0.939-0.023,1.808-0.023,2.608c0,2.616-0.201,4.439-0.6,5.47
		c-0.4,1.031-1.339,1.546-2.816,1.546c-0.77,0-1.37-0.369-1.8-1.108c-0.431-0.738-0.646-1.63-0.646-2.677
		c0-1.015,0.046-2.507,0.138-4.477C167.792,33.973,167.837,32.404,167.837,31.234z"/>
	<path fill="#333333" d="M179.008,38.989c0-0.03,0.062-0.03,0.185,0h0.185c0.677,0,1.285,0.185,1.824,0.554
		c0.538,0.37,0.808,0.923,0.808,1.662c0,0.308-0.016,0.539-0.046,0.692c-0.185,1.63-0.8,3.331-1.846,5.1
		c-1.046,1.77-2.201,2.777-3.462,3.023c-0.092,0.03-0.201,0.046-0.323,0.046c-0.616,0-0.954-0.323-1.015-0.969V48.82
		c0-0.677,0.338-1.462,1.015-2.354c0.4-0.523,0.6-1.262,0.6-2.215c0-0.277-0.023-0.692-0.069-1.247
		c-0.046-0.554-0.069-0.953-0.069-1.2C176.792,40.235,177.531,39.297,179.008,38.989z"/>
	<path fill="#333333" d="M212.611,15.863c0.831,1.385,1.431,2.878,1.8,4.478c0.369,1.6,0.662,3.631,0.877,6.093v1.385
		c0,1.846-0.354,3.701-1.062,5.562c-0.708,1.862-1.569,3.285-2.585,4.27c-2.708,3.046-5.816,5.016-9.324,5.908
		c-0.369,0.092-0.738,0.138-1.107,0.138c-1.601,0-2.616-0.4-3.046-1.2c-0.554-1.138-0.831-3.399-0.831-6.785
		c0-0.123,0.007-0.315,0.023-0.577c0.015-0.261,0.023-0.438,0.023-0.531c0-4.492,0.108-9.862,0.323-16.109
		c0-0.277,0.007-0.9,0.023-1.869c0.015-0.969,0.039-1.715,0.069-2.239c0.03-0.523,0.116-1.138,0.254-1.846
		c0.139-0.708,0.331-1.277,0.577-1.708c0.431-0.739,1.092-1.108,1.985-1.108c0.215,0,0.554,0.016,1.015,0.046
		c0.462,0.031,0.846,0.046,1.154,0.046c1.108,0,2.169,0.154,3.185,0.462C208.61,10.924,210.826,12.787,212.611,15.863z
		 M202.641,36.219v0.416c0,1.17,0.154,1.754,0.462,1.754h0.138c0.123-0.061,0.361-0.169,0.715-0.323
		c0.354-0.153,0.624-0.292,0.808-0.415c0.738-0.462,1.708-1.169,2.908-2.124c2.431-2.031,3.646-5.277,3.646-9.739
		c0-3.2-0.77-5.816-2.308-7.847c-1.354-1.723-3.309-2.677-5.862-2.862h-0.139c-0.369,0-0.554,0.185-0.554,0.554v4.247
		c0,0.216,0.007,0.539,0.023,0.97c0.015,0.431,0.023,0.754,0.023,0.969c0,0.954,0.015,2.292,0.046,4.016
		c0.03,1.724,0.046,3.339,0.046,4.847c0,0.585,0.007,1.439,0.023,2.562c0.015,1.124,0.023,1.978,0.023,2.562V36.219z"/>
	<path fill="#333333" d="M217.735,35.619v-3.37c0-2.338,0.053-5.739,0.161-10.201c0.107-4.461,0.162-7.893,0.162-10.293
		c0-1.262,0.861-1.893,2.585-1.893h0.692c0.8,0,1.87,0.031,3.208,0.092c1.339,0.062,2.393,0.092,3.162,0.092
		c0.831,0,1.431,0.4,1.8,1.2c0.123,0.247,0.185,0.77,0.185,1.569v0.092c0,0.431-0.201,0.808-0.6,1.131
		c-0.4,0.323-0.847,0.485-1.339,0.485h-4.985c-0.216,0-0.323,0.2-0.323,0.6c0,0.923-0.016,2.462-0.046,4.616
		c-0.031,2.154-0.046,3.662-0.046,4.523c0,0.4,0.069,0.654,0.208,0.762c0.139,0.108,0.438,0.192,0.9,0.254
		c0.277,0.031,0.699,0.054,1.269,0.069c0.569,0.016,1.031,0.039,1.385,0.069c0.354,0.031,0.731,0.092,1.131,0.185
		c0.4,0.093,0.692,0.239,0.877,0.439c0.185,0.2,0.277,0.469,0.277,0.808c0,1.97-0.508,2.954-1.523,2.954
		c-0.277,0-0.954,0.046-2.031,0.139c-1.078,0.092-1.8,0.138-2.169,0.138c-0.155,0-0.231,0.169-0.231,0.508
		c0,0.616,0.007,1.777,0.023,3.485c0.015,1.708,0.023,3.008,0.023,3.9v0.046v0.046c0,0.4,0.492,0.6,1.477,0.6
		c2.308,0,3.847,0.131,4.616,0.393c0.769,0.262,1.154,0.762,1.154,1.5c0,1.877-1.2,2.816-3.601,2.816h-2.262
		c-0.123,0-0.292,0.007-0.507,0.023c-0.216,0.015-0.37,0.023-0.462,0.023c-2.185,0-3.493-0.215-3.923-0.646
		c-0.801-0.861-1.2-1.969-1.2-3.324v-0.415c0-0.338-0.008-0.9-0.023-1.685C217.742,36.565,217.735,35.988,217.735,35.619z"/>
	<path fill="#333333" d="M237.675,36.958c0.03,0.492,0.461,0.738,1.292,0.738c0.338,0,0.831-0.015,1.477-0.046
		s1.108-0.046,1.385-0.046c0.923,0,1.623,0.169,2.1,0.508c0.477,0.339,0.716,1.016,0.716,2.031c0,1.078-0.37,1.847-1.108,2.308
		c-0.739,0.461-1.508,0.723-2.308,0.785c-0.247,0.03-0.438,0.053-0.577,0.069c-0.138,0.015-0.238,0.03-0.3,0.046
		c-0.062,0.015-0.108,0.03-0.139,0.046c-0.031,0.015-0.069,0.023-0.115,0.023s-0.131,0-0.254,0c-0.185,0-0.808-0.031-1.869-0.092
		c-1.062-0.062-1.901-0.092-2.516-0.092c-2.062,0-3.201-1.292-3.416-3.877c-0.031-0.369-0.046-0.892-0.046-1.569
		c0-0.399,0.007-0.815,0.023-1.246c0.015-0.431,0.038-0.9,0.069-1.408c0.03-0.507,0.046-0.915,0.046-1.223v-0.877
		c0-0.399-0.008-1.015-0.023-1.846c-0.016-0.831-0.023-1.446-0.023-1.846v-0.646c0.03-1.138,0.046-2.585,0.046-4.339
		s0.007-3.108,0.023-4.062c0.015-0.954,0.077-2.077,0.185-3.37c0.107-1.292,0.253-2.523,0.438-3.692
		c0.153-0.739,0.492-1.392,1.015-1.962c0.523-0.569,1.123-0.854,1.8-0.854c0.923,0,1.507,0.178,1.754,0.531
		c0.246,0.354,0.37,0.962,0.37,1.823v0.6v1.893v1.108c0,1.139-0.031,2.815-0.092,5.031c-0.062,2.216-0.093,3.862-0.093,4.939
		c0,1.108,0.023,2.87,0.069,5.285C237.652,34.042,237.675,35.82,237.675,36.958z"/>
	<path fill="#333333" d="M247.184,13.371c0-1.015,0.2-1.846,0.6-2.493c0.399-0.646,1.015-0.969,1.846-0.969
		c1.2,0.092,1.8,0.908,1.8,2.447v1.892c0,1.139,0.03,2.824,0.092,5.055c0.061,2.231,0.092,3.854,0.092,4.87
		c0,0.585-0.016,1.439-0.046,2.562c-0.031,1.124-0.046,1.978-0.046,2.562c0,0.646,0.007,1.531,0.023,2.654
		c0.015,1.124,0.023,1.978,0.023,2.562c0,0.462,0.007,1.262,0.023,2.4c0.015,1.139,0.023,1.938,0.023,2.4
		c0,2.585-0.631,3.877-1.893,3.877c-0.554,0-1.016-0.107-1.385-0.323c-0.369-0.215-0.654-0.469-0.854-0.762
		c-0.2-0.292-0.346-0.762-0.438-1.408c-0.092-0.646-0.146-1.208-0.162-1.685c-0.016-0.477-0.023-1.207-0.023-2.192v-0.692v-1.616
		c0-0.307-0.008-0.753-0.023-1.338c-0.016-0.584-0.023-1.016-0.023-1.292C246.815,26.188,246.938,20.018,247.184,13.371z"/>
	<path fill="#333333" d="M269.524,9.863c0.554,0,1.092,0.323,1.616,0.969c0.523,0.646,0.785,1.323,0.785,2.031
		c0,0.154-0.031,0.323-0.092,0.508c-0.216,1.046-0.677,3.409-1.385,7.085c-0.708,3.678-1.377,6.871-2.008,9.578
		c-0.631,2.708-1.223,4.77-1.777,6.185c-0.092,0.216-0.254,0.715-0.484,1.5c-0.231,0.785-0.47,1.516-0.716,2.193
		c-0.247,0.677-0.539,1.385-0.877,2.123c-0.339,0.739-0.738,1.323-1.2,1.754c-0.461,0.431-0.954,0.646-1.477,0.646h-0.415
		c-0.739,0-1.231-0.201-1.478-0.6c-0.77-1.2-1.454-2.631-2.054-4.293c-0.6-1.662-1.139-3.823-1.616-6.485
		c-0.478-2.662-0.824-4.616-1.039-5.862c-0.216-1.247-0.523-3.616-0.923-7.108c-0.4-3.492-0.616-5.332-0.646-5.516
		c-0.092-0.831-0.139-1.492-0.139-1.985c0-1.815,0.646-2.77,1.939-2.862h0.23c1.415,0,2.37,1.754,2.862,5.262
		c0.185,1.323,0.446,3.308,0.785,5.955c0.338,2.647,0.661,4.893,0.969,6.739c0.307,1.847,0.723,3.924,1.246,6.231
		c0.092,0.277,0.2,0.416,0.323,0.416c0.185,0,0.63-1.784,1.338-5.354c0.708-3.569,1.446-7.27,2.216-11.101
		c0.769-3.831,1.323-5.978,1.662-6.439C267.909,10.386,268.694,9.863,269.524,9.863z"/>
	<path fill="#333333" d="M273.587,35.619v-3.37c0-2.338,0.053-5.739,0.161-10.201c0.107-4.461,0.162-7.893,0.162-10.293
		c0-1.262,0.861-1.893,2.585-1.893h0.692c0.8,0,1.87,0.031,3.208,0.092c1.339,0.062,2.393,0.092,3.162,0.092
		c0.831,0,1.431,0.4,1.8,1.2c0.123,0.247,0.185,0.77,0.185,1.569v0.092c0,0.431-0.201,0.808-0.6,1.131
		c-0.4,0.323-0.847,0.485-1.339,0.485h-4.985c-0.216,0-0.323,0.2-0.323,0.6c0,0.923-0.016,2.462-0.046,4.616
		c-0.031,2.154-0.046,3.662-0.046,4.523c0,0.4,0.069,0.654,0.208,0.762c0.139,0.108,0.438,0.192,0.9,0.254
		c0.277,0.031,0.699,0.054,1.269,0.069c0.569,0.016,1.031,0.039,1.385,0.069c0.354,0.031,0.731,0.092,1.131,0.185
		c0.4,0.093,0.692,0.239,0.877,0.439c0.185,0.2,0.277,0.469,0.277,0.808c0,1.97-0.508,2.954-1.523,2.954
		c-0.277,0-0.954,0.046-2.031,0.139c-1.078,0.092-1.8,0.138-2.169,0.138c-0.155,0-0.231,0.169-0.231,0.508
		c0,0.616,0.007,1.777,0.023,3.485c0.015,1.708,0.023,3.008,0.023,3.9v0.046v0.046c0,0.4,0.492,0.6,1.477,0.6
		c2.308,0,3.847,0.131,4.616,0.393c0.769,0.262,1.154,0.762,1.154,1.5c0,1.877-1.2,2.816-3.601,2.816h-2.262
		c-0.123,0-0.292,0.007-0.507,0.023c-0.216,0.015-0.37,0.023-0.462,0.023c-2.185,0-3.493-0.215-3.923-0.646
		c-0.801-0.861-1.2-1.969-1.2-3.324v-0.415c0-0.338-0.008-0.9-0.023-1.685C273.594,36.565,273.587,35.988,273.587,35.619z"/>
	<path fill="#333333" d="M287.711,39.681c0-0.307,0.007-0.739,0.023-1.292c0.015-0.554,0.023-0.938,0.023-1.154v-0.37
		c0.03-1.784,0.046-4.446,0.046-7.985c0-1.784-0.008-4.423-0.023-7.916c-0.016-3.492-0.023-6.1-0.023-7.824v-0.185
		c0-1.569,0.246-2.507,0.739-2.815c0.615-0.338,1.893-0.508,3.831-0.508h1.569c2.031,0,3.508,0.092,4.431,0.277
		c1.508,0.308,2.908,0.9,4.201,1.777s2.216,1.916,2.77,3.116c0.523,1.108,0.785,2.385,0.785,3.831c0,1.17-0.216,2.139-0.646,2.908
		c-0.708,1.231-1.531,2.223-2.47,2.977c-0.939,0.754-2.054,1.454-3.347,2.1c-0.092,0.031-0.2,0.069-0.323,0.116
		c-0.124,0.046-0.208,0.085-0.254,0.115c-0.046,0.031-0.092,0.077-0.139,0.138c-0.046,0.062-0.069,0.155-0.069,0.277v0.046
		c0.308,0.431,1.039,1.462,2.193,3.093c1.154,1.631,2.008,2.87,2.562,3.716c0.554,0.847,1.208,1.955,1.962,3.323
		c0.753,1.37,1.315,2.608,1.685,3.716v0.323c0,0.831-0.292,1.416-0.877,1.754c-0.308,0.185-0.692,0.277-1.154,0.277
		c-0.677,0-1.216-0.2-1.616-0.6c-1.046-1.138-2.016-2.331-2.908-3.577c-0.893-1.246-1.87-2.692-2.931-4.339
		c-1.062-1.646-1.87-2.869-2.423-3.669c-0.124-0.185-0.354-0.554-0.692-1.108c-0.339-0.554-0.654-1.046-0.946-1.477
		c-0.293-0.431-0.562-0.754-0.808-0.969c-0.247,0-0.37,1.631-0.37,4.893c0,0.923,0.015,2.308,0.046,4.154
		c0.03,1.846,0.046,3.308,0.046,4.385c0,0.708-0.177,1.216-0.531,1.523c-0.354,0.308-1.084,0.461-2.192,0.461
		c-0.523,0-0.969-0.076-1.338-0.23C287.988,42.712,287.711,41.62,287.711,39.681z M292.696,23.756c0.615,0,1.523-0.2,2.724-0.6
		c1.2-0.399,2.107-0.8,2.723-1.2c0.062-0.03,0.223-0.138,0.485-0.323c0.261-0.185,0.446-0.315,0.554-0.393
		c0.107-0.076,0.277-0.208,0.508-0.392c0.231-0.185,0.399-0.346,0.508-0.485c0.107-0.139,0.231-0.307,0.369-0.508
		c0.139-0.2,0.238-0.407,0.3-0.623c0.061-0.215,0.092-0.431,0.092-0.646c0-0.861-0.369-1.63-1.108-2.308
		c-0.738-0.677-1.539-1.154-2.4-1.431c-0.954-0.307-2.308-0.461-4.062-0.461h-0.507c-0.247,0-0.37,1.4-0.37,4.2
		C292.512,22.033,292.573,23.756,292.696,23.756z"/>
	<path fill="#333333" d="M312.221,31.234c0-0.492-0.062-0.877-0.185-1.154c-0.616-1.538-1.523-4.085-2.724-7.639
		c-1.2-3.554-1.892-5.577-2.077-6.07c-0.708-2.062-1.062-3.492-1.062-4.293c0-1.446,0.785-2.169,2.354-2.169
		c1.138,0,2.154,0.993,3.047,2.978c0.892,1.985,1.677,4.462,2.354,7.431c0.676,2.97,1.046,4.532,1.108,4.686
		c0.185-0.462,0.592-2.084,1.223-4.87c0.63-2.785,1.331-5.208,2.1-7.27c0.769-2.061,1.584-3.092,2.446-3.092h0.046
		c0.399,0,0.815,0.154,1.246,0.461c0.246,0.216,0.369,0.816,0.369,1.8v0.277c0,0.893-0.169,2.354-0.508,4.385
		c-0.185,1.107-0.631,2.754-1.338,4.939c-0.708,2.185-1.37,4.093-1.985,5.724l-0.877,2.446c0.062,0.831,0.092,1.8,0.092,2.908
		c0,0.308-0.008,0.931-0.023,1.869c-0.016,0.939-0.023,1.808-0.023,2.608c0,2.616-0.201,4.439-0.6,5.47
		c-0.4,1.031-1.339,1.546-2.816,1.546c-0.77,0-1.37-0.369-1.8-1.108c-0.431-0.738-0.646-1.63-0.646-2.677
		c0-1.015,0.046-2.507,0.138-4.477C312.175,33.973,312.221,32.404,312.221,31.234z"/>
	<path fill="#333333" d="M343.194,9.771c2.8,0,4.739,0.669,5.816,2.008c1.077,1.338,1.615,3.208,1.615,5.608
		c0,0.954-0.2,1.646-0.6,2.077c-0.4,0.431-0.877,0.646-1.431,0.646c-0.677,0-1.254-0.215-1.731-0.646
		c-0.478-0.431-0.716-1.138-0.716-2.124c0-0.399-0.023-0.738-0.069-1.016c-0.046-0.277-0.146-0.607-0.3-0.992
		c-0.154-0.384-0.431-0.685-0.831-0.9c-0.4-0.215-0.923-0.323-1.569-0.323c-0.677,0-1.27,0.362-1.777,1.084
		c-0.508,0.724-0.762,1.47-0.762,2.239c0,0.985,0.384,1.993,1.154,3.023c0.769,1.031,1.7,2.031,2.792,3
		c1.092,0.969,2.185,2.008,3.277,3.116c1.092,1.107,2.023,2.446,2.792,4.016c0.769,1.569,1.154,3.262,1.154,5.078
		c0,2.185-0.508,4-1.523,5.446c-0.862,1.17-1.762,1.955-2.701,2.354c-0.939,0.399-2.315,0.6-4.131,0.6
		c-2.062,0-3.839-0.9-5.332-2.701c-1.493-1.8-2.239-3.977-2.239-6.531c0-1.016,0.254-1.916,0.762-2.7s1.208-1.177,2.1-1.177
		c0.584,0,1.023,0.224,1.316,0.669c0.292,0.446,0.454,0.9,0.484,1.362c0.154,2.339,0.399,3.847,0.739,4.523
		c0.461,0.893,1.261,1.338,2.4,1.338c0.985,0,1.723-0.407,2.216-1.223c0.492-0.815,0.738-1.746,0.738-2.792
		c0-1.354-0.262-2.592-0.785-3.716c-0.523-1.123-1.177-2.046-1.961-2.77c-0.785-0.723-1.639-1.477-2.562-2.262
		c-0.923-0.785-1.777-1.515-2.562-2.192c-0.785-0.677-1.439-1.539-1.962-2.585c-0.523-1.046-0.785-2.185-0.785-3.416
		c0-2.246,0.653-4.161,1.962-5.747C339.494,10.563,341.163,9.771,343.194,9.771z"/>
	<path fill="#333333" d="M354.318,35.619v-3.37c0-2.338,0.053-5.739,0.161-10.201c0.107-4.461,0.162-7.893,0.162-10.293
		c0-1.262,0.861-1.893,2.585-1.893h0.692c0.8,0,1.87,0.031,3.208,0.092c1.339,0.062,2.393,0.092,3.162,0.092
		c0.831,0,1.431,0.4,1.8,1.2c0.123,0.247,0.185,0.77,0.185,1.569v0.092c0,0.431-0.201,0.808-0.6,1.131
		c-0.4,0.323-0.847,0.485-1.339,0.485h-4.985c-0.216,0-0.323,0.2-0.323,0.6c0,0.923-0.016,2.462-0.046,4.616
		c-0.031,2.154-0.046,3.662-0.046,4.523c0,0.4,0.069,0.654,0.208,0.762c0.139,0.108,0.438,0.192,0.9,0.254
		c0.277,0.031,0.699,0.054,1.269,0.069c0.569,0.016,1.031,0.039,1.385,0.069c0.354,0.031,0.731,0.092,1.131,0.185
		c0.4,0.093,0.692,0.239,0.877,0.439c0.185,0.2,0.277,0.469,0.277,0.808c0,1.97-0.508,2.954-1.523,2.954
		c-0.277,0-0.954,0.046-2.031,0.139c-1.078,0.092-1.8,0.138-2.169,0.138c-0.155,0-0.231,0.169-0.231,0.508
		c0,0.616,0.007,1.777,0.023,3.485c0.015,1.708,0.023,3.008,0.023,3.9v0.046v0.046c0,0.4,0.492,0.6,1.477,0.6
		c2.308,0,3.847,0.131,4.616,0.393c0.769,0.262,1.154,0.762,1.154,1.5c0,1.877-1.2,2.816-3.601,2.816h-2.262
		c-0.123,0-0.292,0.007-0.507,0.023c-0.216,0.015-0.37,0.023-0.462,0.023c-2.185,0-3.493-0.215-3.923-0.646
		c-0.801-0.861-1.2-1.969-1.2-3.324v-0.415c0-0.338-0.008-0.9-0.023-1.685C354.325,36.565,354.318,35.988,354.318,35.619z"/>
	<path fill="#333333" d="M368.443,39.681c0-0.307,0.007-0.739,0.023-1.292c0.015-0.554,0.023-0.938,0.023-1.154v-0.37
		c0.03-1.784,0.046-4.446,0.046-7.985c0-1.784-0.008-4.423-0.023-7.916c-0.016-3.492-0.023-6.1-0.023-7.824v-0.185
		c0-1.569,0.246-2.507,0.739-2.815c0.615-0.338,1.893-0.508,3.831-0.508h1.569c2.031,0,3.508,0.092,4.431,0.277
		c1.508,0.308,2.908,0.9,4.201,1.777s2.216,1.916,2.77,3.116c0.523,1.108,0.785,2.385,0.785,3.831c0,1.17-0.216,2.139-0.646,2.908
		c-0.708,1.231-1.531,2.223-2.47,2.977c-0.939,0.754-2.054,1.454-3.347,2.1c-0.092,0.031-0.2,0.069-0.323,0.116
		c-0.124,0.046-0.208,0.085-0.254,0.115c-0.046,0.031-0.092,0.077-0.139,0.138c-0.046,0.062-0.069,0.155-0.069,0.277v0.046
		c0.308,0.431,1.039,1.462,2.193,3.093c1.154,1.631,2.008,2.87,2.562,3.716c0.554,0.847,1.208,1.955,1.962,3.323
		c0.753,1.37,1.315,2.608,1.685,3.716v0.323c0,0.831-0.292,1.416-0.877,1.754c-0.308,0.185-0.692,0.277-1.154,0.277
		c-0.677,0-1.216-0.2-1.616-0.6c-1.046-1.138-2.016-2.331-2.908-3.577c-0.893-1.246-1.87-2.692-2.931-4.339
		c-1.062-1.646-1.87-2.869-2.423-3.669c-0.124-0.185-0.354-0.554-0.692-1.108c-0.339-0.554-0.654-1.046-0.946-1.477
		c-0.293-0.431-0.562-0.754-0.808-0.969c-0.247,0-0.37,1.631-0.37,4.893c0,0.923,0.015,2.308,0.046,4.154
		c0.03,1.846,0.046,3.308,0.046,4.385c0,0.708-0.177,1.216-0.531,1.523c-0.354,0.308-1.084,0.461-2.192,0.461
		c-0.523,0-0.969-0.076-1.338-0.23C368.72,42.712,368.443,41.62,368.443,39.681z M373.428,23.756c0.615,0,1.523-0.2,2.724-0.6
		c1.2-0.399,2.107-0.8,2.723-1.2c0.062-0.03,0.223-0.138,0.485-0.323c0.261-0.185,0.446-0.315,0.554-0.393
		c0.107-0.076,0.277-0.208,0.508-0.392c0.231-0.185,0.399-0.346,0.508-0.485c0.107-0.139,0.231-0.307,0.369-0.508
		c0.139-0.2,0.238-0.407,0.3-0.623c0.061-0.215,0.092-0.431,0.092-0.646c0-0.861-0.369-1.63-1.108-2.308
		c-0.738-0.677-1.539-1.154-2.4-1.431c-0.954-0.307-2.308-0.461-4.062-0.461h-0.507c-0.247,0-0.37,1.4-0.37,4.2
		C373.243,22.033,373.305,23.756,373.428,23.756z"/>
	<path fill="#333333" d="M408.276,13.371c0-1.015,0.2-1.846,0.6-2.493c0.399-0.646,1.015-0.969,1.846-0.969
		c1.2,0.092,1.8,0.908,1.8,2.447v1.892c0,1.139,0.03,2.824,0.092,5.055c0.061,2.231,0.092,3.854,0.092,4.87
		c0,0.585-0.016,1.439-0.046,2.562c-0.031,1.124-0.046,1.978-0.046,2.562c0,0.646,0.007,1.531,0.023,2.654
		c0.015,1.124,0.023,1.978,0.023,2.562c0,0.462,0.007,1.262,0.023,2.4c0.015,1.139,0.023,1.938,0.023,2.4
		c0,2.585-0.631,3.877-1.893,3.877c-0.554,0-1.016-0.107-1.385-0.323c-0.369-0.215-0.654-0.469-0.854-0.762
		c-0.2-0.292-0.346-0.762-0.438-1.408c-0.092-0.646-0.146-1.208-0.162-1.685c-0.016-0.477-0.023-1.207-0.023-2.192v-0.692v-1.616
		c0-0.307-0.008-0.753-0.023-1.338c-0.016-0.584-0.023-1.016-0.023-1.292C407.907,26.188,408.029,20.018,408.276,13.371z"/>
	<path fill="#333333" d="M404.011,9.633c0.554-0.02,1.103,0.284,1.649,0.912c0.545,0.627,0.83,1.295,0.855,2.002
		c0.005,0.154-0.02,0.324-0.075,0.511c-0.179,1.053-0.558,3.43-1.137,7.129c-0.58,3.7-1.137,6.914-1.672,9.642
		c-0.536,2.729-1.056,4.81-1.561,6.244c-0.084,0.219-0.229,0.724-0.432,1.516c-0.204,0.792-0.416,1.531-0.639,2.216
		c-0.223,0.686-0.49,1.402-0.802,2.152c-0.313,0.75-0.692,1.348-1.138,1.795c-0.446,0.446-0.931,0.679-1.454,0.697l-0.415,0.015
		c-0.738,0.026-1.238-0.158-1.498-0.548c-0.811-1.172-1.544-2.578-2.202-4.218c-0.658-1.64-1.272-3.781-1.841-6.425
		c-0.57-2.644-0.984-4.585-1.243-5.823s-0.649-3.595-1.17-7.071c-0.521-3.477-0.802-5.307-0.838-5.491
		c-0.122-0.827-0.191-1.486-0.208-1.979c-0.063-1.814,0.549-2.791,1.838-2.928l0.23-0.008c1.414-0.049,2.43,1.67,3.044,5.159
		c0.231,1.316,0.561,3.291,0.993,5.924c0.43,2.634,0.831,4.866,1.204,6.701c0.371,1.835,0.859,3.896,1.463,6.184
		c0.102,0.274,0.214,0.409,0.337,0.404c0.185-0.006,0.568-1.805,1.151-5.398c0.583-3.592,1.191-7.316,1.827-11.171
		c0.634-3.856,1.113-6.021,1.436-6.494C402.415,10.212,403.181,9.662,404.011,9.633z"/>
	<path fill="#333333" d="M420.509,26.987c0,6.955,1.339,10.432,4.016,10.432c1.354,0,2.4-0.492,3.139-1.477
		c0.123-0.154,0.269-0.454,0.438-0.9c0.169-0.445,0.361-0.808,0.577-1.084c0.215-0.277,0.477-0.416,0.785-0.416
		c1.692,0,2.539,0.939,2.539,2.816c0,1.139-0.201,2.077-0.6,2.815c-0.585,1.2-1.516,2.216-2.792,3.046
		c-1.277,0.831-2.578,1.247-3.9,1.247c-3.108,0-5.447-1.431-7.016-4.293s-2.354-6.754-2.354-11.678c0-1.507,0.015-2.785,0.046-3.831
		c0.03-1.046,0.116-2.246,0.254-3.6c0.139-1.354,0.338-2.477,0.6-3.37c0.261-0.893,0.623-1.815,1.085-2.77
		c0.461-0.954,1.022-1.715,1.685-2.285c0.662-0.569,1.477-1.03,2.446-1.385c0.97-0.353,2.084-0.531,3.347-0.531
		c1.938,0,3.677,0.654,5.216,1.962c1.539,1.308,2.308,3.101,2.308,5.377c0,1.262-0.339,1.938-1.016,2.031
		c-0.523,0.092-1.046,0.139-1.569,0.139c-0.77,0-1.292-0.192-1.569-0.577c-0.277-0.384-0.446-0.915-0.508-1.592
		c-0.031-0.708-0.362-1.262-0.992-1.662c-0.631-0.4-1.362-0.6-2.193-0.6c-0.893,0-1.615,0.27-2.169,0.808
		c-0.554,0.539-0.954,1.339-1.2,2.4c-0.247,1.062-0.408,2.07-0.484,3.023c-0.077,0.954-0.116,2.123-0.116,3.508V26.987z"/>
	<path fill="#333333" d="M434.542,35.619v-3.37c0-2.338,0.053-5.739,0.161-10.201c0.107-4.461,0.162-7.893,0.162-10.293
		c0-1.262,0.861-1.893,2.585-1.893h0.692c0.8,0,1.87,0.031,3.208,0.092c1.339,0.062,2.393,0.092,3.162,0.092
		c0.831,0,1.431,0.4,1.8,1.2c0.123,0.247,0.185,0.77,0.185,1.569v0.092c0,0.431-0.201,0.808-0.6,1.131
		c-0.4,0.323-0.847,0.485-1.339,0.485h-4.985c-0.216,0-0.323,0.2-0.323,0.6c0,0.923-0.016,2.462-0.046,4.616
		c-0.031,2.154-0.046,3.662-0.046,4.523c0,0.4,0.069,0.654,0.208,0.762c0.139,0.108,0.438,0.192,0.9,0.254
		c0.277,0.031,0.699,0.054,1.269,0.069c0.569,0.016,1.031,0.039,1.385,0.069c0.354,0.031,0.731,0.092,1.131,0.185
		c0.4,0.093,0.692,0.239,0.877,0.439c0.185,0.2,0.277,0.469,0.277,0.808c0,1.97-0.508,2.954-1.523,2.954
		c-0.277,0-0.954,0.046-2.031,0.139c-1.078,0.092-1.8,0.138-2.169,0.138c-0.155,0-0.231,0.169-0.231,0.508
		c0,0.616,0.007,1.777,0.023,3.485c0.015,1.708,0.023,3.008,0.023,3.9v0.046v0.046c0,0.4,0.492,0.6,1.477,0.6
		c2.308,0,3.847,0.131,4.616,0.393c0.769,0.262,1.154,0.762,1.154,1.5c0,1.877-1.2,2.816-3.601,2.816h-2.262
		c-0.123,0-0.292,0.007-0.507,0.023c-0.216,0.015-0.37,0.023-0.462,0.023c-2.185,0-3.493-0.215-3.923-0.646
		c-0.801-0.861-1.2-1.969-1.2-3.324v-0.415c0-0.338-0.008-0.9-0.023-1.685C434.549,36.565,434.542,35.988,434.542,35.619z"/>
	<path fill="#333333" d="M451.205,38.989c0-0.03,0.062-0.03,0.185,0h0.185c0.677,0,1.285,0.185,1.824,0.554
		c0.538,0.37,0.808,0.923,0.808,1.662c0,0.308-0.016,0.539-0.046,0.692c-0.185,1.63-0.8,3.331-1.846,5.1
		c-1.046,1.77-2.201,2.777-3.462,3.023c-0.092,0.03-0.201,0.046-0.323,0.046c-0.616,0-0.954-0.323-1.015-0.969V48.82
		c0-0.677,0.338-1.462,1.015-2.354c0.4-0.523,0.6-1.262,0.6-2.215c0-0.277-0.023-0.692-0.069-1.247
		c-0.046-0.554-0.069-0.953-0.069-1.2C448.989,40.235,449.728,39.297,451.205,38.989z"/>
	<path fill="#333333" d="M478.715,9.771c5.969,0,8.955,6.309,8.955,18.925c0,2.339-0.308,4.632-0.923,6.878
		c-0.616,2.247-1.646,4.208-3.093,5.885c-1.447,1.678-3.155,2.516-5.124,2.516c-1.877,0-3.447-0.416-4.708-1.247
		c-1.262-0.831-2.2-2.038-2.815-3.624c-0.616-1.584-1.031-3.215-1.246-4.893c-0.216-1.677-0.323-3.67-0.323-5.978
		c0-1.846,0.076-3.584,0.231-5.216c0.153-1.631,0.438-3.285,0.854-4.962c0.416-1.677,0.954-3.1,1.616-4.27
		c0.662-1.169,1.554-2.13,2.677-2.885C475.938,10.147,477.238,9.771,478.715,9.771z M482.547,22.926
		c0-1.354-0.132-2.708-0.393-4.062c-0.262-1.354-0.731-2.562-1.408-3.624c-0.677-1.062-1.493-1.593-2.446-1.593h-0.046
		c-2.739,0-4.108,4.616-4.108,13.848c0,1.754,0.077,3.247,0.231,4.478c0.185,2.216,0.546,3.908,1.084,5.078
		c0.538,1.169,1.516,1.77,2.931,1.8c0.831,0,1.539-0.515,2.124-1.546c0.584-1.031,1.016-2.416,1.292-4.154
		c0.277-1.738,0.469-3.423,0.577-5.055C482.492,26.465,482.547,24.742,482.547,22.926z"/>
	<path fill="#333333" d="M490.07,39.681c0-0.307,0.008-0.739,0.023-1.292s0.023-0.938,0.023-1.154v-0.37
		c0.03-1.784,0.046-4.446,0.046-7.985c0-1.784-0.008-4.423-0.023-7.916c-0.016-3.492-0.022-6.1-0.022-7.824v-0.185
		c0-1.569,0.246-2.507,0.738-2.815c0.615-0.338,1.893-0.508,3.831-0.508h1.569c2.031,0,3.508,0.092,4.432,0.277
		c1.507,0.308,2.908,0.9,4.2,1.777s2.216,1.916,2.77,3.116c0.522,1.108,0.784,2.385,0.784,3.831c0,1.17-0.215,2.139-0.646,2.908
		c-0.708,1.231-1.531,2.223-2.47,2.977c-0.939,0.754-2.054,1.454-3.347,2.1c-0.092,0.031-0.2,0.069-0.323,0.116
		c-0.123,0.046-0.207,0.085-0.254,0.115c-0.046,0.031-0.092,0.077-0.138,0.138c-0.047,0.062-0.069,0.155-0.069,0.277v0.046
		c0.307,0.431,1.038,1.462,2.192,3.093c1.153,1.631,2.008,2.87,2.562,3.716c0.554,0.847,1.207,1.955,1.962,3.323
		c0.754,1.37,1.315,2.608,1.685,3.716v0.323c0,0.831-0.293,1.416-0.877,1.754c-0.308,0.185-0.692,0.277-1.154,0.277
		c-0.677,0-1.216-0.2-1.615-0.6c-1.047-1.138-2.016-2.331-2.908-3.577s-1.869-2.692-2.931-4.339
		c-1.062-1.646-1.869-2.869-2.424-3.669c-0.123-0.185-0.354-0.554-0.692-1.108c-0.339-0.554-0.653-1.046-0.946-1.477
		c-0.292-0.431-0.562-0.754-0.808-0.969c-0.246,0-0.369,1.631-0.369,4.893c0,0.923,0.016,2.308,0.046,4.154s0.047,3.308,0.047,4.385
		c0,0.708-0.178,1.216-0.531,1.523c-0.354,0.308-1.085,0.461-2.192,0.461c-0.523,0-0.97-0.076-1.339-0.23
		C490.348,42.712,490.07,41.62,490.07,39.681z M495.056,23.756c0.615,0,1.523-0.2,2.724-0.6c1.2-0.399,2.107-0.8,2.724-1.2
		c0.061-0.03,0.223-0.138,0.484-0.323c0.261-0.185,0.445-0.315,0.554-0.393c0.107-0.076,0.277-0.208,0.508-0.392
		c0.23-0.185,0.399-0.346,0.508-0.485c0.107-0.139,0.23-0.307,0.369-0.508c0.139-0.2,0.238-0.407,0.3-0.623
		c0.062-0.215,0.093-0.431,0.093-0.646c0-0.861-0.369-1.63-1.107-2.308c-0.739-0.677-1.54-1.154-2.4-1.431
		c-0.954-0.307-2.309-0.461-4.062-0.461h-0.508c-0.246,0-0.369,1.4-0.369,4.2C494.871,22.033,494.933,23.756,495.056,23.756z"/>
	<path fill="#333333" d="M528.566,11.986v6.786c0,0.708-0.008,1.785-0.022,3.231c-0.017,1.447-0.023,2.523-0.023,3.231v0.185
		c0.03,0.646,0.185,0.97,0.462,0.97c0.8,0,1.838-0.093,3.115-0.277c1.276-0.185,2.131-0.292,2.562-0.323
		c0.245-0.03,0.415-0.054,0.507-0.069c0.093-0.015,0.177-0.062,0.254-0.139c0.077-0.076,0.116-0.208,0.116-0.392v-0.323
		c-0.062-0.677-0.093-1.831-0.093-3.462v-0.831c0-1.077-0.039-2.516-0.115-4.315c-0.077-1.8-0.115-3.254-0.115-4.362
		c0-0.584,0.246-1.062,0.738-1.431c0.492-0.37,0.984-0.554,1.478-0.554c1.015,0,1.685,0.27,2.008,0.808
		c0.322,0.539,0.484,1.361,0.484,2.469c0,0.308-0.016,0.831-0.046,1.569c-0.031,0.739-0.047,1.324-0.047,1.754v3.047
		c0,1.631,0.047,4.385,0.139,8.262c0.093,3.877,0.139,6.801,0.139,8.77c0,0.216,0.007,0.577,0.023,1.085
		c0.015,0.508,0.022,0.9,0.022,1.177c0,1.2-0.216,2.193-0.646,2.978c-0.432,0.785-1.078,1.177-1.939,1.177
		c-0.492,0-0.893-0.192-1.2-0.577s-0.523-0.938-0.646-1.662c-0.124-0.723-0.201-1.346-0.231-1.869
		c-0.03-0.523-0.046-1.184-0.046-1.985c0-0.615,0.016-1.454,0.046-2.516s0.047-1.777,0.047-2.146v-0.508
		c0-0.953-0.247-1.431-0.739-1.431h-0.138c-0.801,0.062-1.217,0.092-1.247,0.092l-2.815,0.277c-0.062,0-0.185-0.007-0.369-0.023
		c-0.185-0.015-0.323-0.023-0.415-0.023c-0.678,0-1.108,0.154-1.293,0.461c-0.185,0.308-0.277,0.785-0.277,1.431
		c0,0.862,0.031,2.178,0.093,3.947c0.062,1.77,0.093,3.101,0.093,3.993c0,1.938-0.955,2.908-2.862,2.908
		c-1.354,0-2.031-1.646-2.031-4.939V36.45c0-0.615,0.016-1.507,0.047-2.677c0.03-1.169,0.046-2,0.046-2.493v-2.585
		c0-0.338,0.007-0.854,0.022-1.546s0.023-1.207,0.023-1.546v-2.215c0-1.23-0.023-2.938-0.069-5.124
		c-0.046-2.185-0.069-3.723-0.069-4.616c0-2.492,0.739-3.739,2.216-3.739C527.628,9.909,528.566,10.601,528.566,11.986z"/>
	<path fill="#333333" d="M545,43.789c-1.693,0-2.539-1.045-2.539-3.139c0-0.215,0.092-1.2,0.276-2.954
		c1.631-12.155,4-21.109,7.108-26.864c0.339-0.615,0.831-0.923,1.478-0.923c1.262,0,2.724,2.408,4.385,7.224
		c1.662,4.816,3.031,9.786,4.108,14.909s1.615,8.516,1.615,10.178c0,0.493-0.23,0.885-0.692,1.177c-0.461,0.292-1,0.438-1.615,0.438
		c-0.985,0-1.724-0.531-2.216-1.592c-0.492-1.062-0.77-2.231-0.831-3.508c-0.062-1.276-0.215-2.446-0.461-3.508
		c-0.247-1.062-0.646-1.593-1.2-1.593h-0.277c-0.154,0.031-0.831,0.085-2.03,0.162c-1.2,0.077-2.17,0.231-2.908,0.461
		c-0.739,0.231-1.124,0.577-1.154,1.039c0,0.124-0.016,0.455-0.046,0.993c-0.031,0.539-0.055,0.939-0.069,1.2
		c-0.016,0.262-0.046,0.669-0.093,1.223c-0.046,0.554-0.1,0.985-0.161,1.292c-0.062,0.308-0.139,0.685-0.23,1.131
		c-0.093,0.446-0.216,0.808-0.369,1.084c-0.155,0.277-0.323,0.547-0.508,0.808c-0.185,0.261-0.416,0.454-0.692,0.577
		C545.6,43.727,545.307,43.789,545,43.789z M551.23,18.402c-0.339,0-0.815,1.585-1.431,4.754c-0.615,3.17-0.923,5.17-0.923,6
		c0,0.031-0.016,0.046-0.046,0.046c-0.031,0-0.047,0.016-0.047,0.046c0,0.308,0.231,0.461,0.692,0.461h0.047l1.431-0.139
		c0.923-0.092,1.7-0.223,2.331-0.392c0.63-0.169,0.946-0.393,0.946-0.669c0-0.615-0.432-2.454-1.293-5.516
		C552.077,19.933,551.508,18.402,551.23,18.402z"/>
	<path fill="#333333" d="M575.787,9.863c0.554,0,1.092,0.323,1.615,0.969c0.523,0.646,0.785,1.323,0.785,2.031
		c0,0.154-0.031,0.323-0.093,0.508c-0.215,1.046-0.677,3.409-1.385,7.085c-0.708,3.678-1.377,6.871-2.008,9.578
		c-0.631,2.708-1.223,4.77-1.776,6.185c-0.093,0.216-0.254,0.715-0.485,1.5c-0.23,0.785-0.469,1.516-0.715,2.193
		c-0.247,0.677-0.539,1.385-0.877,2.123c-0.34,0.739-0.739,1.323-1.2,1.754c-0.462,0.431-0.954,0.646-1.478,0.646h-0.415
		c-0.739,0-1.231-0.201-1.478-0.6c-0.77-1.2-1.454-2.631-2.054-4.293c-0.601-1.662-1.139-3.823-1.615-6.485
		c-0.478-2.662-0.824-4.616-1.039-5.862c-0.216-1.247-0.523-3.616-0.923-7.108c-0.4-3.492-0.616-5.332-0.646-5.516
		c-0.093-0.831-0.139-1.492-0.139-1.985c0-1.815,0.646-2.77,1.938-2.862h0.231c1.415,0,2.369,1.754,2.861,5.262
		c0.185,1.323,0.446,3.308,0.785,5.955c0.338,2.647,0.661,4.893,0.969,6.739c0.308,1.847,0.723,3.924,1.247,6.231
		c0.092,0.277,0.199,0.416,0.322,0.416c0.185,0,0.631-1.784,1.339-5.354c0.708-3.569,1.446-7.27,2.216-11.101
		c0.769-3.831,1.322-5.978,1.662-6.439C574.172,10.386,574.956,9.863,575.787,9.863z"/>
	<path fill="#333333" d="M579.849,35.619v-3.37c0-2.338,0.054-5.739,0.162-10.201c0.107-4.461,0.161-7.893,0.161-10.293
		c0-1.262,0.861-1.893,2.585-1.893h0.692c0.8,0,1.869,0.031,3.208,0.092c1.339,0.062,2.393,0.092,3.162,0.092
		c0.831,0,1.431,0.4,1.8,1.2c0.123,0.247,0.185,0.77,0.185,1.569v0.092c0,0.431-0.2,0.808-0.6,1.131
		c-0.4,0.323-0.847,0.485-1.339,0.485h-4.985c-0.216,0-0.323,0.2-0.323,0.6c0,0.923-0.016,2.462-0.046,4.616
		c-0.031,2.154-0.046,3.662-0.046,4.523c0,0.4,0.069,0.654,0.208,0.762c0.138,0.108,0.438,0.192,0.899,0.254
		c0.277,0.031,0.7,0.054,1.27,0.069c0.569,0.016,1.03,0.039,1.385,0.069c0.354,0.031,0.73,0.092,1.131,0.185
		c0.399,0.093,0.692,0.239,0.877,0.439s0.277,0.469,0.277,0.808c0,1.97-0.508,2.954-1.523,2.954c-0.277,0-0.954,0.046-2.031,0.139
		c-1.077,0.092-1.8,0.138-2.169,0.138c-0.154,0-0.231,0.169-0.231,0.508c0,0.616,0.008,1.777,0.023,3.485
		c0.016,1.708,0.023,3.008,0.023,3.9v0.046v0.046c0,0.4,0.491,0.6,1.477,0.6c2.309,0,3.847,0.131,4.616,0.393
		c0.769,0.262,1.154,0.762,1.154,1.5c0,1.877-1.2,2.816-3.601,2.816h-2.262c-0.124,0-0.293,0.007-0.508,0.023
		c-0.216,0.015-0.369,0.023-0.462,0.023c-2.186,0-3.493-0.215-3.924-0.646c-0.8-0.861-1.199-1.969-1.199-3.324v-0.415
		c0-0.338-0.009-0.9-0.023-1.685C579.856,36.565,579.849,35.988,579.849,35.619z"/>
	<path fill="#333333" d="M608.053,43.789c-1.693,0-2.539-1.045-2.539-3.139c0-0.215,0.092-1.2,0.276-2.954
		c1.631-12.155,4-21.109,7.108-26.864c0.339-0.615,0.831-0.923,1.478-0.923c1.262,0,2.724,2.408,4.385,7.224
		c1.662,4.816,3.031,9.786,4.108,14.909s1.615,8.516,1.615,10.178c0,0.493-0.23,0.885-0.692,1.177c-0.461,0.292-1,0.438-1.615,0.438
		c-0.985,0-1.724-0.531-2.216-1.592c-0.492-1.062-0.77-2.231-0.831-3.508c-0.062-1.276-0.215-2.446-0.461-3.508
		c-0.247-1.062-0.646-1.593-1.2-1.593h-0.277c-0.154,0.031-0.831,0.085-2.03,0.162c-1.2,0.077-2.17,0.231-2.908,0.461
		c-0.739,0.231-1.124,0.577-1.154,1.039c0,0.124-0.016,0.455-0.046,0.993c-0.031,0.539-0.055,0.939-0.069,1.2
		c-0.016,0.262-0.046,0.669-0.093,1.223c-0.046,0.554-0.1,0.985-0.161,1.292c-0.062,0.308-0.139,0.685-0.23,1.131
		c-0.093,0.446-0.216,0.808-0.369,1.084c-0.155,0.277-0.323,0.547-0.508,0.808c-0.185,0.261-0.416,0.454-0.692,0.577
		C608.652,43.727,608.359,43.789,608.053,43.789z M614.283,18.402c-0.339,0-0.815,1.585-1.431,4.754c-0.615,3.17-0.923,5.17-0.923,6
		c0,0.031-0.016,0.046-0.046,0.046c-0.031,0-0.047,0.016-0.047,0.046c0,0.308,0.231,0.461,0.692,0.461h0.047l1.431-0.139
		c0.923-0.092,1.7-0.223,2.331-0.392c0.63-0.169,0.946-0.393,0.946-0.669c0-0.615-0.432-2.454-1.293-5.516
		C615.13,19.933,614.561,18.402,614.283,18.402z"/>
	<path fill="#333333" d="M657.949,41.62c0.215,0.185,0.323,0.339,0.323,0.462c0,1.107-0.293,2-0.877,2.677
		c-0.585,0.676-1.385,1.015-2.4,1.015c-0.369,0-0.738-0.046-1.107-0.138c-0.709-0.154-1.462-0.724-2.262-1.708
		c-0.031-0.031-0.085-0.092-0.162-0.185s-0.146-0.169-0.207-0.231c-0.216-0.215-0.386-0.323-0.508-0.323
		c-0.124,0-0.262,0.062-0.416,0.185c-0.708,0.584-1.539,0.923-2.492,1.015h-0.462c-0.523,0-1.17-0.138-1.938-0.415
		c-1.447-0.493-2.616-1.108-3.508-1.847c-0.585-0.492-1.216-1.23-1.893-2.215c-0.062-0.062-0.093-0.123-0.093-0.185
		c0.03,0,0.047-0.016,0.047-0.046c-0.216-0.215-0.447-0.569-0.692-1.062c-1.016-2.585-1.523-5.708-1.523-9.37v-0.231
		c0-0.185,0.015-0.485,0.046-0.9c0.03-0.415,0.046-0.699,0.046-0.854c0-3.785,0.601-6.985,1.801-9.601
		c0.86-2,1.876-3.708,3.046-5.124c1.508-1.847,3.631-2.77,6.37-2.77c1.016,0,1.992,0.3,2.931,0.9s1.686,1.332,2.239,2.192
		c1.23,1.877,1.969,3.724,2.216,5.539c0.522,3.201,0.784,6.155,0.784,8.863v0.23c0,2.062-0.246,4.154-0.738,6.278
		c-0.493,2.123-1.108,3.923-1.847,5.4c-0.092,0.154-0.139,0.385-0.139,0.692c0,0.585,0.077,0.985,0.231,1.2
		c0.153,0.216,0.522,0.323,1.107,0.323c0.062,0,0.153-0.007,0.277-0.023c0.122-0.015,0.215-0.023,0.276-0.023h0.416
		C657.333,41.343,657.703,41.435,657.949,41.62z M651.626,16.694c-0.555-1.477-1.462-2.216-2.724-2.216
		c-1.107,0-2.216,0.554-3.323,1.662c-1.047,1.2-1.785,2.708-2.216,4.523c-0.708,2.801-1.139,5.17-1.292,7.109
		c-0.062,0.8-0.093,1.4-0.093,1.8c0,1.569,0.2,3.231,0.6,4.985c0.123,0.4,0.262,0.6,0.416,0.6c0.185,0,0.338-0.046,0.461-0.139
		c1.077-0.8,2.2-1.2,3.37-1.2c1.723,0,3.277,0.646,4.662,1.939c0.246,0.247,0.431,0.369,0.554,0.369s0.23-0.231,0.323-0.692
		c0.584-2.493,0.877-5.262,0.877-8.309v-0.6C653.179,22.372,652.642,19.094,651.626,16.694z M649.133,39.82
		c0.03-0.03,0.047-0.077,0.047-0.139c0-0.123-0.047-0.231-0.139-0.323c-0.4-0.554-0.97-0.831-1.708-0.831h-0.046
		c-0.031,0.031-0.062,0.046-0.093,0.046h-0.185h-0.046c-0.185,0-0.339,0.031-0.462,0.092c-0.247,0.124-0.369,0.262-0.369,0.416
		c0,0.185,0.122,0.339,0.369,0.461c0.462,0.185,1.185,0.37,2.17,0.554h0.138C648.933,40.097,649.041,40.004,649.133,39.82z"/>
	<path fill="#333333" d="M676.967,35.019c-0.923,2.985-2.016,5.101-3.277,6.347c-1.262,1.247-2.939,1.87-5.031,1.87
		c-6.155,0-9.231-5.678-9.231-17.033c0-0.892,0.015-2.253,0.046-4.085c0.03-1.831,0.046-3.069,0.046-3.716
		c0-3.6,0.246-6.062,0.738-7.385c0.246-0.738,0.97-1.108,2.17-1.108c0.246,0,0.462,0.101,0.646,0.3c0.185,0.2,0.314,0.5,0.392,0.9
		c0.077,0.4,0.131,0.747,0.162,1.039c0.03,0.293,0.062,0.692,0.092,1.2s0.047,0.792,0.047,0.854
		c0.122,1.231,0.185,3.023,0.185,5.377s0.03,4.478,0.092,6.37c0.062,1.893,0.208,3.801,0.438,5.724
		c0.231,1.923,0.708,3.431,1.432,4.523c0.723,1.093,1.685,1.639,2.885,1.639h0.092c0.554,0,1.054-0.177,1.5-0.531
		c0.446-0.354,0.809-0.861,1.085-1.523c0.277-0.662,0.516-1.369,0.716-2.124c0.199-0.753,0.361-1.646,0.484-2.677
		c0.123-1.031,0.223-1.946,0.3-2.747c0.077-0.8,0.154-1.738,0.231-2.816c0.076-1.077,0.146-1.893,0.207-2.446
		c0.03-0.431,0.093-1.292,0.185-2.585c0.093-1.292,0.186-2.407,0.277-3.346c0.093-0.938,0.23-1.946,0.415-3.023
		c0.186-1.077,0.438-1.908,0.762-2.493c0.323-0.584,0.716-0.877,1.178-0.877c1.445,0,2.169,1.262,2.169,3.785v1.938v5.308
		C678.397,27.465,677.92,31.911,676.967,35.019z"/>
	<path fill="#333333" d="M681.259,35.619v-3.37c0-2.338,0.054-5.739,0.162-10.201c0.107-4.461,0.161-7.893,0.161-10.293
		c0-1.262,0.861-1.893,2.585-1.893h0.692c0.8,0,1.869,0.031,3.208,0.092c1.339,0.062,2.393,0.092,3.162,0.092
		c0.831,0,1.431,0.4,1.8,1.2c0.123,0.247,0.185,0.77,0.185,1.569v0.092c0,0.431-0.2,0.808-0.6,1.131
		c-0.4,0.323-0.847,0.485-1.339,0.485h-4.985c-0.216,0-0.323,0.2-0.323,0.6c0,0.923-0.016,2.462-0.046,4.616
		c-0.031,2.154-0.046,3.662-0.046,4.523c0,0.4,0.069,0.654,0.208,0.762c0.138,0.108,0.438,0.192,0.899,0.254
		c0.277,0.031,0.7,0.054,1.27,0.069c0.569,0.016,1.03,0.039,1.385,0.069c0.354,0.031,0.73,0.092,1.131,0.185
		c0.399,0.093,0.692,0.239,0.877,0.439s0.277,0.469,0.277,0.808c0,1.97-0.508,2.954-1.523,2.954c-0.277,0-0.954,0.046-2.031,0.139
		c-1.077,0.092-1.8,0.138-2.169,0.138c-0.154,0-0.231,0.169-0.231,0.508c0,0.616,0.008,1.777,0.023,3.485
		c0.016,1.708,0.023,3.008,0.023,3.9v0.046v0.046c0,0.4,0.491,0.6,1.477,0.6c2.309,0,3.847,0.131,4.616,0.393
		c0.769,0.262,1.154,0.762,1.154,1.5c0,1.877-1.2,2.816-3.601,2.816h-2.262c-0.124,0-0.293,0.007-0.508,0.023
		c-0.216,0.015-0.369,0.023-0.462,0.023c-2.186,0-3.493-0.215-3.924-0.646c-0.8-0.861-1.199-1.969-1.199-3.324v-0.415
		c0-0.338-0.009-0.9-0.023-1.685C681.267,36.565,681.259,35.988,681.259,35.619z"/>
	<path fill="#333333" d="M702.354,9.771c2.8,0,4.738,0.669,5.815,2.008c1.077,1.338,1.616,3.208,1.616,5.608
		c0,0.954-0.201,1.646-0.601,2.077c-0.4,0.431-0.877,0.646-1.431,0.646c-0.678,0-1.254-0.215-1.731-0.646
		c-0.478-0.431-0.715-1.138-0.715-2.124c0-0.399-0.023-0.738-0.069-1.016c-0.046-0.277-0.146-0.607-0.3-0.992
		c-0.154-0.384-0.432-0.685-0.831-0.9c-0.4-0.215-0.924-0.323-1.569-0.323c-0.678,0-1.27,0.362-1.777,1.084
		c-0.508,0.724-0.762,1.47-0.762,2.239c0,0.985,0.385,1.993,1.154,3.023c0.769,1.031,1.699,2.031,2.792,3
		c1.093,0.969,2.185,2.008,3.277,3.116c1.092,1.107,2.023,2.446,2.793,4.016c0.769,1.569,1.154,3.262,1.154,5.078
		c0,2.185-0.508,4-1.523,5.446c-0.862,1.17-1.762,1.955-2.7,2.354c-0.939,0.399-2.316,0.6-4.132,0.6c-2.062,0-3.839-0.9-5.331-2.701
		c-1.493-1.8-2.238-3.977-2.238-6.531c0-1.016,0.254-1.916,0.762-2.7c0.507-0.785,1.207-1.177,2.1-1.177
		c0.584,0,1.022,0.224,1.315,0.669c0.292,0.446,0.454,0.9,0.485,1.362c0.153,2.339,0.399,3.847,0.738,4.523
		c0.461,0.893,1.262,1.338,2.4,1.338c0.984,0,1.723-0.407,2.215-1.223c0.492-0.815,0.739-1.746,0.739-2.792
		c0-1.354-0.262-2.592-0.785-3.716c-0.523-1.123-1.177-2.046-1.962-2.77c-0.784-0.723-1.639-1.477-2.562-2.262
		s-1.777-1.515-2.562-2.192c-0.785-0.677-1.439-1.539-1.962-2.585c-0.523-1.046-0.785-2.185-0.785-3.416
		c0-2.246,0.654-4.161,1.962-5.747C698.653,10.563,700.323,9.771,702.354,9.771z"/>
	<path fill="#333333" d="M721.879,10.278c1.692,0,2.831,0.223,3.416,0.669c0.584,0.447,0.877,1.285,0.877,2.516
		c0,1.601-1.093,2.4-3.277,2.4h-1.431c-0.369,0-0.585,0.154-0.646,0.461c-0.092,0.739-0.139,1.493-0.139,2.262
		c0,0.862-0.008,2.146-0.022,3.854c-0.017,1.708-0.023,3.008-0.023,3.9c0.123,2.523,0.185,6.401,0.185,11.632v1.339
		c0,0.215-0.008,0.554-0.023,1.015c-0.016,0.462-0.022,0.816-0.022,1.062c0,1.447-0.862,2.169-2.585,2.169
		c-0.77,0-1.378-0.254-1.823-0.762c-0.446-0.508-0.669-1.161-0.669-1.962c0-1.6,0.015-2.569,0.046-2.908
		c0.307-2.984,0.461-8.186,0.461-15.602c0-4.247-0.138-6.37-0.415-6.37h-0.277h-0.969c-0.585,0-1.154-0.046-1.708-0.139
		c-0.4-0.061-0.738-0.292-1.016-0.692c-0.276-0.4-0.415-0.815-0.415-1.247c0-0.399,0.03-0.846,0.092-1.338
		c0.062-0.523,0.169-0.931,0.323-1.223c0.153-0.292,0.399-0.5,0.738-0.624c0.339-0.123,0.615-0.192,0.831-0.208
		c0.215-0.015,0.631-0.038,1.246-0.069c2.831-0.061,4.678-0.092,5.539-0.092c0.154,0,0.423-0.007,0.809-0.023
		C721.363,10.286,721.663,10.278,721.879,10.278z"/>
	<path fill="#333333" d="M728.202,13.371c0-1.015,0.2-1.846,0.601-2.493c0.399-0.646,1.016-0.969,1.847-0.969
		c1.199,0.092,1.8,0.908,1.8,2.447v1.892c0,1.139,0.03,2.824,0.092,5.055c0.062,2.231,0.093,3.854,0.093,4.87
		c0,0.585-0.016,1.439-0.046,2.562c-0.031,1.124-0.047,1.978-0.047,2.562c0,0.646,0.008,1.531,0.023,2.654
		c0.016,1.124,0.023,1.978,0.023,2.562c0,0.462,0.007,1.262,0.022,2.4c0.016,1.139,0.023,1.938,0.023,2.4
		c0,2.585-0.631,3.877-1.893,3.877c-0.554,0-1.016-0.107-1.385-0.323c-0.369-0.215-0.654-0.469-0.854-0.762
		c-0.201-0.292-0.347-0.762-0.438-1.408c-0.093-0.646-0.146-1.208-0.162-1.685c-0.016-0.477-0.022-1.207-0.022-2.192v-0.692v-1.616
		c0-0.307-0.009-0.753-0.023-1.338c-0.016-0.584-0.023-1.016-0.023-1.292C727.833,26.188,727.956,20.018,728.202,13.371z"/>
	<path fill="#333333" d="M744.542,9.771c5.97,0,8.955,6.309,8.955,18.925c0,2.339-0.308,4.632-0.923,6.878
		c-0.616,2.247-1.646,4.208-3.093,5.885c-1.447,1.678-3.154,2.516-5.124,2.516c-1.877,0-3.446-0.416-4.708-1.247
		c-1.262-0.831-2.2-2.038-2.815-3.624c-0.616-1.584-1.031-3.215-1.246-4.893c-0.216-1.677-0.323-3.67-0.323-5.978
		c0-1.846,0.076-3.584,0.23-5.216c0.154-1.631,0.438-3.285,0.854-4.962c0.415-1.677,0.953-3.1,1.615-4.27
		c0.661-1.169,1.554-2.13,2.677-2.885C741.765,10.147,743.065,9.771,744.542,9.771z M748.374,22.926
		c0-1.354-0.132-2.708-0.393-4.062c-0.262-1.354-0.731-2.562-1.408-3.624s-1.493-1.593-2.446-1.593h-0.046
		c-2.739,0-4.108,4.616-4.108,13.848c0,1.754,0.076,3.247,0.23,4.478c0.185,2.216,0.547,3.908,1.085,5.078s1.516,1.77,2.932,1.8
		c0.83,0,1.538-0.515,2.123-1.546c0.584-1.031,1.016-2.416,1.292-4.154c0.277-1.738,0.469-3.423,0.577-5.055
		C748.319,26.465,748.374,24.742,748.374,22.926z"/>
	<path fill="#333333" d="M756.221,20.11c0-1.323,0.023-2.469,0.069-3.439c0.046-0.969,0.154-2.008,0.323-3.116
		c0.169-1.107,0.454-1.961,0.854-2.562c0.399-0.6,0.907-0.9,1.522-0.9c1.815,0,3.277,1.785,4.386,5.354
		c0.369,1.17,0.822,2.762,1.361,4.777c0.538,2.016,0.9,3.347,1.085,3.993c0.153,0.524,0.384,1.385,0.692,2.585
		c0.307,1.2,0.584,2.239,0.831,3.116c0.245,0.877,0.507,1.655,0.784,2.331v-0.923c0-2.154,0.046-5.085,0.139-8.793
		c0.092-3.708,0.139-6.67,0.139-8.886c0-2.43,1.076-3.646,3.23-3.646c0.615,0,1.008,0.178,1.178,0.531
		c0.168,0.354,0.254,0.931,0.254,1.731c0,2.186-0.069,5.371-0.208,9.555c-0.139,4.185-0.208,7.447-0.208,9.786
		c0,0.585,0.016,1.338,0.046,2.262c0.03,0.923,0.047,1.646,0.047,2.169c0,0.369,0.015,0.931,0.046,1.685
		c0.03,0.754,0.046,1.332,0.046,1.731c0,0.124,0.008,0.37,0.023,0.739c0.015,0.369,0.023,0.646,0.023,0.831
		c0,1.477-0.724,2.216-2.17,2.216c-1.047-0.03-1.924-0.431-2.631-1.2c-0.708-0.769-1.2-1.507-1.478-2.215
		c-1.107-3.108-2.492-8.078-4.154-14.91c-0.154-0.461-0.385-1.015-0.692-1.662c-0.062-0.03-0.123-0.046-0.185-0.046
		c-0.246,0-0.369,0.108-0.369,0.323v0.231c0,1.846,0.023,4.585,0.069,8.216c0.046,3.631,0.069,6.585,0.069,8.862
		c0,0.801-0.216,1.393-0.646,1.777c-0.431,0.385-0.893,0.577-1.385,0.577c-2.154,0-3.23-1.507-3.23-4.523
		c0-2.031,0.022-5.092,0.068-9.186C756.198,25.388,756.221,22.264,756.221,20.11z"/>
	<path fill="#333333" d="M784.146,8.663c2.277,0,4.224,0.639,5.839,1.916c1.615,1.277,2.424,2.962,2.424,5.054
		c0,1.508-0.323,2.947-0.97,4.316c-0.646,1.37-1.361,2.485-2.146,3.347c-0.784,0.862-1.5,1.823-2.146,2.885
		c-0.646,1.062-0.969,2.054-0.969,2.977c0,0.432,0.1,1.2,0.3,2.308c0.199,1.108,0.3,1.893,0.3,2.354c0,0.493-0.331,0.993-0.992,1.5
		c-0.662,0.507-1.331,0.761-2.008,0.761c-1.2,0-1.955-0.445-2.262-1.338c-0.462-1.415-0.692-2.877-0.692-4.385
		c0-2.308,0.584-4.369,1.754-6.185c0.369-0.584,1.008-1.4,1.915-2.446c0.908-1.046,1.562-1.992,1.962-2.839
		c0.399-0.846,0.601-1.885,0.601-3.116c0-0.708-0.3-1.323-0.9-1.846c-0.6-0.523-1.27-0.785-2.008-0.785
		c-1.323,0-2.2,0.27-2.631,0.808c-0.432,0.539-0.646,1.716-0.646,3.531c0,1.385-0.569,2.077-1.708,2.077
		c-1.908,0-2.861-1.4-2.861-4.201c0-1.908,0.792-3.5,2.377-4.777C780.261,9.302,782.084,8.663,784.146,8.663z M787.516,40.927
		c0,0.955-0.254,1.785-0.761,2.493c-0.508,0.708-1.147,1.062-1.916,1.062c-2.093,0-3.139-1.031-3.139-3.092
		c0-0.985,0.215-1.838,0.646-2.562c0.43-0.723,1.045-1.084,1.846-1.084c0.8,0,1.554,0.316,2.262,0.946
		C787.162,39.32,787.516,40.066,787.516,40.927z"/>
</g>
<g>
	<path fill="#333333" d="M46.565,79.846c-1.318,0-2.325-0.282-3.021-0.846c-0.698-0.562-1.095-1.365-1.192-2.406
		c-0.097-1.04-0.022-2.162,0.227-3.362c0.247-1.2,0.658-2.586,1.233-4.159c0.621-1.699,1.197-3.069,1.727-4.11
		c0.417-0.85,1.327-2.263,2.73-4.239c0.993-1.381,2.269-2.517,3.828-3.41c1.241-0.722,2.595-1.083,4.062-1.083
		c0.828,0,1.453,0.063,1.874,0.191c1.033,0.255,1.562,0.786,1.585,1.593c0.027,0.914-0.192,2.061-0.653,3.442l-0.036,0.096
		c-0.264,0.722-0.618,1.221-1.058,1.498c-0.441,0.277-1.026,0.425-1.756,0.446c-1.021,0-1.421-0.297-1.204-0.892
		c0.101-0.276,0.3-0.733,0.597-1.371c0.015-0.042,0.086-0.191,0.211-0.446c0.125-0.254,0.207-0.435,0.246-0.542
		c0.171-0.467,0.149-0.786-0.064-0.957c-0.215-0.169-0.64-0.255-1.277-0.255c-0.596,0-1.164,0.176-1.707,0.527
		c-0.542,0.35-0.969,0.717-1.278,1.099c-0.31,0.383-0.677,0.893-1.101,1.53c-1.221,1.827-2.356,4.174-3.405,7.043
		c-0.046,0.127-0.111,0.318-0.194,0.574c-0.082,0.254-0.151,0.457-0.205,0.605c-0.534,1.636-0.648,2.979-0.342,4.031
		c0.305,1.052,1.18,1.578,2.625,1.578c0.447,0,0.784-0.021,1.011-0.064c0.228-0.042,0.452-0.16,0.671-0.351
		c0.218-0.191,0.398-0.478,0.538-0.86l0.082-0.224c0.169-0.637,0.373-1.369,0.612-2.199c0.095-0.318-0.016-0.478-0.334-0.478
		c-0.234,0-0.593,0.021-1.075,0.063c-0.483,0.043-0.819,0.064-1.01,0.064c-0.383,0-0.609-0.122-0.679-0.367
		c-0.069-0.244,0.019-0.706,0.268-1.386c0.14-0.383,0.486-0.664,1.041-0.844c0.555-0.181,1.365-0.304,2.429-0.367
		c1.064-0.064,1.629-0.096,1.692-0.096h0.191c0.361,0,0.61,0.133,0.746,0.399c0.137,0.265,0.171,0.579,0.103,0.939
		c-0.241,1.53-0.815,3.539-1.725,6.024c-0.443,1.211-1.328,2.108-2.658,2.692C49.588,79.553,48.137,79.846,46.565,79.846z"/>
	<path fill="#333333" d="M56.03,74.268l0.851-2.326c0.591-1.614,1.486-3.962,2.687-7.043c1.201-3.08,2.104-5.45,2.71-7.107
		c0.319-0.87,1.073-1.306,2.263-1.306h0.479c0.552,0,1.283,0.021,2.191,0.063c0.909,0.042,1.628,0.064,2.16,0.064
		c0.573,0,0.887,0.276,0.94,0.828c0.022,0.171-0.067,0.532-0.269,1.084l-0.023,0.063c-0.109,0.298-0.342,0.557-0.699,0.781
		c-0.359,0.223-0.708,0.335-1.047,0.335h-3.441c-0.15,0-0.273,0.137-0.375,0.414c-0.233,0.637-0.633,1.7-1.198,3.186
		c-0.565,1.488-0.956,2.528-1.173,3.123c-0.101,0.277-0.118,0.452-0.048,0.526c0.068,0.074,0.254,0.133,0.557,0.174
		c0.184,0.022,0.47,0.039,0.859,0.049c0.388,0.011,0.701,0.027,0.938,0.047c0.235,0.021,0.481,0.064,0.734,0.127
		c0.252,0.064,0.417,0.166,0.494,0.303c0.077,0.138,0.073,0.324-0.012,0.558c-0.498,1.36-1.097,2.039-1.798,2.039
		c-0.191,0-0.67,0.033-1.437,0.096c-0.768,0.064-1.278,0.096-1.533,0.096c-0.107,0-0.203,0.117-0.289,0.351
		c-0.155,0.425-0.443,1.226-0.863,2.406c-0.421,1.179-0.745,2.077-0.97,2.693l-0.011,0.032l-0.012,0.031
		c-0.101,0.276,0.188,0.414,0.869,0.414c1.593,0,2.623,0.091,3.087,0.271c0.465,0.181,0.605,0.525,0.419,1.035
		c-0.475,1.297-1.541,1.944-3.197,1.944h-1.562c-0.085,0-0.205,0.005-0.357,0.015c-0.152,0.011-0.261,0.016-0.324,0.016
		c-1.509,0-2.357-0.148-2.545-0.446c-0.336-0.594-0.333-1.359,0.009-2.294l0.105-0.287c0.086-0.233,0.222-0.622,0.41-1.164
		C55.797,74.921,55.938,74.522,56.03,74.268z"/>
	<path fill="#333333" d="M78.968,56.772c1.168,0,1.898,0.154,2.19,0.462c0.29,0.309,0.281,0.887-0.03,1.737
		c-0.404,1.104-1.361,1.657-2.87,1.657h-0.987c-0.256,0-0.443,0.106-0.563,0.318c-0.25,0.51-0.472,1.031-0.666,1.562
		c-0.218,0.596-0.547,1.482-0.989,2.662c-0.442,1.179-0.776,2.076-1.001,2.692c-0.552,1.742-1.489,4.419-2.81,8.031l-0.337,0.924
		c-0.055,0.149-0.145,0.383-0.271,0.701c-0.128,0.319-0.222,0.563-0.285,0.733c-0.365,0.999-1.142,1.498-2.333,1.498
		c-0.531,0-0.886-0.176-1.066-0.526c-0.18-0.351-0.169-0.801,0.033-1.354c0.404-1.105,0.659-1.773,0.766-2.007
		c0.966-2.061,2.385-5.651,4.258-10.771c1.072-2.933,1.513-4.398,1.322-4.398h-0.191h-0.669c-0.404,0-0.785-0.032-1.144-0.096
		c-0.261-0.042-0.436-0.201-0.526-0.477c-0.09-0.277-0.082-0.563,0.027-0.861c0.101-0.276,0.235-0.584,0.401-0.924
		c0.175-0.361,0.351-0.642,0.533-0.844c0.18-0.203,0.402-0.346,0.667-0.431c0.264-0.084,0.473-0.132,0.626-0.143
		c0.153-0.01,0.444-0.027,0.878-0.048c1.969-0.042,3.252-0.064,3.847-0.064c0.106,0,0.293-0.004,0.563-0.015
		C78.61,56.778,78.82,56.772,78.968,56.772z"/>
	<path fill="#333333" d="M90.711,58.908c0.256-0.702,0.604-1.275,1.044-1.722c0.438-0.446,0.946-0.669,1.519-0.669
		c0.805,0.064,1.014,0.627,0.625,1.689l-0.478,1.306c-0.288,0.786-0.691,1.95-1.212,3.49c-0.521,1.541-0.91,2.661-1.166,3.362
		c-0.148,0.404-0.375,0.994-0.679,1.769c-0.305,0.776-0.531,1.366-0.678,1.769c-0.163,0.446-0.381,1.057-0.654,1.833
		c-0.273,0.774-0.484,1.365-0.631,1.768c-0.117,0.318-0.313,0.871-0.59,1.657c-0.276,0.786-0.474,1.339-0.59,1.657
		c-0.652,1.785-1.415,2.677-2.286,2.677c-0.382,0-0.674-0.074-0.875-0.222c-0.2-0.149-0.333-0.324-0.397-0.527
		c-0.064-0.201-0.047-0.526,0.052-0.971c0.1-0.446,0.204-0.834,0.314-1.164c0.109-0.33,0.289-0.834,0.538-1.514l0.174-0.478
		l0.408-1.115c0.078-0.213,0.186-0.52,0.323-0.924c0.136-0.403,0.24-0.702,0.31-0.893C87.221,67.756,88.863,63.497,90.711,58.908z"
		/>
	<path fill="#333333" d="M94.172,63.56c0.334-0.913,0.64-1.705,0.916-2.374c0.277-0.669,0.613-1.387,1.01-2.152
		c0.396-0.764,0.808-1.354,1.236-1.768c0.427-0.414,0.854-0.621,1.279-0.621c1.253,0,1.811,1.232,1.675,3.697
		c-0.041,0.807-0.129,1.906-0.266,3.298c-0.138,1.392-0.224,2.31-0.26,2.757c-0.025,0.361-0.083,0.956-0.174,1.784
		c-0.091,0.829-0.162,1.546-0.213,2.151c-0.052,0.606-0.067,1.143-0.047,1.61l0.234-0.637c0.543-1.488,1.314-3.511,2.315-6.072
		c1-2.56,1.78-4.604,2.339-6.135c0.614-1.678,1.665-2.518,3.152-2.518c0.425,0,0.65,0.122,0.678,0.366
		c0.027,0.245-0.06,0.643-0.262,1.196c-0.551,1.508-1.403,3.707-2.555,6.596c-1.153,2.889-2.024,5.141-2.615,6.756
		c-0.148,0.403-0.328,0.924-0.54,1.562s-0.383,1.137-0.516,1.498c-0.093,0.255-0.224,0.644-0.394,1.164
		c-0.169,0.521-0.304,0.919-0.405,1.195c-0.031,0.084-0.088,0.255-0.17,0.51c-0.083,0.254-0.147,0.446-0.194,0.573
		c-0.373,1.021-1.058,1.53-2.057,1.53c-0.715-0.021-1.219-0.296-1.514-0.828c-0.294-0.531-0.448-1.041-0.459-1.53
		c0.02-2.146,0.318-5.576,0.896-10.293c0.009-0.319-0.01-0.701-0.059-1.147c-0.035-0.021-0.074-0.033-0.116-0.033
		c-0.17,0-0.282,0.076-0.336,0.224l-0.058,0.159c-0.466,1.275-1.142,3.166-2.027,5.673c-0.884,2.507-1.615,4.546-2.189,6.119
		c-0.203,0.553-0.502,0.962-0.896,1.227c-0.395,0.266-0.762,0.398-1.102,0.398c-1.488,0-1.851-1.04-1.089-3.123
		c0.513-1.402,1.302-3.515,2.368-6.342C92.823,67.205,93.628,65.047,94.172,63.56z"/>
	<path fill="#333333" d="M125.082,56.772c1.168,0,1.898,0.154,2.189,0.462c0.29,0.309,0.281,0.887-0.03,1.737
		c-0.404,1.104-1.361,1.657-2.87,1.657h-0.987c-0.256,0-0.443,0.106-0.563,0.318c-0.25,0.51-0.472,1.031-0.666,1.562
		c-0.218,0.596-0.548,1.482-0.99,2.662c-0.442,1.179-0.776,2.076-1.001,2.692c-0.551,1.742-1.488,4.419-2.809,8.031l-0.338,0.924
		c-0.055,0.149-0.145,0.383-0.271,0.701c-0.128,0.319-0.223,0.563-0.285,0.733c-0.366,0.999-1.143,1.498-2.333,1.498
		c-0.531,0-0.886-0.176-1.066-0.526s-0.169-0.801,0.034-1.354c0.403-1.105,0.658-1.773,0.766-2.007
		c0.966-2.061,2.385-5.651,4.257-10.771c1.072-2.933,1.513-4.398,1.322-4.398h-0.191h-0.669c-0.403,0-0.785-0.032-1.144-0.096
		c-0.261-0.042-0.436-0.201-0.526-0.477c-0.09-0.277-0.082-0.563,0.027-0.861c0.101-0.276,0.235-0.584,0.402-0.924
		c0.174-0.361,0.351-0.642,0.532-0.844c0.18-0.203,0.402-0.346,0.667-0.431c0.265-0.084,0.473-0.132,0.626-0.143
		c0.153-0.01,0.444-0.027,0.878-0.048c1.969-0.042,3.252-0.064,3.847-0.064c0.106,0,0.294-0.004,0.564-0.015
		C124.724,56.778,124.933,56.772,125.082,56.772z"/>
	<path fill="#333333" d="M134.674,56.422c4.122,0,4.59,4.355,1.404,13.066c-0.59,1.615-1.382,3.198-2.374,4.748
		c-0.993,1.551-2.2,2.906-3.622,4.063c-1.423,1.159-2.813,1.737-4.173,1.737c-1.296,0-2.274-0.287-2.936-0.86
		c-0.661-0.574-1.004-1.407-1.028-2.501c-0.025-1.094,0.1-2.22,0.375-3.378c0.275-1.158,0.704-2.534,1.286-4.127
		c0.466-1.275,0.958-2.475,1.477-3.601c0.518-1.126,1.132-2.268,1.843-3.427c0.71-1.157,1.441-2.139,2.193-2.947
		c0.751-0.808,1.61-1.472,2.576-1.992C132.662,56.683,133.655,56.422,134.674,56.422z M133.998,65.504
		c0.342-0.935,0.593-1.87,0.756-2.805c0.161-0.935,0.141-1.769-0.058-2.501s-0.629-1.1-1.287-1.1h-0.031
		c-1.891,0-4.002,3.187-6.333,9.561c-0.443,1.211-0.766,2.242-0.97,3.091c-0.433,1.53-0.609,2.698-0.534,3.505
		c0.077,0.808,0.6,1.223,1.569,1.243c0.574,0,1.193-0.356,1.856-1.067c0.665-0.712,1.312-1.667,1.941-2.869
		c0.63-1.2,1.188-2.363,1.675-3.49C133.066,67.948,133.539,66.758,133.998,65.504z"/>
	<path fill="#333333" d="M148.153,73.854c-1.391,2.061-2.68,3.521-3.866,4.382c-1.186,0.86-2.501,1.29-3.946,1.29
		c-4.25,0-4.939-3.919-2.073-11.759c0.226-0.615,0.58-1.556,1.063-2.82s0.807-2.119,0.971-2.565c0.909-2.486,1.7-4.185,2.374-5.099
		c0.357-0.51,0.95-0.766,1.778-0.766c0.17,0,0.293,0.069,0.37,0.207c0.077,0.139,0.091,0.346,0.043,0.623
		c-0.048,0.276-0.098,0.515-0.15,0.717c-0.053,0.201-0.133,0.478-0.239,0.828c-0.107,0.351-0.168,0.547-0.184,0.59
		c-0.226,0.85-0.636,2.087-1.23,3.713c-0.594,1.625-1.109,3.091-1.545,4.397c-0.435,1.306-0.816,2.625-1.142,3.951
		c-0.326,1.328-0.378,2.37-0.154,3.123c0.223,0.755,0.75,1.131,1.578,1.131h0.065c0.382,0,0.771-0.122,1.169-0.366
		c0.397-0.244,0.775-0.595,1.134-1.052c0.358-0.456,0.701-0.945,1.03-1.465c0.328-0.521,0.664-1.136,1.01-1.849
		c0.345-0.711,0.646-1.344,0.901-1.896c0.255-0.553,0.545-1.2,0.871-1.944c0.325-0.744,0.578-1.307,0.761-1.688
		c0.129-0.297,0.39-0.893,0.78-1.785c0.39-0.893,0.735-1.662,1.036-2.311c0.301-0.648,0.65-1.343,1.05-2.087
		c0.399-0.743,0.785-1.317,1.155-1.72c0.371-0.404,0.717-0.606,1.035-0.606c0.998,0,1.178,0.872,0.542,2.613l-0.49,1.339
		l-1.34,3.665C151.048,68.639,149.596,71.708,148.153,73.854z"/>
	<path fill="#333333" d="M156.427,68.309c-1.756,4.801-1.709,7.202,0.14,7.202c0.935,0,1.78-0.339,2.54-1.02
		c0.123-0.106,0.3-0.313,0.53-0.622c0.229-0.307,0.454-0.557,0.672-0.749c0.219-0.191,0.434-0.287,0.647-0.287
		c1.168,0,1.515,0.649,1.041,1.944c-0.288,0.787-0.663,1.434-1.125,1.943c-0.707,0.829-1.606,1.53-2.697,2.104
		c-1.092,0.574-2.094,0.861-3.008,0.861c-2.146,0-3.399-0.988-3.76-2.964c-0.361-1.976,0.08-4.663,1.323-8.062
		c0.381-1.041,0.714-1.922,1-2.645c0.284-0.722,0.647-1.551,1.084-2.485c0.438-0.935,0.859-1.709,1.266-2.326
		c0.405-0.616,0.888-1.254,1.448-1.913c0.559-0.658,1.139-1.184,1.74-1.577c0.601-0.393,1.28-0.712,2.039-0.957
		c0.759-0.244,1.573-0.367,2.445-0.367c1.338,0,2.374,0.452,3.106,1.355c0.732,0.903,0.81,2.14,0.235,3.712
		c-0.318,0.871-0.723,1.338-1.213,1.402c-0.384,0.063-0.758,0.096-1.119,0.096c-0.532,0-0.845-0.133-0.938-0.399
		c-0.094-0.265-0.076-0.631,0.053-1.099c0.156-0.488,0.068-0.871-0.266-1.147c-0.336-0.275-0.789-0.414-1.363-0.414
		c-0.616,0-1.183,0.186-1.702,0.558c-0.519,0.373-0.997,0.924-1.435,1.657c-0.438,0.733-0.805,1.429-1.098,2.087
		c-0.294,0.659-0.617,1.466-0.966,2.422L156.427,68.309z"/>
	<path fill="#333333" d="M173.505,57.951l-1.713,4.685c-0.179,0.489-0.457,1.233-0.832,2.231c-0.377,1-0.653,1.742-0.833,2.231
		l-0.046,0.127c-0.142,0.447-0.118,0.669,0.074,0.669c0.552,0,1.292-0.063,2.221-0.191c0.929-0.127,1.545-0.201,1.851-0.223
		c0.177-0.021,0.3-0.037,0.368-0.047c0.067-0.011,0.137-0.043,0.21-0.096c0.071-0.052,0.132-0.144,0.179-0.271l0.082-0.224
		c0.127-0.467,0.398-1.263,0.811-2.39l0.209-0.573c0.272-0.744,0.608-1.738,1.01-2.979c0.401-1.244,0.742-2.248,1.022-3.012
		c0.147-0.404,0.438-0.733,0.871-0.988c0.433-0.254,0.819-0.383,1.16-0.383c0.701,0,1.095,0.186,1.181,0.558
		c0.088,0.372-0.009,0.94-0.289,1.706c-0.078,0.211-0.221,0.573-0.428,1.083c-0.207,0.51-0.366,0.914-0.475,1.211l-0.77,2.104
		c-0.412,1.126-1.074,3.027-1.99,5.705c-0.916,2.676-1.622,4.695-2.12,6.054c-0.055,0.149-0.141,0.399-0.258,0.75
		c-0.118,0.351-0.211,0.622-0.281,0.813c-0.302,0.829-0.702,1.513-1.197,2.056c-0.497,0.542-1.042,0.812-1.636,0.812
		c-0.34,0-0.567-0.132-0.683-0.398c-0.115-0.266-0.125-0.647-0.026-1.147c0.098-0.499,0.201-0.929,0.312-1.291
		c0.111-0.361,0.268-0.818,0.47-1.371c0.155-0.425,0.377-1.004,0.666-1.736c0.29-0.733,0.481-1.228,0.574-1.482l0.128-0.35
		c0.241-0.66,0.191-0.989-0.148-0.989h-0.096c-0.568,0.042-0.863,0.064-0.884,0.064l-2.014,0.191c-0.042,0-0.125-0.005-0.249-0.016
		c-0.124-0.011-0.218-0.016-0.281-0.016c-0.467,0-0.804,0.106-1.009,0.319s-0.389,0.542-0.552,0.988
		c-0.218,0.594-0.528,1.503-0.933,2.725c-0.404,1.222-0.719,2.14-0.944,2.756c-0.49,1.338-1.393,2.008-2.71,2.008
		c-0.935,0-0.986-1.137-0.155-3.41l0.501-1.37c0.155-0.425,0.391-1.042,0.708-1.849c0.316-0.807,0.537-1.381,0.662-1.721
		l0.653-1.785c0.085-0.234,0.22-0.59,0.406-1.068c0.185-0.478,0.32-0.833,0.406-1.067l0.559-1.529
		c0.311-0.85,0.727-2.029,1.246-3.539c0.521-1.508,0.893-2.57,1.118-3.187c0.629-1.721,1.454-2.582,2.473-2.582
		C173.381,56.517,173.854,56.996,173.505,57.951z"/>
	<path fill="#333333" d="M178.129,80.77c-0.594,0-1.03-0.229-1.311-0.686c-0.279-0.457-0.282-1.057-0.01-1.801l0.012-0.031
		c0.171-0.467,0.546-0.957,1.125-1.466c0.579-0.51,1.177-0.765,1.793-0.765c0.488,0,0.831,0.255,1.027,0.765
		c0.196,0.509,0.179,1.083-0.055,1.72c-0.272,0.745-0.648,1.307-1.128,1.69C179.102,80.578,178.618,80.77,178.129,80.77z
		 M185.042,65.09c-0.671,2.125-1.395,4.249-2.171,6.373l-0.07,0.192c-0.171,0.467-0.316,0.834-0.434,1.099
		c-0.119,0.266-0.287,0.579-0.503,0.94c-0.217,0.362-0.458,0.627-0.722,0.797c-0.263,0.17-0.565,0.255-0.905,0.255
		c-0.255,0-0.476-0.021-0.663-0.064c-0.187-0.042-0.325-0.127-0.417-0.254c-0.091-0.128-0.166-0.228-0.224-0.303
		c-0.058-0.074-0.07-0.244-0.036-0.51c0.033-0.265,0.054-0.441,0.065-0.526c0.01-0.084,0.059-0.308,0.149-0.668
		c0.089-0.361,0.143-0.595,0.161-0.701c0.173-0.766,1.025-3.24,2.556-7.426l0.525-1.434c0.124-0.339,0.294-0.818,0.508-1.435
		c0.215-0.616,0.37-1.051,0.462-1.306c0.062-0.17,0.161-0.457,0.298-0.861c0.137-0.403,0.244-0.711,0.322-0.924
		c0.831-2.273,1.873-3.41,3.127-3.41c0.361,0,0.565,0.271,0.611,0.812c0.046,0.542-0.051,1.275-0.295,2.199
		c-0.242,0.924-0.497,1.796-0.763,2.614c-0.268,0.818-0.577,1.721-0.927,2.709C185.346,64.246,185.128,64.856,185.042,65.09z"/>
</g>
</svg>
