<?xml version="1.0" encoding="utf-8"?>
<!-- Generator: Adobe Illustrator 16.0.4, SVG Export Plug-In . SVG Version: 6.00 Build 0)  -->
<!DOCTYPE svg PUBLIC "-//W3C//DTD SVG 1.1//EN" "http://www.w3.org/Graphics/SVG/1.1/DTD/svg11.dtd">
<svg version="1.1" id="Layer_1" xmlns="http://www.w3.org/2000/svg" xmlns:xlink="http://www.w3.org/1999/xlink" x="0px" y="0px"
	 width="500px" height="500px" viewBox="0 0 500 500" enable-background="new 0 0 500 500" xml:space="preserve">
<path fill="none" stroke="#FFFFFF" stroke-width="6" stroke-miterlimit="10" d="M257.368,97.394"/>
<path fill="none" stroke="#FFFFFF" stroke-width="6" stroke-miterlimit="10" d="M257.368,97.394"/>
<path fill="none" stroke="#FFFFFF" stroke-width="6" stroke-miterlimit="10" d="M258.769,98.621"/>
<path fill="none" stroke="#FFFFFF" stroke-width="6" stroke-miterlimit="10" d="M131.757,325.987
	c-80.519-76.67-15.26-281.079,127.012-227.366"/>
<path fill="none" stroke="#FFFFFF" stroke-width="6" stroke-miterlimit="10" d="M97.447,214.363
	c-2.786-41.497,14.816-169.562,159.929-116.828"/>
<path fill="none" stroke="#FFFFFF" stroke-width="6" stroke-miterlimit="10" d="M122.094,120.19
	c13.687-39.992,72.132-67.159,135.274-22.797"/>
<path fill="none" stroke="#FFFFFF" stroke-width="6" stroke-miterlimit="10" d="M147.167,87.888
	c23.313-31.57,65.402-44.012,110.201,9.506"/>
<path fill="none" stroke="#FFFFFF" stroke-width="6" stroke-miterlimit="10" d="M258.515,94.813"/>
<path fill="none" stroke="#FFFFFF" stroke-width="6" stroke-miterlimit="10" d="M197.894,60.583"/>
<path fill="none" stroke="#FFFFFF" stroke-width="6" stroke-miterlimit="10" d="M184.164,61.505c0,0,18.269-12.639,35.991-6.83
	c28.086,9.209,37.213,42.719,37.213,42.719"/>
<path fill="none" stroke="#FFFFFF" stroke-width="6" stroke-miterlimit="10" d="M212.114,52.944c0,0,28.582-7.043,36.857-1.789
	c8.277,5.256,9.543,43.658,9.543,43.658"/>
<path fill="none" stroke="#FFFFFF" stroke-width="6" stroke-miterlimit="10" d="M243.812,49.522c0,0,15.697-2.727,26.941-0.516
	c9.617,1.895-12.238,45.807-12.238,45.807"/>
<path fill="none" stroke="#FFFFFF" stroke-width="6" stroke-miterlimit="10" d="M352.399,334.394
	c18.131-11.486,52.008-213.523-93.213-238.326"/>
<path fill="none" stroke="#FFFFFF" stroke-width="6" stroke-miterlimit="10" d="M259.187,96.067
	c100.004-27.674,198.309,135.658,94.061,239.719"/>
<path fill="none" stroke="#FFFFFF" stroke-width="6" stroke-miterlimit="10" d="M263.036,93.774
	c133.732-50.9,152.053,126.199,132.594,164.768"/>
<path fill="none" stroke="#FFFFFF" stroke-width="6" stroke-miterlimit="10" d="M259.187,96.067
	c47.902-60.648,111.27-3.49,123.117,36.092"/>
<path fill="none" stroke="#FFFFFF" stroke-width="6" stroke-miterlimit="10" d="M263.259,90.491c0,0,21.348-35.73,47.73-31.161
	c21.264,1.554,41.508,27.965,41.508,27.965"/>
<path fill="none" stroke="#FFFFFF" stroke-width="6" stroke-miterlimit="10" d="M269.993,49.058c0,0,27.057-3.204,51.711,12.377"/>
<path fill="none" stroke="#FFFFFF" stroke-width="6" stroke-miterlimit="10" d="M143.94,344.011
	C75.898,267.565,141.255,58.927,258.769,98.62"/>
<path fill="none" stroke="#FFFFFF" stroke-width="6" stroke-miterlimit="10" d="M257.368,97.394
	c-62.637-18.335-121.384,139.076-98.203,230.174"/>
<line fill="none" stroke="#FFFFFF" stroke-width="6" stroke-miterlimit="10" x1="257.368" y1="97.394" x2="256.698" y2="258.079"/>
<path fill="none" stroke="#FFFFFF" stroke-width="6" stroke-miterlimit="10" d="M245.675,247.343
	c-134.029,98.682-196.594,240.672-9.768,52.863C242.919,268.458,244.425,260.286,245.675,247.343z"/>
<path fill="none" stroke="#FFFFFF" stroke-width="6" stroke-miterlimit="10" d="M232.612,303.229
	c-7.592,31.795-50.701,116.543-68.941,128.404c-19.393-10.344-32.688-25.686-42.773-39.84"/>
<path fill="none" stroke="#FFFFFF" stroke-width="6" stroke-miterlimit="10" d="M234.821,303.325
	c0.037,35.873-4.089,93.811-21.021,146.434c-13.923,3.469-35.122-4.83-50.786-18.352"/>
<path fill="none" stroke="#FFFFFF" stroke-width="6" stroke-miterlimit="10" d="M235.442,303.04c0,0,18.77,92.035,23.281,146.76
	c-13.924,3.467-29.713,1.926-44.923-0.041"/>
<path fill="none" stroke="#FFFFFF" stroke-width="6" stroke-miterlimit="10" d="M235.05,301.224
	c72.756,182.441,75.768,135.002,73.771,124.684"/>
<path fill="none" stroke="#FFFFFF" stroke-width="6" stroke-miterlimit="10" d="M305.843,439.341c0,0-14.959,10.787-47.119,10.459"
	/>
<path fill="none" stroke="#FFFFFF" stroke-width="6" stroke-miterlimit="10" d="M247.255,244.179"/>
<path fill="none" stroke="#FFFFFF" stroke-width="6" stroke-miterlimit="10" d="M247.255,244.179
	c11.568,17.482,13.059,27.834,16.41,40.133"/>
<path fill="none" stroke="#FFFFFF" stroke-width="6" stroke-miterlimit="10" d="M394.202,371.101
	c5.246,0.93,10.061,36.105,8.807,49.496c-1.252,13.391-28.271,25.057-54.93,26.385"/>
<path fill="none" stroke="#FFFFFF" stroke-width="6" stroke-miterlimit="10" d="M262.056,250.323l132.146,120.777
	C395.925,485.792,265.597,488.933,262.056,250.323z"/>
</svg>
