<?xml version="1.0" encoding="utf-8"?>
<!-- Generator: Adobe Illustrator 16.0.4, SVG Export Plug-In . SVG Version: 6.00 Build 0)  -->
<!DOCTYPE svg PUBLIC "-//W3C//DTD SVG 1.1//EN" "http://www.w3.org/Graphics/SVG/1.1/DTD/svg11.dtd">
<svg version="1.1" id="Layer_1" xmlns="http://www.w3.org/2000/svg" xmlns:xlink="http://www.w3.org/1999/xlink" x="0px" y="0px"
	 width="500px" height="500px" viewBox="0 0 500 500" enable-background="new 0 0 500 500" xml:space="preserve">
<g id="line_orange">
	<path fill="none" stroke="#FFFFFF" stroke-width="8" stroke-miterlimit="10" d="M254.545,88.104"/>
	<path fill="none" stroke="#FFFFFF" stroke-width="8" stroke-miterlimit="10" d="M180.252,333.949"/>
	<path fill="none" stroke="#FFFFFF" stroke-width="8" stroke-miterlimit="10" d="M254.545,88.104"/>
	<path fill="none" stroke="#FFFFFF" stroke-width="8" stroke-miterlimit="10" d="M255.82,89.224"/>
	<path fill="none" stroke="#FFFFFF" stroke-width="8" stroke-miterlimit="10" d="M180.252,333.949"/>
	<path fill="none" stroke="#FFFFFF" stroke-width="8" stroke-miterlimit="10" d="M140.315,295.979
		C67.107,226.259,126.451,40.376,255.82,89.224"/>
	<path fill="none" stroke="#FFFFFF" stroke-width="8" stroke-miterlimit="10" d="M109.123,194.474
		c-2.54-37.739,13.473-154.193,145.432-106.244"/>
	<path fill="none" stroke="#FFFFFF" stroke-width="8" stroke-miterlimit="10" d="M131.531,108.831
		C143.98,72.468,197.12,47.76,254.545,88.104"/>
	<path fill="none" stroke="#FFFFFF" stroke-width="8" stroke-miterlimit="10" d="M154.331,79.46
		c21.204-28.708,59.475-40.022,100.214,8.645"/>
	<path fill="none" stroke="#FFFFFF" stroke-width="8" stroke-miterlimit="10" d="M255.59,85.76"/>
	<path fill="none" stroke="#FFFFFF" stroke-width="8" stroke-miterlimit="10" d="M200.453,54.632"/>
	<path fill="none" stroke="#FFFFFF" stroke-width="8" stroke-miterlimit="10" d="M187.973,55.471c0,0,16.615-11.495,32.729-6.215
		c25.54,8.373,33.842,38.849,33.842,38.849"/>
	<path fill="none" stroke="#FFFFFF" stroke-width="8" stroke-miterlimit="10" d="M213.394,47.685c0,0,25.993-6.405,33.522-1.626
		c7.53,4.779,8.674,39.701,8.674,39.701"/>
	<path fill="none" stroke="#FFFFFF" stroke-width="8" stroke-miterlimit="10" d="M242.217,44.573c0,0,14.277-2.48,24.492-0.467
		c8.754,1.722-11.119,41.654-11.119,41.654"/>
	<path fill="none" stroke="#FFFFFF" stroke-width="8" stroke-miterlimit="10" d="M340.961,303.629
		c16.486-10.451,47.307-194.175-84.76-216.729"/>
	<path fill="none" stroke="#FFFFFF" stroke-width="8" stroke-miterlimit="10" d="M256.201,86.899
		c90.945-25.169,180.338,123.367,85.523,217.995"/>
	<path fill="none" stroke="#FFFFFF" stroke-width="8" stroke-miterlimit="10" d="M259.695,84.812
		c121.605-46.288,138.271,114.763,120.582,149.831"/>
	<path fill="none" stroke="#FFFFFF" stroke-width="8" stroke-miterlimit="10" d="M256.201,86.899
		c43.559-55.152,101.186-3.172,111.947,32.819"/>
	<path fill="none" stroke="#FFFFFF" stroke-width="8" stroke-miterlimit="10" d="M259.906,81.824c0,0,19.412-32.488,43.387-28.336
		c19.355,1.416,37.748,25.43,37.748,25.43"/>
	<path fill="none" stroke="#FFFFFF" stroke-width="8" stroke-miterlimit="10" d="M266.025,44.146c0,0,24.617-2.907,47.025,11.259"/>
	<path fill="none" stroke="#FFFFFF" stroke-width="8" stroke-miterlimit="10" d="M151.409,312.373
		C89.525,242.854,148.959,53.126,255.82,89.224"/>
	<path fill="none" stroke="#FFFFFF" stroke-width="8" stroke-miterlimit="10" d="M254.545,88.104
		c-56.954-16.671-110.375,126.469-89.301,209.32"/>
	<line fill="none" stroke="#FFFFFF" stroke-width="8" stroke-miterlimit="10" x1="254.545" y1="88.104" x2="253.934" y2="234.221"/>
	<path fill="none" stroke="#FFFFFF" stroke-width="8" stroke-miterlimit="10" d="M243.914,224.462
		c-121.88,89.739-178.774,218.858-8.885,48.075C241.404,243.668,242.769,236.229,243.914,224.462z"/>
	<path fill="none" stroke="#FFFFFF" stroke-width="8" stroke-miterlimit="10" d="M232.037,275.287
		c-6.907,28.914-46.111,105.979-62.687,116.771c-17.64-9.417-29.737-23.362-38.904-36.232"/>
	<path fill="none" stroke="#FFFFFF" stroke-width="8" stroke-miterlimit="10" d="M234.045,275.378
		c0.039,32.618-3.715,85.306-19.116,133.155c-12.66,3.152-31.936-4.397-46.182-16.687"/>
	<path fill="none" stroke="#FFFFFF" stroke-width="8" stroke-miterlimit="10" d="M234.607,275.117c0,0,17.067,83.689,21.174,133.456
		c-12.67,3.152-27.027,1.747-40.852-0.04"/>
	<path fill="none" stroke="#FFFFFF" stroke-width="8" stroke-miterlimit="10" d="M234.246,273.46
		c66.176,165.904,68.907,122.774,67.079,113.377"/>
	<path fill="none" stroke="#FFFFFF" stroke-width="8" stroke-miterlimit="10" d="M298.635,399.056c0,0-13.613,9.809-42.854,9.518"/>
	<path fill="none" stroke="#FFFFFF" stroke-width="8" stroke-miterlimit="10" d="M245.349,221.591"/>
	<path fill="none" stroke="#FFFFFF" stroke-width="8" stroke-miterlimit="10" d="M245.349,221.591
		c10.522,15.893,11.877,25.3,14.928,36.483"/>
	<path fill="none" stroke="#FFFFFF" stroke-width="8" stroke-miterlimit="10" d="M378.971,337.011
		c4.779,0.843,9.156,32.829,8.012,45.008c-1.145,12.178-25.701,22.779-49.957,23.994"/>
	<path fill="none" stroke="#FFFFFF" stroke-width="8" stroke-miterlimit="10" d="M258.812,227.173l120.158,109.838
		C380.537,441.302,262.029,444.163,258.812,227.173z"/>
	<path display="none" opacity="0.5" fill="#FFFFFF" stroke="#FFFFFF" stroke-width="8" stroke-miterlimit="10" d="M481.836,256.197
		c0,110.731-103.428,200.485-231.016,200.485c-127.592,0-231.03-89.754-231.03-200.485c0-110.717,103.438-200.476,231.03-200.476
		C378.408,55.722,481.836,145.48,481.836,256.197z"/>
	<path fill="none" stroke="#FFFFFF" stroke-width="8" stroke-miterlimit="10" d="M396.199,252.984
		c46.824,12.726,76.32,31.258,76.32,51.92c0,17.99-22.389,34.375-59.133,46.704"/>
	<path fill="none" stroke="#FFFFFF" stroke-width="8" stroke-miterlimit="10" d="M102.556,358.896
		c-51.482-12.72-84.393-32.187-84.393-53.992c0-20.109,27.96-38.211,72.656-50.896"/>
	<polyline display="none" fill="none" stroke="#FFFFFF" stroke-width="8" stroke-miterlimit="10" points="396.199,252.984 
		416.258,254.009 428.105,258.074 446.838,262.125 460.553,278.359 470.592,295.979 459.93,316.59 457.863,329.451 441.217,337.011 
		433.387,353.978 415.273,360.925 405.998,363.957 	"/>
	<polyline display="none" fill="none" stroke="#FFFFFF" stroke-width="8" stroke-miterlimit="10" points="90.82,254.009 
		68.813,258.074 60.36,265.75 41.355,269.826 30.944,281.953 22.049,294.594 28.584,315.205 36.717,335.495 52.198,343.848 
		65.35,356.217 87.116,366.206 112.546,368.887 	"/>
</g>
</svg>
