<?xml version="1.0" encoding="utf-8"?>
<!-- Generator: Adobe Illustrator 16.0.4, SVG Export Plug-In . SVG Version: 6.00 Build 0)  -->
<!DOCTYPE svg PUBLIC "-//W3C//DTD SVG 1.1//EN" "http://www.w3.org/Graphics/SVG/1.1/DTD/svg11.dtd">
<svg version="1.1" id="Layer_1" xmlns="http://www.w3.org/2000/svg" xmlns:xlink="http://www.w3.org/1999/xlink" x="0px" y="0px"
	 width="500px" height="500px" viewBox="0 0 500 500" enable-background="new 0 0 500 500" xml:space="preserve">
<path fill="none" stroke="#FFFFFF" stroke-width="8" stroke-linecap="round" stroke-linejoin="round" stroke-miterlimit="10" d="
	M354.217,250.075c-9.455,7.567-21.458,11.269-36.718,12.903c-2.392,0.264-4.854,0.468-7.401,0.625
	c-21.363,1.367-48.469-0.324-82.843-0.975c-51.868-0.996-93.319-2.691-125.76,3.582c-7.786,1.501-14.009,2.583-16.437-2.345
	c-1.238-2.546-1.477-6.69-0.384-13.202c3.208-19.128,37.197-87.651,76.103-90.27c31.419-2.126,55.605,1.945,86.688,1.767
	c5.539-0.026,11.294-0.191,17.362-0.554c40.046-2.391,76.174,5.972,76.967-23.922c0,0,21.831,24.5,23.43,60.364
	C365.727,209.402,365.379,241.122,354.217,250.075z"/>
<path fill="#FFFFFF" stroke="#FFFFFF" stroke-width="5" stroke-linecap="round" stroke-linejoin="round" stroke-miterlimit="10" d="
	M364.531,316.137c-1.513,10.057-13.401,15.532-38.357,20.241c-8.482,1.598-18.227,2.871-28.871,3.81
	c-28.836-29.895-208.823-56.038-213.246-76.321c2.428,4.928,9.651,3.846,17.437,2.345c32.441-6.273,73.892-4.578,125.76-3.582
	c34.375,0.65,61.48,2.342,82.843,0.975C349.339,287.572,366.357,304.001,364.531,316.137z"/>
<path fill="#FFFFFF" stroke="#FFFFFF" stroke-width="5" stroke-linecap="round" stroke-linejoin="round" stroke-miterlimit="10" d="
	M342.34,136.465c6.945,12.921-20.48,21.442-67.902,23.941c-6.07,0.319-11.822,0.528-17.362,0.554
	c-7.809-18.396-84.692-28.729-88.297-46.704c-2.271-11.33,5.836-22.953,27.547-32.685c0,0,8.15,16.143,23.853,21.926
	c22.022,8.112,32.528,6.703,43.535,8.362C290.916,115.963,338.427,129.183,342.34,136.465z"/>
<path fill="none" stroke="#FFFFFF" stroke-width="8" stroke-linecap="round" stroke-linejoin="round" stroke-miterlimit="10" d="
	M312.452,88.521c-0.06,5.371-17.481,24.052-54.127,23.688c-52.123-0.519-60.279-29.181-61-29.637
	c4.793-2.151,12.05-5.116,16.508-6.462c24.63-7.437,72.089,0,72.089,0S312.537,78.332,312.452,88.521z"/>
<path fill="none" stroke="#FFFFFF" stroke-width="8" stroke-linecap="round" stroke-linejoin="round" stroke-miterlimit="10" d="
	M362.531,318.137c-11.391,73.569-73.868,98.2-153.768,92.191c-84.051-6.318-121.352-75.488-116.546-81.882
	c4.806-6.403,27.286,1.252,60.075,6.394c47.856,7.496,103.329,9.022,145.01,5.348c10.645-0.938,20.389-2.212,28.871-3.81
	C351.13,331.669,362.531,318.137,362.531,318.137z"/>
<path fill="#FFFFFF" d="M337.403,97.746c0,0,24.828,5.688,44.851-5.852c20.023-11.538,29.461-9.306,33.002-0.274
	c3.54,9.031-5.895,14.979-13.101,17.816C394.949,112.275,371.601,114.089,337.403,97.746"/>
<path fill="#FFFFFF" d="M367.068,123.698c0,0,12.83,2.357,19.906,11.84c7.078,9.486,11.968,10.348,15.464,6.818
	c3.496-3.531,0.266-8.237-2.549-11.034C397.076,128.527,386.463,122.941,367.068,123.698"/>
</svg>
