<?xml version="1.0" encoding="utf-8"?>
<!-- Generator: Adobe Illustrator 16.0.4, SVG Export Plug-In . SVG Version: 6.00 Build 0)  -->
<!DOCTYPE svg PUBLIC "-//W3C//DTD SVG 1.1//EN" "http://www.w3.org/Graphics/SVG/1.1/DTD/svg11.dtd">
<svg version="1.1" id="Layer_1" xmlns="http://www.w3.org/2000/svg" xmlns:xlink="http://www.w3.org/1999/xlink" x="0px" y="0px"
	 width="1040.232px" height="220px" viewBox="0 0 1040.232 220" enable-background="new 0 0 1040.232 220" xml:space="preserve">
<text transform="matrix(1 0 0 1 1004.5 38.5)" fill="#FFFFFF" font-family="'Helvetica'" font-size="16">TM</text>
<g id="logo_1_">
	<g id="shadow_1_">
		<path id="glad_2_" fill="#1E2B55" d="M720.616,143.553c2.036,3.844,3.349,7.35,5.996,10.512
			c6.353,7.58,14.405,13.144,23.185,16.689c8.786,3.547,18.224,5.121,27.497,5.121c5.977,0,11.885-0.653,17.59-1.844
			c1.779-0.373,3.511-0.839,5.214-1.358c0.892,0.928,1.742,1.477,2.455,1.885c0.788,0.431,1.458,0.71,2.094,0.943
			c1.101,0.397,2.087,0.643,3.085,0.853c1.5,0.315,3.009,0.521,4.603,0.665c1.579,0.146,3.241,0.221,4.95,0.221
			c1.72,0,3.477-0.075,5.255-0.273c1.335-0.146,2.694-0.366,4.078-0.683c1.049-0.256,2.109-0.571,3.206-1.003
			c1.213-0.502,2.537-1.148,3.814-2.141c0.1,0.047,0.205,0.099,0.304,0.146c2.197,0.938,4.315,1.423,6.434,1.761
			c2.116,0.327,4.246,0.461,6.368,0.467c1.995-0.006,4-0.129,5.96-0.385c1.475-0.198,2.938-0.467,4.387-0.846
			c1.096-0.281,2.192-0.637,3.288-1.084c1.646-0.683,3.377-1.593,5.01-3.15c0.695-0.665,1.318-1.487,1.844-2.42
			c2.618,1.738,5.469,3.125,8.428,4.13c4.904,1.679,10.076,2.425,15.167,2.425c3.816-0.006,7.606-0.421,11.274-1.202
			c0.741,0.351,1.47,0.619,2.146,0.84c1.832,0.572,3.517,0.853,5.237,1.05c1.704,0.187,3.423,0.274,5.149,0.274
			c1.872,0,3.727-0.093,5.57-0.291c1.383-0.146,2.753-0.344,4.106-0.612c1.01-0.217,2.011-0.467,3.056-0.787
			c0.771-0.25,1.562-0.542,2.386-0.928c1.218-0.576,2.553-1.317,3.896-2.659c0.407-0.408,0.793-0.911,1.153-1.452
			c0.641,0.402,1.289,0.799,1.96,1.16c5.64,3.097,12.083,4.637,18.459,4.631c3.12,0,6.234-0.373,9.238-1.062
			c2.186,0.98,4.28,1.499,6.368,1.854c2.216,0.362,4.438,0.508,6.66,0.508c2,0,3.996-0.123,5.955-0.379
			c1.475-0.198,2.935-0.467,4.392-0.841c1.095-0.286,2.187-0.63,3.288-1.072c1.639-0.677,3.35-1.567,4.987-3.092
			c0.823-0.757,1.591-1.692,2.171-2.811c0.576-1.12,0.95-2.414,0.979-3.709c1.092-34.516,1.757-64.288,1.757-86.298
			c0-11.029-0.164-20.11-0.543-26.951c-0.188-3.423-0.438-6.287-0.752-8.643c-0.159-1.189-0.344-2.251-0.583-3.26
			c-0.118-0.508-0.258-1.009-0.433-1.533c-0.176-0.513-0.384-1.056-0.706-1.692l-0.008-0.006c-0.777-1.51-2.009-2.834-3.346-3.808
			c-2.03-1.476-4.188-2.228-6.176-2.695c-2.014-0.443-3.932-0.594-5.826-0.594c-3.068,0-6.089,0.408-9.092,1.107
			c-2.246,0.525-4.462,1.22-6.615,2.1c-3.212,1.33-6.305,3.044-8.951,5.506c-1.318,1.225-2.509,2.671-3.395,4.368
			c-0.893,1.686-1.452,3.645-1.441,5.686c0,0.379,0.018,0.758,0.047,1.144v-0.011c0.758,7.837,1.5,18.627,2.129,30.677
			c-3.516,0.419-6.958,1.335-10.193,2.677c-5.018,2.082-9.56,5.149-13.492,9.034c-3.362-5.278-8.513-9.442-14.532-12.259
			c-6.019-2.812-12.936-4.316-20.097-4.328c-5.488,0-11.111,0.898-16.528,2.782c-2.936,1.021-5.786,2.345-8.523,3.943
			c1.563-17.881,3.204-30.811,4.056-37.675v-0.006c0.041-0.356,0.063-0.7,0.063-1.044c0.013-1.737-0.565-3.441-1.404-4.782
			c-0.741-1.189-1.664-2.14-2.585-2.91c-1.645-1.354-3.359-2.228-5.068-2.928c-2.576-1.055-5.248-1.715-8.037-2.181
			c-2.78-0.456-5.662-0.694-8.566-0.7c-2.222,0-4.456,0.14-6.678,0.466c-1.662,0.245-3.33,0.601-4.998,1.121
			c-2.473,0.781-5.033,1.924-7.279,3.925c-0.711-0.683-1.47-1.29-2.227-1.796c-2.537-1.685-5.204-2.666-7.874-3.331
			c-2.683-0.664-5.4-0.991-8.147-0.996c-2.766,0.017-5.554,0.296-8.55,1.37c-1.487,0.537-3.062,1.325-4.508,2.543
			c-0.397,0.327-0.771,0.688-1.115,1.084c-1.02-0.42-2.063-0.816-3.12-1.166c-5.61-1.843-11.606-2.742-17.695-2.742
			c-15.646,0-31.842,5.938-44.377,17.311C721.31,57.495,712.55,74.291,711.226,95.87c-0.187,2.823-0.268,5.57-0.268,8.236
			c0,5.242,1.394,10.16,2.042,14.789L720.616,143.553z"/>
		<g id="l_8_">
			<path fill="#1E2B55" d="M476.6,118.767c-12.3,14.779,4.006,34.959,20.045,18.371c12.825-13.263,27.405-11.109,27.405-11.109
				C514.264,117.017,488.917,103.988,476.6,118.767z"/>
		</g>
		<path id="shadow_2_" fill="#1E2B55" d="M683.443,119c0.151-2.87,0.238-5.768,0.238-8.725c0-17.548-2.665-36.475-7.787-56.129
			c0.385,0.006,0.771,0.006,1.133,0.006c1.412,0,2.624-0.029,3.761-0.094c0.554-0.04,1.086-0.087,1.687-0.168
			c0.303-0.047,0.618-0.105,0.98-0.187c0.379-0.093,0.811-0.204,1.411-0.443l0,0c1.038-0.419,1.836-0.945,2.479-1.476
			c1.199-0.991,1.877-1.936,2.443-2.828c0.975-1.551,1.562-3.021,2.104-4.579c0.788-2.327,1.352-4.846,1.768-7.429
			c0.413-2.585,0.659-5.215,0.659-7.757c0-2-0.129-3.925-0.636-5.984c-0.264-1.039-0.618-2.14-1.312-3.377
			c-0.35-0.606-0.804-1.265-1.405-1.918c-0.611-0.659-1.395-1.312-2.356-1.837c-5.131-2.776-10.965-4.374-17.136-5.424
			c-6.163-1.032-12.679-1.44-18.965-1.44c-6.422,0-12.603,0.425-18.004,1.15c-2.706,0.361-5.214,0.798-7.481,1.311
			c-2.275,0.508-4.307,1.08-6.171,1.832c-1.499,0.594-2.584,1.487-3.344,2.303c-0.663,0.729-1.136,1.422-1.497,2.083
			c-0.63,1.137-1.004,2.163-1.289,3.167c-0.438,1.504-0.683,2.986-0.846,4.514c-0.176,1.529-0.245,3.104-0.245,4.701
			c0,1.773,0.082,3.564,0.28,5.336c0.158,1.325,0.35,2.63,0.63,3.925c0.198,0.956,0.461,1.913,0.774,2.864
			c0.509,1.429,1.096,2.875,2.258,4.443c0.582,0.776,1.342,1.599,2.421,2.351c1.045,0.758,2.483,1.411,4.074,1.634l0,0
			c0.58,0.081,1.211,0.146,2.043,0.233c1.476,0.151,3.557,0.338,6.024,0.548c4.288,15.886,6.247,30.374,6.247,43.029
			c0,8.993-0.979,17.077-2.754,24.111c-2.659,10.557-7.097,18.685-12.604,24.32c-2.77,2.82-5.786,5.039-9.097,6.689
			c-3.308,1.649-6.912,2.734-10.848,3.225c-1.727,0.211-3.413,0.315-5.057,0.315c-6.434-0.013-12.295-1.542-17.718-4.648
			c-4.054-2.341-7.885-5.581-11.402-9.909c-5.262-6.461-9.804-15.367-13.012-26.886c-3.195-11.501-5.052-25.591-5.052-42.249
			c0-2.042,0.03-4.13,0.087-6.24c1.932-0.677,3.692-1.336,5.221-1.959c1.406-0.572,2.583-1.103,3.763-1.75
			c0.595-0.338,1.185-0.688,1.948-1.301c0.379-0.32,0.816-0.693,1.335-1.335c0.269-0.326,0.554-0.712,0.84-1.225
			c0.279-0.514,0.57-1.154,0.77-1.965v0.006c0.151-0.608,0.27-1.196,0.385-1.913c0.356-2.118,0.729-5.191,0.729-8.678
			c0-1.575-0.069-3.243-0.291-4.947c-0.345-2.566-0.917-5.254-2.37-8.001c-0.732-1.365-1.719-2.758-3.072-3.99
			c-1.348-1.225-3.086-2.263-4.987-2.823c-1.065-0.315-1.963-0.444-2.833-0.531c-0.888-0.087-1.75-0.122-2.653-0.122
			c-1.971,0.012-4.135,0.158-6.521,0.42c-4.182,0.455-9.04,1.277-14.185,2.362c-7.727,1.633-16.073,3.866-23.474,6.52
			c-3.691,1.336-7.167,2.782-10.259,4.381c-1.545,0.792-3.01,1.632-4.38,2.555c-1.375,0.927-2.658,1.918-3.842,3.108
			c-0.677,0.676-1.196,1.412-1.575,2.117c-0.578,1.062-0.864,2.053-1.026,2.917c-0.175,0.875-0.221,1.65-0.233,2.368
			c0.012,1.504,0.222,2.823,0.507,4.118c0.507,2.245,1.301,4.455,2.263,6.684c1.464,3.33,3.295,6.601,5.506,9.459
			c1.125,1.429,2.32,2.759,3.901,3.989c0.799,0.607,1.691,1.191,2.823,1.685c1.125,0.496,2.532,0.898,4.198,0.905
			c0.759-0.006,1.208-0.07,1.691-0.123c0.817-0.111,1.621-0.262,2.555-0.461c0.426-0.082,0.886-0.18,1.364-0.291
			c-0.029,1.621-0.052,3.254-0.052,4.853c0,13.764,0.881,26.425,2.578,38.072l3.628,18.545c2.688,10.558,6.216,20.053,10.667,28.427
			c7.267,13.694,17.034,24.438,29.049,31.61c6.008,3.594,12.546,6.287,19.51,8.061c6.963,1.785,14.359,2.648,22.121,2.648
			c4.631,0,9.383-0.305,14.271-0.91c12.211-1.523,23.042-5.098,32.34-10.534c6.969-4.065,13.058-9.156,18.207-15.093
			c7.728-8.899,13.321-19.648,16.966-31.621c1.337-4.394,2.414-8.971,3.254-13.671L683.443,119z"/>
		<g id="l_7_">
			<path fill="#1E2B55" d="M710.626,138.654c18.262-6.043,15.083-31.797-7.302-26.191c-17.898,4.479-29.132-5.062-29.132-5.062
				C677.744,120.231,692.361,144.679,710.626,138.654z"/>
		</g>
		<path id="orange_2_" fill="#1E2B55" d="M152.169,57.786c-1.924-3.003-4.14-5.821-6.678-8.422
			c-5.01-5.121-11.337-9.342-18.809-12.217c-7.476-2.888-16.025-4.433-25.485-4.62c-0.619-0.017-1.237-0.017-1.867-0.017
			c-11.105-0.018-22.488,2.07-30.887,6.077c-6.298,2.998-11.652,7.021-16.032,11.746c-6.573,7.092-11.023,15.688-13.985,25.207
			c-2.957,9.529-4.433,20.051-4.812,31.201c-0.058,1.575-0.082,3.121-0.082,4.644c0,10.706,1.317,20.255,3.954,28.646
			c1.983,6.311,6.13,11.979,9.67,16.954c5.284,7.471,12.463,13.384,21.077,17.258c8.609,3.896,18.488,5.727,29.033,5.721
			c0.186,0,0.378,0,0.56-0.006h0.011c11.875-0.057,22.314-2.052,31.138-5.926c6.608-2.879,12.224-6.823,16.762-11.482
			c0.979-1.009,1.89-2.047,2.782-3.108c-0.011,1.516,2.799,2.717,2.787,3.511v0.151c-0.011,1.458,0.391,2.964,1.109,4.224
			c0.606,1.105,1.416,2.028,2.257,2.787c1.475,1.308,4.432,2.13,5.925,2.753c2.239,0.909,4.421,1.417,6.654,1.76
			c2.223,0.335,4.479,0.485,6.766,0.491c2.17,0,4.346-0.141,6.503-0.443c1.616-0.223,3.226-0.536,4.829-0.979
			c1.195-0.339,2.403-0.748,3.598-1.283c1.797-0.811,3.664-1.903,5.279-3.635c0.793-0.862,1.51-1.9,2.018-3.055
			c0.508-1.161,0.776-2.432,0.776-3.692c0-0.244-0.017-0.5-0.034-0.752l0,0c-1.108-13.63-3.162-28.315-3.476-45.644
			c0.5,0.169,1.026,0.386,1.58,0.672l0,0c1.021,0.525,3.575,0.987,4.812,1.302c1.242,0.32,2.578,0.496,3.907,0.496
			c0.816,0,1.622-0.083,2.397-0.212c-4.251,5.074-6.876,11.507-7.413,18.921c-0.082,1.118-0.128,2.227-0.128,3.312
			c0,5.342,1.027,10.188,2.998,14.453c1.493,3.183,4.923,6.041,7.373,8.479c3.674,3.639,8.281,6.298,13.168,7.967
			c4.898,1.679,12.878,2.426,17.987,2.426c3.814-0.006,7.593-0.414,11.256-1.19c0.758,0.338,1.476,0.613,2.158,0.828
			c1.831,0.571,3.522,0.852,5.237,1.051c1.703,0.197,3.43,0.274,5.156,0.274c1.86,0,3.727-0.101,5.563-0.286
			c1.377-0.14,2.752-0.351,4.107-0.619c1.008-0.21,3.429-0.466,4.466-0.793c0.373-0.122,0.747-0.256,1.138-0.396
			c0.163,0.081,0.32,0.163,0.49,0.231c2.193,0.939,4.309,1.437,6.433,1.762c2.123,0.327,4.24,0.467,6.362,0.467
			c2.001,0,3.99-0.128,5.961-0.385c1.476-0.199,2.933-0.467,4.392-0.839c1.09-0.292,2.175-0.63,3.29-1.091
			c1.645-0.688,3.371-1.592,5.004-3.15c0.292-0.273,0.56-0.606,0.828-0.927c0.216,0.32,0.455,0.636,0.706,0.921
			c0.823,0.934,1.704,1.599,2.537,2.113c1.452,0.886,2.771,1.357,4,1.736c1.85,0.524,3.594,0.799,5.367,0.992
			c1.767,0.186,3.557,0.263,5.364,0.263c1.22,0,2.45-0.054,3.675-0.124c-0.414,0.595-0.806,1.213-1.167,1.843
			c-1.482,2.673-2.433,5.688-2.438,8.925c0,1.749,0.287,3.552,0.934,5.342c0.956,2.683,2.747,5.284,5.243,7.477
			c2.501,2.197,5.651,3.966,9.302,5.331c3.376,1.247,7.29,2.332,11.594,3.125c4.31,0.794,9.022,1.296,13.928,1.296
			c5.249,0,10.748-0.577,16.172-2.072c4.065-1.113,8.083-2.769,11.787-5.079c5.558-3.453,10.306-8.409,13.461-14.686
			c2.764-5.47,4.374-11.908,4.758-19.414c7.174,4.379,15.77,6.794,24.659,6.788c7.028,0.006,14.201-1.498,20.902-4.479
			c6.719-2.986,12.948-7.425,18.337-13.262c1.061-1.155,1.936-2.479,2.507-3.868c0.572-1.395,0.834-4.211,0.834-4.211l-5.552-29.001
			c0-0.089,0.023-0.264,0.023-0.264s-0.921-9.145-2.636-13.589c-2.601-6.648-6.975-12.994-13.325-18.01
			c-3.173-2.496-6.848-4.647-11.012-6.229c-4.153-1.574-8.771-2.566-13.67-2.77c-0.52-0.018-1.044-0.035-1.568-0.035
			c-4.603,0-9.256,0.88-13.531,2.641c-2.922,1.19-5.634,2.788-8.153,4.702c-0.158-0.467-0.356-0.934-0.601-1.365
			c-0.589-1.051-1.354-1.925-2.146-2.648c-1.406-1.247-2.881-2.029-4.275-2.612c-2.095-0.863-4.095-1.307-6.101-1.61
			c-2.006-0.292-4.023-0.419-6.059-0.419c-3.47,0.012-6.94,0.35-10.357,1.208c-1.231,0.32-2.467,0.705-3.71,1.23
			c-2.904-0.724-5.937-1.108-8.992-1.108c-4.63,0-9.32,0.886-13.642,2.647c-4.42,1.796-8.421,4.474-11.874,7.886
			c-2.367-3.465-5.576-6.392-9.424-8.527c-4.911-2.741-10.778-4.147-16.774-4.129c-4.077,0-8.206,0.63-12.271,1.843
			c-0.263-0.123-0.537-0.233-0.806-0.338c-1.883-0.735-3.697-1.132-5.452-1.388c-1.763-0.234-3.471-0.326-5.15-0.333
			c-4.835,0.018-9.466,0.717-13.461,1.744c-1.009,0.257-1.971,0.543-2.91,0.863c-0.699,0.245-1.4,0.514-2.111,0.822
			c-1.043,0.49-3.523,1.009-4.794,2c-0.314,0.25-0.635,0.537-0.968,0.875c-2.064-1.54-4.322-2.881-6.719-4.012
			c-6.024-2.811-12.941-4.316-20.097-4.328c-8.97-0.006-22.571,2.461-30.718,7.628c-1.324-0.921-2.899-1.703-4.636-2.199h0.011
			c-3.522-0.997-8.771-1.627-12.855-1.627c-3.289,0-6.735,0.42-10.141,1.388c-0.205,0.059-0.409,0.141-0.607,0.21
			c-0.764-0.443-1.511-0.788-2.257-1.096c-2.251-0.911-4.456-1.412-6.712-1.762c-2.246-0.35-4.532-0.513-6.842-0.513
			c-1.843,0-6.502,0.11-8.351,0.349c-1.062,0.14-2.129,0.35-3.208,0.589c-0.578-2.094-1.213-4.152-1.942-6.153"/>
	</g>
	<g id="white_2_">
		<path id="r_2_" display="none" fill="#FFFFFF" d="M686.365,123.07c0,0,5.027,1.627,8.374,6.976
			c4.199,6.683,11.751,1.739,8.673-4.07C700.338,120.154,690.267,120.737,686.365,123.07z"/>
		<g id="l_4_">
			<path fill="#FFFFFF" d="M484.642,121.228c-5.687,6.829,2.911,15.469,10.317,7.804c5.926-6.129,13.029-6.882,13.029-6.882
				C503.468,117.975,490.329,114.398,484.642,121.228z"/>
		</g>
		<g id="l_1_">
			<path fill="#FFFFFF" d="M706.49,130.922c8.453-2.789,5.716-14.663-4.623-12.072c-8.283,2.063-14.71-1.062-14.71-1.062
				C688.808,123.725,698.057,133.703,706.49,130.922z"/>
		</g>
		<g id="Glad_2_">
			<path fill="#FFFFFF" d="M773.124,101.942c-4.287,2.781-2.146,14.27,2.483,14.62c4.632,0.344,23.165,0.344,24.239,4.136
				c2.093,7.423-5.734,24.816-27.302,20.745c-31.266-5.901-35.469-87.546,9.677-85.412c19.1,0.904,17.963,26.18,18.317,27.231
				c1.021,2.986,25.914,3.487,25.914-1.773c0-3.126,0.018-39.052-0.694-44.616c-0.799-6.271-18.518-8.015-20.017-2.975
				c-0.806,2.683-1.154,4.993-1.235,6.975c-24.915-20.973-80.647-4.829-84.152,50.972c-3.901,61.962,38.037,77.463,72.219,70.312
				c4.638-0.967,8.9-2.495,12.726-4.514c0,0,0.21,3.616,1.837,5.744c1.64,2.13,21.225,3.25,21.225-2.232
				c0-18.091-0.561-51.738-2.415-61.308C825.163,95.846,777.393,99.154,773.124,101.942z"/>
			<path fill="#FFFFFF" d="M989.496,33.869c-3.174-6.054-28.101-0.333-27.184,9.115c0.95,9.787,1.844,23.865,2.565,39.273
				c-15.146-3.405-33.697,8.387-38.118,32.077c-0.076-8.03-0.176-14.371-0.316-16.009c-1.807-20.197-34.104-29.481-54.659-12.113
				c-9.808,8.293,4.604,28.232,13.452,19.304c10.904-11.011,20.434-10.73,19.869-1.061c-0.076,1.371-0.158,3.663-0.229,6.543
				c-17.047-5.96-40.428,0.007-42.09,22.593c-1.973,26.794,23.876,32.551,42.23,26.059c0.03,0.322,0.064,0.606,0.098,0.829
				c0.655,3.936,21.813,3.126,21.813-0.875c0-2.765-0.012-12.043-0.047-22.595c4.853,22.765,24.397,29.01,39.635,22.875
				c1.652,5.237,23.306,4.396,23.486-0.903C992.156,89.944,992.658,39.928,989.496,33.869z M904.586,143.262
				c-24.162,6.16-25.948-21.416,0.046-16.703C904.568,132.146,904.557,137.995,904.586,143.262z M965.701,103.032
				c0.406,11.92,0.687,23.871,0.786,34.654C944.069,143.811,942.232,100.057,965.701,103.032z"/>
			<path fill="#FFFFFF" d="M836.588,37.724c-1.457,38.387-1.457,85.254-1.049,121.472c0.075,5.983,23.584,5.312,23.584-0.215
				c0-61.57,5.815-106.303,7.659-121.315C867.616,30.912,836.956,28.251,836.588,37.724z"/>
		</g>
		<path id="U_2_" fill="#FFFFFF" d="M684.866,18.267c-16.033-8.748-50.839-6.339-61.237-2.181c-3.634,1.458-3.109,21.94,1.457,22.6
			c1.463,0.204,6.469,0.653,12.941,1.148c19.491,66.05,1.302,111.884-34.082,116.218c-35.478,4.345-64.015-29.43-60.562-102.798
			c7.791-2.559,13.665-4.834,13.915-5.826c0.718-2.916,2.911-18.954-4.386-21.136c-7.278-2.192-50.658,6.917-60.508,16.762
			c-2.916,2.922,5.838,21.147,10.947,21.147c1.312,0,6.678-1.266,13.555-3.109c-4.03,95.525,30.111,141.442,92.87,133.598
			c63.764-7.974,79.271-74.979,55.843-153.094c8.388,0.396,15.059,0.513,16.324,0C685.594,40.138,688.598,20.296,684.866,18.267z"/>
		<g id="Orange_2_">
			<path fill="#FFFFFF" d="M459.039,134.268c-9.15,9.063-22.792,8.598-27.831-1.271c16.721-1.9,38.475-8.515,38.475-18.604
				c0-14.691-12.032-32.1-31.908-32.94c-13.269-0.56-26.385,9.028-30.561,31.442c-0.262-8.487-0.554-17.958-0.904-29.021
				c-0.152-5.027-19.759-4.887-23.101-0.292c-15.624-6.55-35.506,1.592-40.143,29.773c-0.076-7.57-0.175-13.455-0.309-15.029
				c-1.476-16.662-18.383-23.626-35.803-15.793c-2.888-6.608-25.546-2.082-25.581,0.612c-0.384,27.509-0.292,52.292-0.023,76.051
				c0.07,5.983,23.585,5.312,23.585-0.215c0-21.715,0.314-39.561,1.09-55.47c8.51-7.145,14.244-7.331,13.758,0.945
				c-0.484,8.294-0.916,50.472,0.012,56.023c0.66,3.936,23.434,3.126,23.434-0.875c0-2.929,0-13.193-0.041-24.53
				c4.666,21.183,23.392,30.258,38.241,26.263c-0.117,2.88-0.245,5.704-0.373,8.415c-0.368,7.617-12.977,8.551-20.903,0.549
				c-10.824-10.936-34.328,13.508-10.912,22.202c17.2,6.394,58.812,9.606,58.812-33.213c0-7.303,0.146-14.288,0.023-21.638
				c7.051,26.405,43.449,33.512,65.706,9.401C480.274,140.018,462.97,130.373,459.039,134.268z M382.16,140.498
				c-23.632,3.173-21.823-40.791,0.654-34.632C382.744,116.539,382.509,128.594,382.16,140.498z M451.662,112.252
				c0,0-6.929,5.465-22.174,7.249C431.237,103.44,441.77,99.078,451.662,112.252z"/>
			<path fill="#FFFFFF" d="M220.621,84.438c-9.686,6.998,1.523,26.91,9.757,18.605c10.912-11.011,21.859-4.549,21.298,5.121
				c-0.046,0.734-0.093,1.714-0.133,2.868c-17.059-6.018-40.527-0.069-42.196,22.559c-1.983,26.794,23.877,32.551,42.224,26.059
				c0.047,0.315,0.07,0.606,0.105,0.829c0.66,3.936,21.813,3.126,21.813-0.875c0-7.035-0.035-56.251-0.484-61.278
				C271.273,78.863,241.197,69.532,220.621,84.438z M251.14,143.262c-24.156,6.154-25.936-21.438,0.082-16.69
				C251.158,132.041,251.124,137.926,251.14,143.262z"/>
			<path fill="#FFFFFF" d="M205.486,82.088c-6.963-1.995-15.327-1.883-22.535,3.01c0-0.524,0-1.026,0-1.557
				c0-5.53-23.515-6.206-23.585-0.222c-0.268,23.754,0.176,67.78,0.011,76.051c-0.104,6.089,26.479,5.979,25.895-1.266
				c-1.259-15.408-1.924-32.082-2.193-52.244c5.331-3.19,11.128-2.164,15.76,0.245C208.421,111.085,215.705,85.01,205.486,82.088z"
				/>
			<path fill="#FFFFFF" d="M98.257,36.511c-40.317-0.811-55.44,28.098-56.752,66.754c-1.493,43.946,19.007,65.547,53.544,65.331
				c42.831-0.268,56.607-27.749,56.694-65.687C151.836,64.959,138.23,37.314,98.257,36.511z M95.761,144.604
				c-20.483,0.152-29.657-20.646-29.05-41.595c0.625-21.398,11.437-42.965,30.788-42.511c19.142,0.449,29.062,21.405,29.021,42.283
				C126.483,123.653,116.477,144.452,95.761,144.604z"/>
		</g>
	</g>
</g>
</svg>
