<?xml version="1.0" encoding="utf-8"?>
<!-- Generator: Adobe Illustrator 16.0.4, SVG Export Plug-In . SVG Version: 6.00 Build 0)  -->
<!DOCTYPE svg PUBLIC "-//W3C//DTD SVG 1.1//EN" "http://www.w3.org/Graphics/SVG/1.1/DTD/svg11.dtd">
<svg version="1.1" id="Layer_1" xmlns="http://www.w3.org/2000/svg" xmlns:xlink="http://www.w3.org/1999/xlink" x="0px" y="0px"
	 width="960px" height="220px" viewBox="0 0 960 220" enable-background="new 0 0 960 220" xml:space="preserve">
<g id="logo">
	<g>
		<path fill="#FFFFFF" d="M455.396,114.372c-4.517,0-11.944-0.841-21.675-4.849c-1.568-0.646-2.4-2.368-1.931-3.998
			c0.416-1.445,1.737-2.409,3.196-2.409c0.187,0,0.375,0.016,0.564,0.048c0.007,0.001,1.551,0.253,3.832,0.253
			c3.485,0,8.516-0.572,12.687-3.296c4.545-2.964,8.249-4.404,11.325-4.404c3.408,0,6.081,1.75,7.525,4.926
			c1.672,3.652,0.772,8.799-6.777,12.271C462.1,113.854,458.993,114.372,455.396,114.372z"/>
		<path fill="#1E2755" d="M463.394,99.047c2.225,0,3.65,1.116,4.496,2.975c1.716,3.75-2.153,6.496-5.138,7.869
			c-1.264,0.581-3.763,1.152-7.355,1.152c-4.894,0-11.817-1.06-20.407-4.598c0,0,1.757,0.301,4.394,0.301
			c3.865,0,9.621-0.646,14.507-3.837C458.038,100.204,461.13,99.048,463.394,99.047 M463.394,92.391
			C463.394,92.391,463.394,92.391,463.394,92.391c-3.795,0-7.971,1.57-13.142,4.942c-3.489,2.279-7.837,2.757-10.871,2.757
			c-1.964,0-3.29-0.209-3.303-0.211c-0.378-0.064-0.755-0.096-1.127-0.096c-2.917,0-5.545,1.929-6.377,4.82
			c-0.938,3.26,0.743,6.708,3.879,8c10.234,4.214,18.125,5.099,22.942,5.099c4.068,0,7.668-0.625,10.137-1.761
			c9.785-4.5,10.646-11.802,8.41-16.688C471.961,94.896,468.114,92.391,463.394,92.391L463.394,92.391z"/>
	</g>
	<g>
		<path fill="#FFFFFF" d="M616.077,117.812c-3.499,0-6.204-1.798-7.615-5.064c-2.044-4.699,0.634-9.355,6.992-12.144
			c1.934-0.841,4.81-1.301,8.108-1.301c4.619,0,12.227,0.911,22.241,5.248c1.557,0.674,2.357,2.412,1.858,4.034
			c-0.437,1.417-1.744,2.35-3.18,2.35c-0.207,0-0.416-0.02-0.626-0.06c-0.01-0.002-1.808-0.33-4.402-0.33
			c-3.314,0-8.115,0.532-12.158,3.066C622.789,116.438,619.119,117.812,616.077,117.812z"/>
		<path fill="#1E2755" d="M623.562,102.632c4.92,0,12.033,1.125,20.918,4.974c0,0-2.037-0.389-5.026-0.389
			c-3.839,0-9.247,0.642-13.926,3.575c-4.122,2.585-7.198,3.693-9.451,3.693c-2.295,0-3.735-1.149-4.56-3.056
			c-1.644-3.778,2.268-6.457,5.273-7.775C617.998,103.128,620.298,102.632,623.562,102.632 M623.563,95.975L623.563,95.975
			c-3.801,0-7.061,0.544-9.427,1.573c-9.871,4.329-10.865,11.612-8.724,16.536c1.936,4.48,5.825,7.058,10.664,7.058
			c3.737,0,7.864-1.497,12.988-4.71c3.372-2.113,7.511-2.557,10.389-2.557c2.244,0,3.796,0.274,3.812,0.277
			c0.42,0.08,0.838,0.119,1.251,0.119c2.868,0,5.47-1.867,6.343-4.702c0.999-3.244-0.619-6.722-3.733-8.071
			C636.589,96.933,628.497,95.975,623.563,95.975L623.563,95.975z"/>
	</g>
	<g>
		<path fill="#FFFFFF" d="M285.231,150.351c-2.602,0-4.987-0.588-6.717-1.655c-4.253-2.619-4.866-9.338-5.515-16.452
			c-0.109-1.191-0.216-2.375-0.342-3.512c-0.199-1.802-0.345-3.926-0.5-6.175c-0.34-4.964-0.911-13.271-2.434-15.373
			c-0.313-0.434-0.88-1.001-2.248-1.001c-1.544,0-3.13,0.737-3.899,1.465c-0.415,0.391-1.727,2.454-1.499,12.912l0.042,1.642
			c0.234,8.508,0.195,17.219-2.996,22.047c-1.988,3.002-5.287,4.723-9.051,4.723c-4.084,0-8.268-2.042-11.19-5.463
			c-3.237-3.78-4.714-20.757-5.382-34.332c-0.664-13.488-0.916-30.232,1.658-33.406c2.631-3.239,6.77-5.172,11.075-5.172
			c1.801,0,3.537,0.333,5.161,0.99c1.04,0.423,4.065,2.124,5.276,7.832c3.621-0.64,9.168-1.598,12.042-1.981
			c2.056-0.276,3.895-0.411,5.618-0.411c9.298,0,13.583,4.01,17.156,10.031c2.69,4.547,4.48,22.219,5.125,29.606
			c0.985,11.281,1.756,25.39-0.163,28.54C294.128,149.001,289.133,150.351,285.231,150.351z"/>
		<path fill="#1E2755" d="M246.234,73.929c1.333,0,2.665,0.243,3.912,0.747c3.29,1.339,3.669,8.639,3.669,8.639
			s10.969-1.992,15.337-2.574c1.923-0.258,3.638-0.381,5.178-0.381c8.072,0,11.315,3.383,14.294,8.401
			c3.537,5.978,7.26,50.976,4.982,54.716c-1.453,2.374-5.06,3.546-8.376,3.546c-1.908,0-3.72-0.388-4.97-1.159
			c-3.412-2.101-3.537-10.62-4.296-17.496c-0.759-6.865-0.759-19.29-3.547-23.136c-1.234-1.712-3.066-2.376-4.943-2.376
			c-2.354,0-4.78,1.045-6.187,2.376c-2.538,2.387-2.663,9.689-2.538,15.402c0.125,5.71,0.759,16.997-2.403,21.781
			c-1.445,2.183-3.762,3.23-6.274,3.23c-2.989,0-6.255-1.482-8.66-4.296c-4.431-5.175-6.582-59.888-3.669-63.479
			C239.801,75.336,243.021,73.929,246.234,73.929 M246.234,67.272L246.234,67.272c-5.297,0-10.402,2.392-13.658,6.4
			c-1.647,2.031-2.526,4.868-2.766,14.741c-0.142,5.835-0.012,13.268,0.365,20.929c1.521,30.895,4.907,34.848,6.181,36.336
			c3.542,4.145,8.671,6.624,13.716,6.624c4.901,0,9.211-2.264,11.825-6.212c3.731-5.646,3.808-14.564,3.549-23.979
			c-0.016-0.579-0.031-1.123-0.042-1.623c-0.156-7.131,0.404-9.715,0.719-10.591c0.28-0.152,0.68-0.303,1.054-0.36
			c0.922,2.544,1.412,9.683,1.657,13.248c0.157,2.285,0.305,4.442,0.512,6.314c0.121,1.094,0.225,2.237,0.335,3.448
			c0.695,7.616,1.413,15.491,7.086,18.985c2.877,1.775,6.189,2.148,8.46,2.148c4.803,0,11.018-1.768,14.054-6.729
			c0.945-1.552,2.897-4.756,0.643-30.573c-1.009-11.552-2.794-26.31-5.574-31.008c-3.427-5.774-8.482-11.669-20.023-11.669
			c-1.874,0-3.857,0.144-6.064,0.441c-2.226,0.296-6.004,0.928-9.292,1.498c-1.105-2.901-3.015-5.785-6.319-7.13
			C250.621,67.687,248.465,67.272,246.234,67.272L246.234,67.272z"/>
	</g>
	<g>
		<path fill="#FFFFFF" d="M126.36,147.534c-3.212,0-8.948-0.606-11.281-4.667c-0.983-1.738-1.023-3.666-1.052-5.074
			c-0.004-0.218-0.009-0.43-0.017-0.633c-0.08-1.677-0.173-3.374-0.266-5.071c-0.182-3.32-0.371-6.753-0.458-10.162
			c-0.19-7.381-0.315-16.101,0.195-24.797c0.181-3.025,0.456-6.592,1.125-10.149l0.049-0.257c0.377-1.985,0.948-4.986,3.047-6.845
			c3.678-3.24,8.822-5.171,13.765-5.171c2.017,0,4.819,0.348,6.716,2.007c1.455,1.273,2.198,3.205,2.551,5.165
			c7.798-4.55,14.562-5.327,18.268-5.327c4.518,0,8.229,1.088,10.18,2.985c3.734,3.604,8.691,14.38,4.422,21.245
			c-1.289,2.077-3.975,6.403-9.009,6.403l0,0c-1.191,0-2.446-0.253-3.73-0.751c-3.839-1.484-7.287-2.714-10.565-2.714
			c-1.829,0-3.43,0.4-4.895,1.223c-2.025,1.139-4.071,3.837-4.465,5.891c-0.467,2.41-0.305,6.889-0.147,11.221
			c0.305,8.386,0.593,16.307-2.293,20.409c-3.174,4.5-9.39,5.044-11.915,5.069L126.36,147.534z"/>
		<path fill="#1E2755" d="M131.467,78.035c2.007,0,3.655,0.424,4.524,1.184c2.395,2.096,1.526,8.857,1.526,8.857
			c7.996-6.226,15.837-8.196,21.484-8.196c3.871,0,6.711,0.926,7.859,2.043c2.827,2.728,7.174,11.861,3.916,17.101
			c-1.719,2.77-3.489,4.832-6.183,4.832c-0.762,0-1.597-0.165-2.526-0.525c-3.739-1.446-7.784-2.94-11.769-2.94
			c-2.214,0-4.411,0.461-6.525,1.65c-2.686,1.511-5.482,4.931-6.103,8.166c-1.371,7.068,1.799,25.094-1.894,30.342
			c-1.981,2.809-6.111,3.625-9.226,3.656c-0.063,0-0.127,0.001-0.192,0.001c-2.533,0-6.965-0.507-8.395-2.997
			c-0.673-1.191-0.575-2.866-0.629-4.187c-0.239-5.055-0.593-10.11-0.723-15.181c-0.21-8.173-0.289-16.359,0.19-24.517
			c0.195-3.256,0.471-6.524,1.074-9.728c0.315-1.641,0.718-4.062,2.031-5.225C123.364,79.327,127.962,78.035,131.467,78.035
			 M131.467,71.378L131.467,71.378c-5.73,0-11.696,2.242-15.959,5.997c-2.963,2.623-3.689,6.443-4.123,8.726l-0.045,0.239
			c-0.708,3.762-0.995,7.46-1.181,10.585c-0.518,8.828-0.392,17.635-0.2,25.086c0.088,3.457,0.278,6.916,0.462,10.26
			c0.093,1.688,0.186,3.376,0.265,5.065c0.006,0.141,0.009,0.331,0.013,0.525c0.035,1.662,0.086,4.175,1.471,6.624
			c3.19,5.554,10.258,6.377,14.189,6.377l0.261-0.001c6.418-0.064,11.739-2.424,14.597-6.475c3.537-5.025,3.229-13.49,2.902-22.453
			c-0.144-3.952-0.307-8.43,0.087-10.459c0.215-1.117,1.669-2.977,2.832-3.631c0.964-0.542,2.002-0.795,3.262-0.795
			c2.704,0,5.842,1.128,9.367,2.492c1.663,0.645,3.323,0.974,4.928,0.974c6.886,0,10.484-5.796,11.838-7.979
			c2.493-4.009,2.846-9.199,1.018-15.003c-1.295-4.112-3.582-8.097-5.966-10.398c-3.497-3.4-9.322-3.91-12.482-3.91
			c-3.481,0-9.417,0.618-16.369,3.896c-0.564-1.079-1.302-2.074-2.258-2.91C138.258,72.357,135.178,71.378,131.467,71.378
			L131.467,71.378z"/>
	</g>
	<g>
		<path fill="#FFFFFF" d="M222.65,152.713c-2.466,0-5.808-0.717-7.791-2.729c-0.61-0.62-1.05-1.318-1.365-2.019
			c-3.035,0.725-7.308,1.746-9.069,2.174c-1.929,0.474-4.127,0.726-6.348,0.726c-4.108,0-11.844-0.887-17.496-6.825
			c-6.618-6.937-7.523-15.458-2.689-25.325c4.003-8.138,12.718-12.617,24.542-12.617c4.24,0,5.618-0.976,5.792-1.352
			c0.174-0.376,0.014-2.212-2.87-5.619c-0.254-0.143-1.182-0.443-3.065-0.443c-2.205,0-4.995,0.413-7.28,1.077
			c-0.336,0.098-1.013,0.351-1.73,0.619c-2.876,1.076-7.224,2.702-10.963,2.702c-3.399,0-5.266-1.381-6.232-2.54
			c-1.515-1.816-1.987-4.361-1.404-7.566c3.187-17.511,18.815-18.318,23.951-18.583l1.1-0.058c1.657-0.09,3.536-0.192,5.549-0.192
			c5.794,0,14.233,0.754,20.611,7.272c7.571,7.736,7.806,28.821,7.038,48.427c-0.447,11.611-1.266,20.64-7.274,22.468
			C224.788,152.576,223.773,152.713,222.65,152.713L222.65,152.713z M206.13,122.079c-2.459,0-4.514,0.7-5.364,1.827
			c-0.485,0.646-0.665,1.897-0.423,2.97c0.173,0.77,0.475,1.075,0.541,1.109c0.182,0.077,1.148,0.317,3.047,0.317
			c2.589,0,4.624-0.417,5.607-0.759c0.022-0.195,0.045-0.395,0.068-0.596c0.132-1.161,0.353-3.094,0.359-4.284
			C208.997,122.338,207.672,122.079,206.13,122.079z"/>
		<path fill="#1E2755" d="M205.28,77.47c6.021,0,13.045,0.97,18.232,6.271c7.261,7.419,6.616,32.565,6.09,45.968
			c-0.408,10.609-1.279,18.307-4.917,19.415c-0.561,0.173-1.27,0.26-2.035,0.26c-1.951,0-4.268-0.568-5.42-1.737
			c-1.315-1.336-1.183-3.713-1.183-3.713s-9.536,2.273-12.407,2.97c-1.572,0.386-3.489,0.632-5.562,0.632
			c-5.016,0-10.941-1.438-15.085-5.791c-5.895-6.179-6.087-13.45-2.111-21.565c3.989-8.108,13.059-10.753,21.552-10.753
			c10.072,0,11.816-4.998,5.388-12.537c-0.946-1.109-3.074-1.534-5.532-1.534c-2.717,0-5.837,0.52-8.209,1.209
			c-1.893,0.551-7.628,3.188-11.764,3.188c-3.046,0-5.226-1.432-4.361-6.181c2.46-13.517,13.244-15.462,20.848-15.855
			C200.691,77.62,202.907,77.47,205.28,77.47 M203.932,131.631c3.916,0,8.627-0.922,8.799-2.634c0.31-3.157,1.131-8.119-0.096-8.797
			c-1.632-0.895-4.049-1.449-6.504-1.449c-3.133,0-6.327,0.903-8.022,3.152c-1.974,2.631-1.474,7.609,1.228,9.029
			C200.235,131.403,201.985,131.631,203.932,131.631 M205.28,70.812c-2.104,0-4.03,0.104-5.73,0.197l-1.083,0.058
			c-15.531,0.802-24.633,7.972-27.061,21.312c-0.768,4.221-0.054,7.685,2.123,10.294c1.422,1.705,4.101,3.736,8.788,3.736
			c1.513,0,3.068-0.212,4.583-0.539c-5.372,2.461-9.511,6.326-11.993,11.371c-6.87,14.022-2.014,23.563,3.269,29.099
			c6.502,6.832,15.26,7.853,19.901,7.853c2.484,0,4.957-0.285,7.151-0.824c1.336-0.324,4.141-0.996,6.741-1.617
			c0.162,0.192,0.333,0.381,0.516,0.566c3.406,3.457,8.641,3.725,10.165,3.725c1.457,0,2.801-0.187,3.998-0.556
			c8.728-2.657,9.195-14.803,9.607-25.52c0.836-21.332,0.448-42.264-7.985-50.88C220.176,70.812,208.964,70.812,205.28,70.812
			L205.28,70.812z M194.444,103.498c0,0,0.001,0,0.002,0c0.535-0.2,1.267-0.474,1.496-0.542c1.971-0.573,4.464-0.943,6.348-0.943
			c0.51,0,0.893,0.026,1.166,0.057c0.178,0.231,0.335,0.446,0.475,0.645c-0.423,0.033-0.919,0.054-1.497,0.054
			C199.624,102.769,196.952,103.016,194.444,103.498L194.444,103.498z"/>
	</g>
	<g>
		<path fill="#FFFFFF" d="M392.39,149.244c-5.614,0-10.896-2.321-15.277-6.71c-7.169-7.183-11.787-19.932-11.764-32.48
			c0.014-18.325,4.908-40.174,28.146-40.174l0.344,0.001c15.226,0.141,22.248,6.722,25.458,12.217
			c4.722,8.086,3.671,17.744,1.473,21.725c-1.896,3.439-7.845,3.846-21.989,4.007c-3.487,0.04-8.104,0.092-9.994,0.363
			c-0.54,1.792-0.452,7.042,1.782,11.369c0.917,1.776,2.494,3.912,4.804,4.002c0.11,0.004,0.217,0.007,0.322,0.007
			c1.528,0,5.107,0,7.071-9.684c0.993-4.898,7.861-6.193,11.354-6.193c3.289,0,5.603,0.97,6.691,2.805
			c2.263,3.752,1.062,16.233-0.512,21.011c-4.264,12.973-13.037,16.363-25.811,17.629c-0.702,0.069-1.407,0.104-2.098,0.104
			C392.391,149.244,392.391,149.244,392.39,149.244z M395.547,92.369c0.975,0.186,2.01,0.324,2.917,0.324
			c0.395,0,0.689-0.026,0.902-0.058c-0.312-0.586-1.095-1.336-1.644-1.533C396.72,91.546,396.026,91.972,395.547,92.369z"/>
		<path fill="#1E2755" d="M393.495,73.208c0.103,0,0.209,0,0.312,0.001c28.126,0.26,26.951,23.747,24.049,29.005
			c-1.976,3.583-29.156,1.326-31.236,3.198c-3.401,3.092-0.884,21.103,8.623,21.478c0.153,0.006,0.304,0.009,0.453,0.009
			c5.309,0,8.614-3.874,10.333-12.351c0.458-2.259,4.754-3.526,8.092-3.526c1.82,0,3.355,0.377,3.829,1.175
			c1.363,2.26,0.822,13.314-0.811,18.271c-2.518,7.661-6.439,13.72-22.978,15.358c-0.601,0.06-1.19,0.088-1.771,0.088
			c-15.064,0-23.743-19.495-23.713-35.855C368.688,96.269,371.158,73.206,393.495,73.208 M398.463,96.021
			c1.649,0,3.125-0.334,3.843-1.337c1.937-2.717-1.936-6.951-4.693-6.951c-0.308,0-0.602,0.053-0.872,0.166
			c-2.694,1.134-5.742,3.014-5.565,6.785C391.176,94.684,395.166,96.021,398.463,96.021 M393.492,66.551
			c-12.447,0-21.726,5.931-26.837,17.151c-3.111,6.831-4.627,15.451-4.635,26.353c-0.024,13.38,4.975,27.055,12.737,34.832
			c5.019,5.028,11.116,7.686,17.633,7.686c0.8,0,1.617-0.041,2.426-0.121c20.082-1.989,25.636-10.742,28.647-19.904
			c0.95-2.883,1.644-7.34,1.854-11.919c0.39-8.458-1.051-10.848-1.667-11.869c-0.306-0.516-0.71-1.061-1.242-1.584
			c0.492-0.511,0.915-1.09,1.277-1.746c1.489-2.699,2.312-6.698,2.255-10.97c-0.047-3.541-0.739-8.85-3.77-14.04
			c-3.645-6.24-11.513-13.712-28.302-13.867l-0.372-0.002h0h0C393.495,66.551,393.493,66.551,393.492,66.551L393.492,66.551z
			 M391.848,111.299c2.059-0.085,4.765-0.116,6.972-0.141c0.469-0.005,0.929-0.011,1.382-0.017c-0.31,0.646-0.546,1.34-0.697,2.084
			c-0.825,4.069-1.853,5.752-2.392,6.394c-0.393,0.467-0.653,0.623-1.417,0.623c-0.062,0-0.124-0.001-0.186-0.004
			c-0.53-0.021-1.203-0.938-1.397-1.218C392.588,116.813,391.948,113.539,391.848,111.299L391.848,111.299z"/>
	</g>
	<g>
		<path fill="#FFFFFF" d="M326.382,213.637c-16.234,0-23.547-10.505-24.875-19.502c-0.848-5.691,2.206-12.677,8.618-14.03
			c0.365-0.078,0.749-0.118,1.135-0.118c2.428,0,4.491,1.499,6.879,3.234c1.216,0.884,2.474,1.798,3.873,2.596
			c2.233,1.28,4.379,1.955,6.211,1.955c1.117,0,4.517,0,7.306-5.845c2.254-4.74,2.108-32.889-0.797-38.296
			c-2.3,0.652-4.702,0.982-7.154,0.982c-6.755,0-14.058-2.499-21.705-7.426c-5.769-3.716-9.39-10.768-10.196-19.855
			c-1.069-12.056,3.059-25.367,9.815-31.65c3.951-3.67,9.179-5.53,15.541-5.53c5.531,0,10.702,1.435,13.773,2.497
			c1.565-2.77,4.01-6.97,5.422-8.756c1.421-1.792,4.094-2.776,7.529-2.776c3.641,0,8.523,1.125,11.309,4.286
			c2.486,2.833,3.251,15.495,3.904,64.521c0.125,9.371,0.233,17.463,0.41,21.951c0.643,16.288-0.848,24.539-6.135,33.955
			c-6.197,10.999-15.77,16.963-28.456,17.732C327.979,213.612,327.168,213.637,326.382,213.637z M323.859,114.882
			c0.468,0.26,2.083,0.707,4.163,0.707c1.752,0,4.758-0.413,4.909-1.958c0.332-3.333,0.291-5.854,0.138-7.027
			c-1.703-0.805-3.399-1.241-4.861-1.241c-2.039,0-3.654,0.829-4.938,2.535C322.276,109.215,322.851,113.88,323.859,114.882z"/>
		<path fill="#1E2755" d="M347.757,74.446c3.181,0,6.956,1.053,8.812,3.158c3.131,3.568,2.829,67.802,3.485,84.403
			c0.655,16.596-1.009,23.82-5.711,32.193c-4.712,8.363-12.284,15.223-25.754,16.04c-0.756,0.046-1.491,0.069-2.207,0.069
			c-14.341,0-20.463-9.08-21.583-16.66c-0.531-3.562,1.134-9.257,6.012-10.287c0.146-0.031,0.295-0.046,0.447-0.046
			c2.193,0,5.065,3.087,9.102,5.392c2.403,1.377,5.143,2.393,7.862,2.393c3.801,0,7.563-1.985,10.31-7.739
			c2.658-5.589,3.234-43.307-3.223-43.307c-0.188,0-0.383,0.032-0.584,0.098c-2.198,0.726-4.578,1.133-7.148,1.133
			c-5.676,0-12.28-1.984-19.901-6.896c-13.257-8.54-10.241-36.669,0.083-46.27c3.793-3.524,8.648-4.639,13.274-4.639
			c7.977,0,15.273,3.316,15.273,3.316s4.577-8.366,6.532-10.839C343.639,74.95,345.555,74.446,347.757,74.446 M328.022,118.917
			c3.792,0,7.859-1.239,8.222-4.964c0.323-3.245,0.593-9.115-0.676-9.809c-2.242-1.232-4.829-2.11-7.36-2.11
			c-2.777,0-5.486,1.057-7.598,3.861c-2.039,2.707-1.29,9.484,1.124,11.554C322.685,118.271,325.282,118.917,328.022,118.917
			 M347.757,67.789c-4.537,0-8.041,1.394-10.133,4.032c-1.172,1.482-2.898,4.311-4.377,6.853c-3.281-0.942-7.633-1.85-12.213-1.85
			c-7.229,0-13.22,2.16-17.805,6.419c-7.57,7.041-12.038,21.179-10.867,34.384c0.898,10.133,5.057,18.074,11.71,22.359
			c8.192,5.279,16.101,7.957,23.506,7.957c1.642,0,3.265-0.132,4.856-0.394c0.623,2.879,1.237,7.953,1.315,15.178
			c0.104,9.637-0.782,16.421-1.273,17.87c-1.864,3.847-3.597,3.847-4.252,3.847c-1.235,0-2.852-0.537-4.552-1.512
			c-1.249-0.713-2.432-1.573-3.576-2.404c-2.618-1.902-5.325-3.87-8.835-3.87c-0.619,0-1.235,0.064-1.833,0.192
			c-8.295,1.751-12.281,10.593-11.21,17.779c0.854,5.783,3.655,11.137,7.886,15.068c5.117,4.754,12.13,7.268,20.281,7.268
			c0.854,0,1.733-0.027,2.615-0.082c13.88-0.841,24.361-7.374,31.146-19.417c5.641-10.045,7.234-18.724,6.563-35.724
			c-0.175-4.444-0.283-12.517-0.408-21.864c-0.765-57.4-1.781-63.311-4.725-66.667C358.044,69.21,352.124,67.789,347.757,67.789
			L347.757,67.789z M326.151,109.624c0.67-0.769,1.295-0.933,2.058-0.933c0.493,0,1.052,0.086,1.647,0.249
			c-0.001,0.864-0.039,1.941-0.132,3.164c-0.404,0.084-0.972,0.157-1.702,0.157c-0.684,0-1.288-0.063-1.758-0.141
			C326.083,111.313,326.021,110.235,326.151,109.624L326.151,109.624z"/>
	</g>
	<g>
		<path fill="#FFFFFF" d="M538.559,172.13c-0.484,0-0.973-0.005-1.466-0.014c-17.964-0.324-32.813-7.245-44.134-20.572
			c-11.379-13.417-13.173-58.593-11.097-83.587c-4.585-0.082-8.299-1.899-10.482-5.139c-4.306-6.384-5.189-22.745-2.514-28.601
			c0.561-1.233,2.057-4.526,21.165-9.287c8.614-2.146,20.682-4.44,28.713-4.44c3.102,0,5.27,0.341,6.825,1.073
			c2.325,1.095,4.059,3.249,5.153,6.404c2.988,8.606,0.699,24.34-1.168,28.084c-1.764,3.52-6.895,5.494-10.325,6.453
			c-0.66,19.966,0.339,51.539,5.888,58.606c3.283,4.193,7.411,6.318,12.271,6.318c0.6,0,1.215-0.031,1.879-0.096
			c5.917-0.584,10.159-2.202,12.963-4.944c6.059-5.929,8.541-38.191,8.762-58.606c-2.606-1.374-6.537-4.047-7.217-7.93
			c-0.491-2.768-0.919-25.637,6.215-31.575c1.28-1.067,3.061-1.565,5.6-1.565c12.147,0,44.369,12.404,48.946,16.979
			c1.907,1.909,2.592,4.928,2.098,9.232c-0.869,7.556-5.963,20.128-9.981,22.631c-1.786,1.12-4.195,1.69-7.152,1.691
			c-0.551,0-1.09-0.02-1.603-0.053c-0.021,13.739-1.149,59.639-14.846,78.384C576.199,160.953,562.919,172.13,538.559,172.13z"/>
		<path fill="#1E2755" d="M518.744,23.82c2.411,0,4.295,0.232,5.408,0.756c7.5,3.532,4.182,26.465,2.424,29.991
			c-1.769,3.529-10.578,5.294-10.578,5.294s-2.206,52.214,6.501,63.305c5.07,6.476,10.988,7.591,14.889,7.591
			c0.836,0,1.579-0.051,2.201-0.112c5.264-0.52,10.974-1.971,14.968-5.877c9.611-9.406,9.778-63.095,9.778-63.095
			s-6.626-2.647-7.281-6.395c-0.666-3.75-0.229-24.036,5.065-28.444c0.659-0.549,1.861-0.795,3.47-0.795
			c11.314,0,42.732,12.146,46.594,16.005c4.41,4.416-3.755,24.481-7.291,26.684c-1.466,0.919-3.509,1.188-5.393,1.188
			c-2.635,0-4.958-0.524-4.958-0.524s1.196,59.178-14.178,80.221c-6.048,8.276-18.447,19.188-41.805,19.188
			c-0.464,0-0.932-0.004-1.404-0.013c-24.246-0.437-36.874-13.767-41.658-19.399c-10.631-12.534-12.795-59.319-9.935-85.123
			c0,0-1.443,0.365-3.373,0.365c-2.572,0-6.009-0.648-8.048-3.673c-3.568-5.289-4.462-20.507-2.247-25.357
			C473.772,31.47,504.91,23.82,518.744,23.82 M518.744,17.163c-8.332,0-20.712,2.345-29.518,4.539
			c-5.294,1.319-9.976,2.735-13.541,4.097c-5.79,2.211-8.552,4.188-9.853,7.049c-3.114,6.815-2.201,24.438,2.788,31.834
			c2.21,3.279,5.575,5.425,9.688,6.239c-1.639,25.156,0.137,68.659,12.109,82.775c14.908,17.551,33.578,21.514,46.615,21.749
			c0.511,0.009,1.02,0.014,1.524,0.014c27.115,0,41.198-13.732,47.18-21.917c7.095-9.711,11.841-26.975,14.107-51.312
			c0.959-10.299,1.263-19.625,1.347-25.713c2.852-0.2,5.279-0.92,7.235-2.146c5.386-3.354,10.619-17.304,11.512-25.065
			c0.609-5.304-0.416-9.329-3.047-11.963c-3.852-3.849-17.334-8.979-22.952-11.007c-7.194-2.596-20.442-6.951-28.352-6.951
			c-3.316,0-5.846,0.765-7.733,2.339c-4.939,4.112-6.429,12.719-7.119,18.834c-0.667,5.903-0.771,12.881-0.237,15.886
			c0.755,4.318,4.133,7.351,7.119,9.239c-0.105,5.012-0.399,14.066-1.208,23.526c-2.214,25.913-6.076,30.378-6.51,30.802
			c-2.208,2.16-5.898,3.509-10.966,4.01c-0.547,0.053-1.056,0.08-1.547,0.08c-3.837,0-6.993-1.648-9.647-5.038
			c-0.689-0.878-4.151-6.512-5.102-31.875c-0.33-8.818-0.243-17.193-0.131-22.225c3.794-1.344,8.129-3.64,10.02-7.413
			c2.043-4.098,4.785-20.751,1.34-30.673c-1.399-4.033-3.714-6.833-6.879-8.324C524.972,17.604,522.353,17.163,518.744,17.163
			L518.744,17.163z"/>
	</g>
	<g>
		<path fill="#FFFFFF" d="M710.421,154.767c-1.608,0-3.118-0.094-4.486-0.28c-24.464-3.3-35.372-20-40.214-33.429
			c-7.319-20.301-8.818-55.105,0.614-74.559c15.445-31.827,31.528-35.538,54.303-37.567c0.98-0.087,1.968-0.131,2.938-0.131
			c22.644,0,36.955,23.852,39.885,40.789c2.717,15.707-10.303,22.299-13.938,23.205c-0.186,0.046-0.392,0.108-0.613,0.173
			c-1.001,0.294-2.514,0.74-4.322,0.74c-5.063,0-9.485-3.326-13.518-10.168c-2.97-5.046-7.674-5.799-10.214-5.799
			c-4.71,0-9.619,2.431-12.216,6.05c-5.314,7.392-8.208,28.725-1.743,41.057c5.054,9.626,10.521,11.064,13.33,11.064
			c0.758,0,1.338-0.101,1.69-0.185c0.738-0.178,1.388-0.465,1.953-0.812c-3.225-0.904-5.44-2.616-6.615-5.122
			c-1.271-2.737-1.415-8.476-1.013-12.655c0.669-6.959,2.722-11.318,6.1-12.957c3.027-1.466,9.684-1.684,13.382-1.684
			c20.295,0,25.103,4.425,26.162,7.063c2.137,5.362,6.196,19.932-2.182,39.529c-4.104,9.622-14.035,15.752-21.645,19.2
			C729.106,152.345,718.774,154.767,710.421,154.767z"/>
		<path fill="#1E2755" d="M723.575,12.129c20.742,0.001,33.859,22.155,36.604,38.027c2.309,13.343-8.811,18.747-11.463,19.407
			c-1.002,0.25-2.409,0.814-4.131,0.814c-2.837,0-6.526-1.533-10.65-8.53c-3.081-5.237-8.042-7.438-13.081-7.438
			c-5.781,0-11.663,2.899-14.92,7.438c-6.179,8.594-9.04,31.088-1.987,44.543c5.663,10.787,12.25,12.847,16.278,12.847
			c0.996,0,1.835-0.126,2.466-0.277c5.513-1.326,7.5-6.621,7.5-6.621c-3.745,0-8.374-0.658-9.924-3.963
			c-1.539-3.313-1.539-18.747,3.526-21.204c1.813-0.878,6.523-1.351,11.929-1.351c9.722,0,21.689,1.529,23.073,4.976
			c2.133,5.352,5.523,19.022-2.153,36.981c-6.423,15.059-31.39,23.659-46.222,23.659c-1.452,0-2.809-0.083-4.039-0.25
			c-19.857-2.679-31.757-15.249-37.53-31.26c-6.906-19.158-8.633-53.187,0.479-71.978c14.553-29.988,29.333-33.72,51.604-35.704
			C721.828,12.167,722.707,12.129,723.575,12.129 M723.572,5.472c-1.065,0-2.151,0.049-3.229,0.145
			c-23.176,2.065-40.83,6.102-57.003,39.429c-9.8,20.21-8.3,56.204-0.752,77.142c7.287,20.208,22.523,32.85,42.903,35.599
			c1.511,0.205,3.171,0.31,4.929,0.31c16.991,0,44.636-9.628,52.345-27.704c8.863-20.734,4.501-36.319,2.215-42.058
			c-2.069-5.152-8.237-6.906-13.38-7.86c-4.475-0.831-10.263-1.307-15.878-1.307c-7.078,0-12.066,0.678-14.829,2.016
			c-4.499,2.182-7.178,7.442-7.966,15.635c-0.337,3.495-0.354,8.238,0.468,11.817c-1.243-1.429-2.443-3.222-3.554-5.338
			c-5.833-11.126-3.229-30.987,1.498-37.562c2.004-2.794,5.826-4.667,9.515-4.667c3.25,0,5.721,1.399,7.343,4.157
			c4.621,7.839,10.134,11.812,16.389,11.812c2.288,0,4.149-0.548,5.262-0.875c0.175-0.052,0.336-0.102,0.483-0.138
			c6.59-1.642,19.28-10.403,16.408-27c-1.693-9.788-6.546-20.281-12.981-28.07c-8.365-10.126-18.803-15.479-30.183-15.479l0,0
			C723.574,5.472,723.573,5.472,723.572,5.472L723.572,5.472z"/>
	</g>
	<g>
		<path fill="#FFFFFF" d="M780.806,156.961c-2.787,0-7.894-0.486-10.765-3.742c-1.224-1.387-3.272-3.709-4.121-32.91
			c-0.394-13.554-0.451-31.804-0.154-48.819c0.445-25.499,4.266-37.623,5.158-40.123c0.986-8.766,5.616-13.982,12.446-13.982
			c2.172,0,4.506,0.54,6.937,1.603c9.082,3.975,12.964,14.522,13.124,14.969l0.037,0.109c1.553,4.833-1.342,40.202-3.206,60.854
			c-1.258,13.948-2.669,27.869-3.871,38.194c-2.127,18.279-2.783,19.081-3.542,20.009
			C790.534,155.956,784.915,156.961,780.806,156.961C780.806,156.961,780.807,156.961,780.806,156.961z"/>
		<path fill="#1E2755" d="M783.37,20.714c1.705,0,3.589,0.443,5.602,1.324c7.874,3.446,11.327,13.046,11.327,13.046
			c2.216,6.899-7.812,113.224-10.027,115.933c-1.223,1.496-5.371,2.615-9.466,2.615c-3.325,0-6.613-0.739-8.269-2.615
			c-3.693-4.187-3.933-51.47-3.443-79.469c0.489-27.994,5.097-39.415,5.097-39.415C774.935,24.481,778.395,20.714,783.37,20.714
			 M783.37,14.057c-4.472,0-8.482,1.86-11.294,5.239c-2.348,2.822-3.83,6.614-4.411,11.283c-1.914,5.441-4.849,19.161-5.228,40.853
			c-0.298,17.063-0.24,35.371,0.155,48.974c0.253,8.702,0.641,15.772,1.154,21.014c0.892,9.122,2.068,12.041,3.798,14.002
			c3.549,4.023,9.17,4.868,13.261,4.868c1.751,0,10.685-0.244,14.62-5.06c1.352-1.653,2.031-2.483,4.271-21.73
			c1.205-10.352,2.619-24.304,3.88-38.279c5.051-55.974,3.553-60.639,3.06-62.172l-0.035-0.109l-0.038-0.108
			c-0.453-1.259-4.718-12.426-14.923-16.892C788.787,14.69,786.004,14.057,783.37,14.057L783.37,14.057z"/>
	</g>
	<g>
		<path fill="#FFFFFF" d="M857.658,158.559c-1.319,0-5.837-0.185-8.571-2.556c-0.803-0.7-1.355-1.517-1.733-2.33
			c-3.584,0.729-9.195,1.873-11.409,2.331c-2.2,0.457-4.7,0.699-7.226,0.699c-4.685,0-13.511-0.863-19.985-6.646
			c-5.42-4.839-10.365-13.235-3.142-25.751c4.633-8.023,14.667-12.441,28.253-12.441c6.408,0,7.445-1.541,7.451-1.556
			c0.108-0.261-0.169-2.029-3.467-5.319c-0.188-0.124-1.412-0.567-4.16-0.567c-2.69,0-6.082,0.428-8.851,1.116
			c-0.441,0.109-1.224,0.357-2.129,0.645c-3.315,1.053-8.325,2.645-12.529,2.645c-3.217,0-5.614-0.947-7.125-2.814
			c-1.495-1.848-1.922-4.338-1.269-7.401c3.741-17.458,21.749-18.253,27.667-18.515l1.263-0.058
			c1.947-0.091,4.155-0.194,6.511-0.194c6.641,0,16.316,0.735,23.639,7.095c8.932,7.766,9.212,28.988,8.31,48.724
			c-0.519,11.288-1.499,20.774-8.284,22.532C859.94,158.437,858.86,158.559,857.658,158.559L857.658,158.559z M837.735,129.299
			c-2.981,0-5.473,0.725-6.504,1.891c-0.438,0.498-0.621,1.427-0.441,2.257c0.094,0.433,0.325,0.955,0.693,1.12
			c0.24,0.101,1.414,0.375,3.802,0.375c2.954,0,5.492-0.414,6.715-0.802c0.019-0.145,0.038-0.291,0.059-0.439
			c0.135-1.013,0.357-2.678,0.39-3.767C841.105,129.534,839.409,129.299,837.735,129.299z"/>
		<path fill="#1E2755" d="M837.207,83.175c7.083,0,15.348,0.974,21.456,6.279c8.551,7.435,7.781,32.63,7.167,46.059
			c-0.488,10.636-1.498,18.349-5.794,19.461c-0.655,0.169-1.483,0.255-2.378,0.255c-2.3,0-5.035-0.567-6.391-1.742
			c-1.539-1.342-1.394-3.724-1.394-3.724s-11.234,2.283-14.604,2.98c-1.853,0.385-4.109,0.63-6.551,0.63
			c-5.905,0-12.882-1.436-17.769-5.8c-6.938-6.194-7.167-13.476-2.476-21.604c4.691-8.124,15.363-10.776,25.37-10.776
			c11.858,0,13.907-5.006,6.335-12.56c-1.112-1.112-3.617-1.539-6.511-1.539c-3.194,0-6.864,0.521-9.653,1.214
			c-2.234,0.551-8.985,3.191-13.855,3.191c-3.587,0-6.153-1.434-5.139-6.192c2.902-13.541,15.603-15.488,24.559-15.884
			C831.803,83.327,834.412,83.175,837.207,83.175 M835.285,138.271c4.396,0,9.679-0.877,9.866-2.513
			c0.344-3.011,1.27-7.754-0.114-8.399c-1.833-0.857-4.547-1.388-7.302-1.388c-3.515,0-7.097,0.864-8.998,3.016
			c-2.215,2.512-1.653,7.255,1.384,8.618C831.131,138.054,833.098,138.271,835.285,138.271 M837.207,76.518
			c-2.434,0-4.682,0.105-6.666,0.198l-1.252,0.057c-4.488,0.198-11.145,0.793-17.132,3.659c-7.216,3.453-11.934,9.498-13.646,17.481
			c-1.089,5.106,0.452,8.362,1.936,10.195c1.495,1.847,4.394,4.049,9.713,4.049c2.156,0,4.436-0.352,6.61-0.841
			c-6.29,2.365-11.099,6.195-14.061,11.324c-6.509,11.278-5.157,21.896,3.807,29.899c7.298,6.518,17.043,7.491,22.202,7.491
			c2.749,0,5.482-0.266,7.905-0.769c1.788-0.37,5.806-1.189,9.17-1.875c0.324,0.386,0.689,0.761,1.099,1.119
			c3.521,3.053,8.701,3.381,10.766,3.381c1.482,0,2.842-0.157,4.04-0.466c9.722-2.519,10.335-15.86,10.782-25.603
			c0.364-7.969,0.63-17.311-0.166-26.178c-1.124-12.509-4.16-20.756-9.283-25.21C854.864,77.338,844.382,76.518,837.207,76.518
			L837.207,76.518z M823.215,109.509c0.164-0.052,0.325-0.103,0.482-0.153c0.742-0.235,1.583-0.502,1.912-0.584
			c2.537-0.63,5.621-1.021,8.06-1.021c1.218,0,1.968,0.097,2.37,0.172c0.163,0.173,0.312,0.337,0.449,0.493
			c-0.704,0.071-1.576,0.119-2.644,0.119C830.042,108.536,826.487,108.866,823.215,109.509L823.215,109.509z"/>
	</g>
	<g>
		<path fill="#FFFFFF" d="M929.144,159.498c-2.352,0-8.033-0.343-9.989-3.521c-1.25-2.034-1.817-4.208-2.053-6.059
			c-3.117,0.53-7.727,1.118-12.822,1.118c-13.865,0-23.805-4.396-28.745-12.714c-7.189-12.101-6.597-39.347,7.669-48.801
			c5.838-3.868,12.338-5.829,19.318-5.829c5.194,0,9.614,1.106,12.543,2.104c0.891-5.777,1.809-18.331,2.515-27.998
			c1.371-18.76,2.15-27.912,3.365-30.771c1.985-4.679,10.69-4.916,12.415-4.916c3.279,0,11.254,0.614,14.481,6.302
			c3.274,5.782,1.357,47.159,0.381,64.68c-0.853,15.301-1.961,29.739-3.121,40.655c-2.1,19.768-3.597,21.172-4.689,22.198
			C936.997,159.151,931.396,159.498,929.144,159.498L929.144,159.498z M908.169,111.229c-1.333,0-4.601,0.281-6.134,2.88
			c-1.62,2.746-0.749,7.708,0.365,8.452c0.193,0.108,1.252,0.442,3.309,0.442c3.2,0,5.727-0.75,6.601-1.283
			c0.048-0.579,0.103-1.195,0.158-1.83c0.191-2.159,0.528-5.954,0.368-7.622C911.567,111.62,909.854,111.229,908.169,111.229z"/>
		<path fill="#1E2755" d="M933.359,25.438c4.669,0,9.697,1.287,11.587,4.617c4.213,7.439-2.07,119.012-6.813,123.464
			c-2.018,1.894-5.659,2.65-8.989,2.65c-3.381,0-6.441-0.779-7.154-1.938c-2.299-3.739-1.602-8.368-1.602-8.368
			s-7.345,1.843-16.108,1.843c-9.461,0-20.575-2.149-25.884-11.085c-6.72-11.312-5.647-36.18,6.646-44.327
			c6.081-4.029,12.216-5.275,17.479-5.275c8.54,0,14.787,3.281,14.787,3.281c2.632-3.755,4.327-56.391,6.699-61.971
			C924.73,26.624,928.879,25.438,933.359,25.438 M905.709,126.333c4.393,0,9.679-1.318,9.873-3.77
			c0.344-4.506,1.259-11.619-0.114-12.588c-1.832-1.28-4.544-2.074-7.299-2.073c-3.516,0-7.1,1.293-9.001,4.518
			c-2.216,3.755-1.654,10.883,1.384,12.911C901.558,126.006,903.522,126.333,905.709,126.333 M933.359,18.781
			c-3.768,0-12.819,0.677-15.479,6.946c-1.422,3.344-2.158,11.823-3.62,31.826c-0.544,7.434-1.279,17.496-2.001,23.963
			c-2.745-0.652-6.054-1.155-9.737-1.155c-7.646,0-14.764,2.147-21.156,6.382c-15.979,10.589-16.69,39.813-8.693,53.277
			c5.574,9.383,16.503,14.343,31.607,14.343c3.79,0,7.33-0.313,10.236-0.695c0.404,1.338,0.983,2.716,1.803,4.049
			c2.736,4.445,9.21,5.108,12.825,5.108c3.287,0,9.418-0.579,13.546-4.454c2.108-1.979,3.646-4.738,5.722-24.273
			c1.165-10.969,2.278-25.467,3.134-40.821c0.858-15.407,1.369-30.102,1.438-41.378c0.118-19.335-0.994-22.917-2.244-25.125
			C947.854,21.693,941.521,18.781,933.359,18.781L933.359,18.781z M904.622,119.632c-0.239-1.171-0.184-3.046,0.279-3.83
			c0.681-1.154,2.674-1.244,3.269-1.244c0.473,0,0.928,0.043,1.348,0.115c-0.066,1.495-0.225,3.335-0.34,4.637
			c-0.891,0.198-2.104,0.365-3.469,0.365C905.282,119.675,904.92,119.658,904.622,119.632L904.622,119.632z"/>
	</g>
	<g>
		<path fill="#FFFFFF" d="M52.947,150.228c-1.012,0-2.04-0.026-3.054-0.078c-11.801-0.601-23.024-6.731-30.792-16.819
			C10.556,122.234,2,101.268,9.762,64.4c6.324-30.036,21.604-44.661,33.309-51.64c12.801-7.633,24.075-8.025,24.548-8.038
			c0.408-0.006,0.766-0.008,1.122-0.008c16.058,0,28.144,4.903,35.921,14.572c11.681,14.523,13.543,38.971,5.692,74.738
			c-10.734,48.9-40.572,56.203-57.405,56.203C52.949,150.228,52.948,150.228,52.947,150.228z M67.991,47.977
			c-0.559,0-1.143,0.021-1.735,0.065c-10.234,0.743-17.666,8.905-22.721,24.951c-2.004,6.376-1.252,16.708,1.61,22.106
			c1.571,2.959,3.983,5.237,6.791,6.412c1.421,0.598,2.997,0.899,4.688,0.899c5.022,0,10.81-2.718,14.401-6.763
			c9.861-11.142,12.239-32.683,8.567-40.837C77.521,50.211,73.726,47.977,67.991,47.977z"/>
		<path fill="#1E2755" d="M68.741,8.043c43.735,0,48.864,37.424,38.363,85.268c-10.009,45.596-36.855,53.588-54.156,53.588
			c-0.994,0-1.959-0.026-2.885-0.074c-23.079-1.175-48.805-25.874-37.043-81.74C24.781,9.223,67.709,8.05,67.709,8.05
			C68.056,8.045,68.399,8.043,68.741,8.043 M56.624,105.739c6.372,0,12.973-3.47,16.89-7.882
			c10.969-12.393,20.611-53.21-5.522-53.208c-0.637,0-1.297,0.024-1.978,0.074C51.519,45.774,44.373,59.255,40.36,71.992
			c-2.132,6.785-1.638,18.097,1.844,24.666c1.844,3.472,4.8,6.397,8.446,7.923C52.554,105.381,54.576,105.739,56.624,105.739
			 M68.741,1.386c-0.371,0-0.743,0.002-1.119,0.007l-0.047,0.001l-0.047,0.001c-0.509,0.014-12.624,0.434-26.162,8.506
			C29.09,17.221,13.077,32.499,6.505,63.714c-8.023,38.108,0.987,59.996,9.959,71.647c8.363,10.86,20.486,17.462,33.26,18.113
			c1.071,0.055,2.155,0.083,3.223,0.083c12.628,0,24.33-3.822,33.842-11.053c13.008-9.889,22.03-25.959,26.817-47.765
			c8.081-36.815,6.003-62.178-6.351-77.538C98.815,6.707,85.857,1.386,68.741,1.386L68.741,1.386z M56.624,99.082
			c-1.245,0-2.387-0.214-3.394-0.638c-2.078-0.87-3.951-2.658-5.146-4.909c-2.468-4.656-3.124-13.975-1.372-19.547
			c6.832-21.686,16.581-22.394,19.785-22.627c0.514-0.038,1.017-0.057,1.496-0.057c0,0,0.001,0,0.001,0
			c3.15,0,6.63,0.579,8.563,4.871c4.483,9.954-1.832,30.269-8.027,37.269C65.585,96.761,60.687,99.082,56.624,99.082L56.624,99.082z
			"/>
	</g>
</g>
</svg>
