<?xml version="1.0" encoding="utf-8"?>
<!-- Generator: Adobe Illustrator 16.0.4, SVG Export Plug-In . SVG Version: 6.00 Build 0)  -->
<!DOCTYPE svg PUBLIC "-//W3C//DTD SVG 1.1//EN" "http://www.w3.org/Graphics/SVG/1.1/DTD/svg11.dtd">
<svg version="1.1" id="Layer_1" xmlns="http://www.w3.org/2000/svg" xmlns:xlink="http://www.w3.org/1999/xlink" x="0px" y="0px"
	 width="231px" height="60px" viewBox="0 0 231 60" enable-background="new 0 0 231 60" xml:space="preserve">
<g enable-background="new    ">
	<path fill="#FFFFFF" d="M124.041,13.125h4.852l2.781,7.01l0.98,2.752h0.109l0.98-2.752l2.672-7.01h4.854V30h-4.362v-4.985
		c0-0.432,0.022-0.908,0.067-1.428c0.045-0.519,0.096-1.051,0.149-1.597c0.056-0.545,0.119-1.077,0.19-1.597
		c0.072-0.519,0.138-0.986,0.191-1.402h-0.109l-1.473,3.946l-2.453,5.686h-1.744l-2.453-5.686l-1.418-3.946h-0.108
		c0.055,0.416,0.118,0.883,0.19,1.402c0.072,0.52,0.137,1.052,0.19,1.597c0.054,0.545,0.104,1.078,0.149,1.597
		c0.045,0.52,0.067,0.996,0.067,1.428V30h-4.307V13.125H124.041z"/>
	<path fill="#FFFFFF" d="M145.412,21.692c0-1.419,0.236-2.678,0.709-3.777s1.117-2.025,1.936-2.778
		c0.818-0.752,1.769-1.328,2.85-1.726c1.08-0.398,2.23-0.597,3.447-0.597c1.254,0,2.354,0.221,3.299,0.662
		c0.945,0.441,1.734,0.965,2.371,1.57l-2.562,2.752c-0.437-0.363-0.877-0.645-1.321-0.844c-0.445-0.199-1.021-0.298-1.73-0.298
		c-0.6,0-1.154,0.113-1.663,0.337c-0.509,0.225-0.954,0.545-1.335,0.96c-0.383,0.416-0.678,0.926-0.887,1.532
		s-0.313,1.29-0.313,2.051c0,1.592,0.372,2.812,1.118,3.661c0.744,0.848,1.916,1.272,3.516,1.272c0.256,0,0.506-0.026,0.75-0.078
		c0.246-0.052,0.449-0.129,0.613-0.233v-2.336h-2.617v-3.635h6.762v8.048c-0.328,0.26-0.715,0.516-1.158,0.766
		c-0.446,0.251-0.928,0.472-1.444,0.662c-0.519,0.19-1.078,0.346-1.678,0.467c-0.601,0.121-1.208,0.182-1.826,0.182
		c-1.218,0-2.362-0.178-3.435-0.532c-1.073-0.354-2.01-0.891-2.809-1.609c-0.8-0.718-1.432-1.618-1.895-2.7
		C145.645,24.388,145.412,23.129,145.412,21.692z"/>
	<path fill="#FFFFFF" d="M174.852,16.863h-4.688v-3.738h14.064v3.738h-4.688V30h-4.689V16.863z"/>
	<path fill="#FFFFFF" d="M187.828,13.125h4.688v6.283h5.289v-6.283h4.688V30h-4.688v-6.698h-5.289V30h-4.688V13.125z"/>
	<path fill="#FFFFFF" d="M206.637,21.692c0-1.419,0.236-2.678,0.709-3.777s1.108-2.025,1.908-2.778
		c0.799-0.752,1.723-1.328,2.768-1.726s2.14-0.597,3.285-0.597c1.125,0,2.148,0.221,3.065,0.662s1.694,0.965,2.331,1.57
		l-2.562,2.752c-0.436-0.363-0.863-0.645-1.281-0.844c-0.418-0.199-0.918-0.298-1.5-0.298c-0.526,0-1.03,0.113-1.512,0.337
		c-0.481,0.225-0.899,0.545-1.254,0.96c-0.355,0.416-0.637,0.926-0.846,1.532s-0.312,1.29-0.312,2.051
		c0,1.592,0.35,2.812,1.049,3.661c0.699,0.848,1.621,1.272,2.768,1.272c0.689,0,1.286-0.125,1.786-0.376
		c0.499-0.25,0.938-0.575,1.321-0.974l2.562,2.7c-0.763,0.831-1.636,1.454-2.616,1.869c-0.981,0.416-2.018,0.623-3.107,0.623
		c-1.163,0-2.264-0.178-3.299-0.532s-1.944-0.891-2.727-1.609c-0.781-0.718-1.398-1.618-1.854-2.7
		C206.863,24.388,206.637,23.129,206.637,21.692z"/>
</g>
<g enable-background="new    ">
	<path fill="#FFFFFF" d="M123.55,36.344h3.917c0.641,0,1.23,0.061,1.771,0.178c0.539,0.119,1.006,0.32,1.396,0.605
		c0.394,0.285,0.701,0.656,0.927,1.112s0.338,1.024,0.338,1.7c0,0.642-0.112,1.199-0.338,1.674s-0.537,0.869-0.935,1.184
		s-0.867,0.546-1.407,0.694c-0.539,0.147-1.123,0.223-1.753,0.223h-1.853v4.272h-2.064L123.55,36.344L123.55,36.344z
		 M127.307,42.059c1.709,0,2.562-0.705,2.562-2.119c0-0.734-0.213-1.242-0.641-1.521S128.16,38,127.307,38h-1.691v4.061h1.691
		V42.059z"/>
	<path fill="#FFFFFF" d="M134.089,36.344h7.015v1.744h-4.949v2.975h4.185v1.744h-4.185v3.437h5.128v1.743h-7.192L134.089,36.344
		L134.089,36.344z"/>
	<path fill="#FFFFFF" d="M150.021,47.986l-2.51-4.559h-1.781v4.559h-2.064V36.344h3.936c0.604,0,1.168,0.061,1.689,0.178
		c0.521,0.119,0.975,0.312,1.354,0.58c0.381,0.267,0.681,0.619,0.898,1.059c0.221,0.439,0.33,0.984,0.33,1.638
		c0,0.892-0.211,1.608-0.633,2.154s-0.981,0.938-1.682,1.175l2.776,4.859H150.021L150.021,47.986z M145.73,41.791h1.656
		c0.795,0,1.402-0.166,1.823-0.498c0.422-0.332,0.633-0.831,0.633-1.496c0-0.676-0.211-1.145-0.633-1.406
		c-0.421-0.261-1.028-0.392-1.823-0.392h-1.656V41.791z"/>
	<path fill="#FFFFFF" d="M162.501,48.2c-0.76,0-1.454-0.14-2.083-0.419c-0.629-0.278-1.169-0.682-1.62-1.211
		c-0.45-0.527-0.801-1.166-1.05-1.913c-0.25-0.748-0.375-1.597-0.375-2.546c0-0.938,0.125-1.777,0.375-2.52
		c0.249-0.742,0.6-1.367,1.05-1.878c0.451-0.511,0.991-0.901,1.62-1.176c0.629-0.272,1.323-0.409,2.083-0.409
		c0.759,0,1.454,0.137,2.083,0.409s1.172,0.665,1.629,1.176s0.811,1.136,1.059,1.878c0.25,0.741,0.375,1.581,0.375,2.52
		c0,0.949-0.125,1.798-0.375,2.546c-0.248,0.747-0.602,1.386-1.059,1.913c-0.457,0.529-1,0.933-1.629,1.211
		C163.955,48.061,163.26,48.2,162.501,48.2z M162.501,46.402c0.463,0,0.878-0.103,1.246-0.303c0.368-0.203,0.683-0.49,0.942-0.863
		c0.262-0.375,0.463-0.825,0.605-1.354c0.143-0.528,0.214-1.118,0.214-1.771c0-1.305-0.271-2.329-0.811-3.07
		c-0.54-0.742-1.272-1.113-2.198-1.113s-1.659,0.371-2.198,1.113c-0.54,0.741-0.811,1.766-0.811,3.07
		c0,0.652,0.071,1.242,0.214,1.771s0.344,0.979,0.604,1.354c0.262,0.373,0.576,0.66,0.944,0.863
		C161.623,46.301,162.038,46.402,162.501,46.402z"/>
	<path fill="#FFFFFF" d="M176.333,47.986l-2.511-4.559h-1.779v4.559h-2.064V36.344h3.935c0.604,0,1.168,0.061,1.69,0.178
		c0.521,0.119,0.974,0.312,1.354,0.58c0.38,0.267,0.679,0.619,0.898,1.059s0.33,0.984,0.33,1.638c0,0.892-0.211,1.608-0.633,2.154
		s-0.982,0.938-1.683,1.175l2.776,4.859H176.333L176.333,47.986z M172.043,41.791h1.655c0.795,0,1.403-0.166,1.825-0.498
		c0.42-0.332,0.631-0.831,0.631-1.496c0-0.676-0.211-1.145-0.631-1.406c-0.422-0.261-1.03-0.392-1.825-0.392h-1.655V41.791z"/>
	<path fill="#FFFFFF" d="M185.875,44.835h-3.916l-0.908,3.151h-2.101l3.792-11.644h2.421l3.792,11.644h-2.172L185.875,44.835z
		 M185.412,43.215l-0.409-1.424c-0.19-0.617-0.371-1.252-0.543-1.904s-0.341-1.3-0.507-1.939h-0.072
		c-0.166,0.652-0.332,1.302-0.498,1.949c-0.166,0.646-0.344,1.277-0.533,1.896l-0.41,1.424L185.412,43.215L185.412,43.215z"/>
	<path fill="#FFFFFF" d="M190.396,36.344h2.119l3.631,6.551l1.192,2.476h0.071c-0.049-0.604-0.104-1.255-0.169-1.949
		s-0.099-1.366-0.099-2.021v-5.057h1.977v11.643h-2.118l-3.632-6.551l-1.192-2.475h-0.071c0.047,0.617,0.104,1.264,0.17,1.939
		c0.063,0.677,0.098,1.342,0.098,1.994v5.092h-1.977V36.344L190.396,36.344z"/>
	<path fill="#FFFFFF" d="M201.471,42.2c0-0.949,0.143-1.802,0.428-2.556c0.283-0.752,0.677-1.391,1.175-1.912
		c0.497-0.522,1.086-0.92,1.762-1.193c0.679-0.271,1.407-0.409,2.19-0.409c0.402,0,0.775,0.042,1.121,0.125
		c0.345,0.083,0.658,0.192,0.943,0.329c0.284,0.137,0.545,0.294,0.783,0.473c0.236,0.178,0.445,0.361,0.623,0.551l-1.141,1.283
		c-0.297-0.285-0.619-0.518-0.97-0.695s-0.799-0.268-1.345-0.268c-0.521,0-0.994,0.1-1.415,0.295
		c-0.422,0.195-0.783,0.475-1.086,0.836c-0.304,0.362-0.537,0.805-0.703,1.326c-0.166,0.522-0.25,1.109-0.25,1.764
		c0,1.328,0.302,2.369,0.899,3.123s1.486,1.131,2.66,1.131c0.332,0,0.646-0.045,0.943-0.133c0.297-0.09,0.541-0.218,0.73-0.384
		v-2.51h-2.207v-1.69h4.059v5.127c-0.404,0.392-0.932,0.721-1.584,0.987s-1.383,0.4-2.189,0.4c-0.771,0-1.489-0.132-2.153-0.392
		c-0.666-0.262-1.24-0.647-1.728-1.158c-0.486-0.51-0.867-1.139-1.141-1.887C201.605,44.018,201.471,43.162,201.471,42.2z"/>
	<path fill="#FFFFFF" d="M213.255,36.344h7.015v1.744h-4.949v2.975h4.185v1.744h-4.185v3.437h5.128v1.743h-7.192L213.255,36.344
		L213.255,36.344z"/>
</g>
<g enable-background="new    ">
	<path fill="#FFFFFF" stroke="#000000" stroke-width="2" stroke-linecap="round" stroke-miterlimit="10" d="M8.454,43.956
		c2.511-2.331,4.854-4.529,7.03-6.592c2.175-2.062,4.07-4.003,5.684-5.819c1.615-1.816,2.881-3.542,3.801-5.18
		c0.919-1.637,1.379-3.173,1.379-4.608c0-1.928-0.482-3.352-1.446-4.271c-0.965-0.918-2.232-1.379-3.801-1.379
		c-1.436,0-2.703,0.415-3.801,1.244c-1.1,0.831-2.165,1.761-3.196,2.792l-6.188-6.189c1.12-1.166,2.22-2.187,3.296-3.061
		c1.077-0.875,2.208-1.591,3.397-2.152c1.188-0.561,2.444-0.976,3.767-1.245c1.322-0.269,2.769-0.404,4.339-0.404
		c2.153,0,4.125,0.336,5.92,1.009c1.793,0.673,3.34,1.615,4.642,2.825c1.3,1.211,2.309,2.681,3.027,4.406
		c0.717,1.727,1.076,3.645,1.076,5.751c0,1.705-0.37,3.442-1.11,5.214c-0.74,1.772-1.693,3.531-2.859,5.28
		c-1.167,1.749-2.479,3.454-3.935,5.113c-1.458,1.659-2.904,3.229-4.339,4.709c1.076-0.135,2.297-0.258,3.666-0.37
		c1.368-0.111,2.523-0.168,3.464-0.168h7.131v9.687H8.454V43.956z"/>
	<path fill="#FFFFFF" stroke="#000000" stroke-width="2" stroke-linecap="round" stroke-miterlimit="10" d="M60.521,51.356
		c-2.377,0-4.53-0.482-6.458-1.446c-1.929-0.964-3.599-2.389-5.012-4.272c-1.413-1.883-2.5-4.215-3.263-6.996
		c-0.763-2.78-1.144-5.986-1.144-9.619s0.38-6.828,1.144-9.586c0.762-2.758,1.85-5.045,3.263-6.861s3.083-3.184,5.012-4.104
		c1.928-0.919,4.081-1.379,6.458-1.379c2.332,0,4.474,0.46,6.424,1.379c1.951,0.919,3.633,2.299,5.045,4.137
		c1.413,1.839,2.5,4.126,3.263,6.861c0.762,2.736,1.144,5.92,1.144,9.553s-0.382,6.839-1.144,9.619
		c-0.763,2.781-1.85,5.113-3.263,6.996c-1.413,1.884-3.095,3.309-5.045,4.272S62.853,51.356,60.521,51.356z M60.521,42.477
		c0.673,0,1.312-0.168,1.917-0.505c0.605-0.336,1.132-0.997,1.581-1.984c0.448-0.986,0.807-2.354,1.076-4.104
		s0.404-4.036,0.404-6.861s-0.135-5.09-0.404-6.795c-0.269-1.704-0.628-3.027-1.076-3.969c-0.449-0.941-0.976-1.558-1.581-1.85
		c-0.605-0.292-1.244-0.438-1.917-0.438s-1.312,0.146-1.917,0.438c-0.605,0.292-1.133,0.908-1.581,1.85
		c-0.449,0.942-0.807,2.265-1.076,3.969c-0.27,1.705-0.404,3.97-0.404,6.795s0.134,5.112,0.404,6.861
		c0.269,1.749,0.627,3.117,1.076,4.104c0.448,0.987,0.976,1.648,1.581,1.984C59.209,42.309,59.848,42.477,60.521,42.477z"/>
	<path fill="#FFFFFF" stroke="#000000" stroke-width="2" stroke-linecap="round" stroke-miterlimit="10" d="M96.847,51.356
		c-2.377,0-4.53-0.482-6.458-1.446c-1.929-0.964-3.599-2.389-5.012-4.272c-1.413-1.883-2.5-4.215-3.263-6.996
		c-0.763-2.78-1.144-5.986-1.144-9.619s0.38-6.828,1.144-9.586c0.762-2.758,1.85-5.045,3.263-6.861s3.083-3.184,5.012-4.104
		c1.928-0.919,4.081-1.379,6.458-1.379c2.332,0,4.474,0.46,6.424,1.379c1.951,0.919,3.633,2.299,5.045,4.137
		c1.413,1.839,2.5,4.126,3.263,6.861c0.762,2.736,1.144,5.92,1.144,9.553s-0.382,6.839-1.144,9.619
		c-0.763,2.781-1.85,5.113-3.263,6.996c-1.413,1.884-3.095,3.309-5.045,4.272S99.178,51.356,96.847,51.356z M96.847,42.477
		c0.673,0,1.312-0.168,1.917-0.505c0.605-0.336,1.132-0.997,1.581-1.984c0.448-0.986,0.807-2.354,1.076-4.104
		s0.404-4.036,0.404-6.861s-0.135-5.09-0.404-6.795c-0.269-1.704-0.628-3.027-1.076-3.969c-0.449-0.941-0.976-1.558-1.581-1.85
		c-0.605-0.292-1.244-0.438-1.917-0.438s-1.312,0.146-1.917,0.438c-0.605,0.292-1.133,0.908-1.581,1.85
		c-0.449,0.942-0.807,2.265-1.076,3.969c-0.27,1.705-0.404,3.97-0.404,6.795s0.134,5.112,0.404,6.861
		c0.269,1.749,0.627,3.117,1.076,4.104c0.448,0.987,0.976,1.648,1.581,1.984C95.535,42.309,96.174,42.477,96.847,42.477z"/>
</g>
</svg>
