<?xml version="1.0" encoding="utf-8"?>
<!-- Generator: Adobe Illustrator 16.0.4, SVG Export Plug-In . SVG Version: 6.00 Build 0)  -->
<!DOCTYPE svg PUBLIC "-//W3C//DTD SVG 1.1//EN" "http://www.w3.org/Graphics/SVG/1.1/DTD/svg11.dtd">
<svg version="1.1" id="Layer_1" xmlns="http://www.w3.org/2000/svg" xmlns:xlink="http://www.w3.org/1999/xlink" x="0px" y="0px"
	 width="231px" height="60px" viewBox="0 0 231 60" enable-background="new 0 0 231 60" xml:space="preserve">
<g enable-background="new    ">
	<path fill="#FFFFFF" d="M88.021,13.023h4.696l2.69,7.052l0.95,2.769h0.105l0.95-2.769l2.585-7.052h4.695V30h-4.221v-5.015
		c0-0.435,0.022-0.915,0.066-1.437c0.044-0.522,0.092-1.058,0.145-1.606c0.053-0.548,0.114-1.084,0.185-1.606
		c0.07-0.522,0.132-0.992,0.185-1.41h-0.105l-1.425,3.97l-2.374,5.72H95.46l-2.374-5.72l-1.372-3.97h-0.106
		c0.053,0.418,0.114,0.888,0.185,1.41c0.07,0.522,0.132,1.058,0.185,1.606s0.101,1.084,0.145,1.606
		c0.043,0.522,0.066,1.001,0.066,1.437V30h-4.168V13.023z"/>
	<path fill="#FFFFFF" d="M107.753,21.642c0-1.428,0.229-2.694,0.686-3.8c0.457-1.105,1.082-2.038,1.873-2.795
		c0.791-0.757,1.71-1.336,2.756-1.737c1.046-0.4,2.159-0.601,3.337-0.601c1.213,0,2.277,0.222,3.191,0.666
		c0.914,0.444,1.68,0.971,2.295,1.58l-2.479,2.769c-0.423-0.366-0.85-0.648-1.28-0.849s-0.989-0.301-1.675-0.301
		c-0.581,0-1.117,0.114-1.609,0.34c-0.493,0.227-0.923,0.548-1.292,0.966s-0.655,0.932-0.857,1.541
		c-0.202,0.61-0.303,1.297-0.303,2.063c0,1.602,0.36,2.83,1.082,3.683c0.721,0.854,1.855,1.28,3.403,1.28
		c0.246,0,0.488-0.026,0.726-0.078s0.435-0.131,0.594-0.235v-2.351h-2.533v-3.657h6.542v8.097c-0.317,0.261-0.69,0.518-1.122,0.771
		c-0.431,0.252-0.896,0.475-1.397,0.666s-1.042,0.348-1.622,0.47c-0.58,0.122-1.17,0.183-1.768,0.183
		c-1.179,0-2.287-0.179-3.324-0.536c-1.038-0.356-1.943-0.896-2.717-1.619c-0.774-0.723-1.385-1.628-1.833-2.716
		C107.978,24.354,107.753,23.087,107.753,21.642z"/>
	<path fill="#FFFFFF" d="M134.344,16.784h-4.537v-3.761h13.611v3.761h-4.537V30h-4.537V16.784z"/>
	<path fill="#FFFFFF" d="M145.951,13.023h4.537v6.321h5.117v-6.321h4.538V30h-4.538v-6.739h-5.117V30h-4.537V13.023z"/>
	<path fill="#FFFFFF" d="M163.203,21.642c0-1.428,0.229-2.694,0.686-3.8c0.457-1.105,1.072-2.038,1.848-2.795
		c0.773-0.757,1.666-1.336,2.677-1.737c1.011-0.4,2.071-0.601,3.179-0.601c1.09,0,2.08,0.222,2.968,0.666
		c0.888,0.444,1.64,0.971,2.256,1.58l-2.479,2.769c-0.422-0.366-0.836-0.648-1.24-0.849s-0.889-0.301-1.451-0.301
		c-0.51,0-0.998,0.114-1.464,0.34c-0.466,0.227-0.87,0.548-1.214,0.966c-0.342,0.418-0.615,0.932-0.817,1.541
		c-0.202,0.61-0.304,1.297-0.304,2.063c0,1.602,0.339,2.83,1.016,3.683c0.678,0.854,1.57,1.28,2.678,1.28
		c0.668,0,1.244-0.126,1.729-0.378c0.482-0.252,0.91-0.579,1.279-0.979l2.479,2.716c-0.739,0.835-1.583,1.462-2.532,1.88
		c-0.95,0.418-1.953,0.627-3.008,0.627c-1.125,0-2.189-0.179-3.191-0.536c-1.003-0.356-1.883-0.896-2.639-1.619
		s-1.354-1.628-1.793-2.716C163.423,24.354,163.203,23.087,163.203,21.642z"/>
</g>
<g enable-background="new    ">
	<path fill="#FFFFFF" d="M87.788,36.385h4.413c0.722,0,1.387,0.06,1.996,0.179c0.608,0.12,1.133,0.323,1.575,0.608
		c0.441,0.287,0.789,0.66,1.043,1.12s0.381,1.03,0.381,1.71c0,0.645-0.127,1.207-0.381,1.684c-0.254,0.479-0.605,0.875-1.053,1.191
		c-0.448,0.316-0.977,0.549-1.585,0.698s-1.267,0.224-1.976,0.224h-2.086v4.299h-2.327V36.385z M92.021,42.134
		c1.926,0,2.889-0.71,2.889-2.132c0-0.74-0.241-1.25-0.722-1.531c-0.481-0.28-1.204-0.42-2.167-0.42h-1.906v4.083H92.021z"/>
	<path fill="#FFFFFF" d="M99.663,36.385h7.903v1.755h-5.577v2.991h4.714v1.755h-4.714v3.456h5.777v1.756h-8.104V36.385z"/>
	<path fill="#FFFFFF" d="M117.615,48.098l-2.828-4.585h-2.006v4.585h-2.327V36.385h4.433c0.682,0,1.317,0.06,1.905,0.179
		c0.588,0.12,1.097,0.313,1.525,0.582c0.428,0.269,0.765,0.624,1.012,1.065c0.248,0.442,0.371,0.992,0.371,1.648
		c0,0.895-0.236,1.617-0.711,2.167c-0.476,0.55-1.107,0.943-1.896,1.182l3.129,4.89H117.615z M112.781,41.865h1.866
		c0.896,0,1.582-0.168,2.056-0.502s0.712-0.836,0.712-1.504c0-0.681-0.237-1.152-0.712-1.415s-1.161-0.394-2.056-0.394h-1.866
		V41.865z"/>
	<path fill="#FFFFFF" d="M131.155,45.178c0.468,0.395,1.003,0.715,1.604,0.959s1.203,0.367,1.805,0.367
		c0.75,0,1.318-0.137,1.705-0.412c0.389-0.274,0.582-0.639,0.582-1.093c0-0.238-0.05-0.441-0.15-0.608
		c-0.1-0.168-0.24-0.314-0.421-0.439s-0.395-0.242-0.642-0.35c-0.248-0.107-0.519-0.215-0.812-0.322l-1.806-0.697
		c-0.321-0.119-0.639-0.27-0.952-0.448c-0.314-0.179-0.6-0.394-0.854-0.646c-0.254-0.25-0.458-0.543-0.611-0.877
		c-0.154-0.334-0.23-0.717-0.23-1.146c0-0.465,0.109-0.898,0.33-1.299c0.221-0.399,0.525-0.748,0.913-1.047s0.853-0.531,1.395-0.699
		c0.542-0.166,1.134-0.25,1.774-0.25c0.763,0,1.498,0.134,2.207,0.402c0.709,0.27,1.316,0.631,1.826,1.084l-1.184,1.325
		c-0.429-0.311-0.87-0.556-1.324-0.734c-0.455-0.179-0.963-0.269-1.525-0.269c-0.628,0-1.129,0.123-1.504,0.367
		s-0.562,0.582-0.562,1.012c0,0.227,0.057,0.421,0.171,0.582c0.113,0.162,0.268,0.305,0.461,0.43s0.418,0.239,0.672,0.341
		s0.515,0.2,0.782,0.296l1.786,0.662c0.387,0.143,0.742,0.311,1.062,0.502c0.32,0.19,0.598,0.412,0.832,0.662
		c0.234,0.251,0.418,0.541,0.553,0.869c0.133,0.328,0.199,0.707,0.199,1.137c0,0.479-0.106,0.926-0.32,1.344
		s-0.525,0.785-0.933,1.102c-0.408,0.316-0.903,0.566-1.484,0.752c-0.582,0.185-1.241,0.277-1.976,0.277
		c-0.883,0-1.735-0.149-2.559-0.447c-0.822-0.299-1.547-0.723-2.176-1.271L131.155,45.178z"/>
	<path fill="#FFFFFF" d="M141.626,36.385h2.327v9.957h5.455v1.756h-7.782V36.385z"/>
	<path fill="#FFFFFF" d="M151.695,36.385h2.327v11.713h-2.327V36.385z"/>
	<path fill="#FFFFFF" d="M156.67,42.277c0-0.955,0.158-1.812,0.472-2.57c0.314-0.758,0.745-1.4,1.294-1.926s1.189-0.925,1.926-1.199
		c0.735-0.275,1.524-0.412,2.367-0.412c0.803,0,1.521,0.148,2.156,0.447s1.16,0.645,1.574,1.039l-1.304,1.289
		c-0.335-0.298-0.692-0.533-1.073-0.707c-0.381-0.173-0.826-0.26-1.334-0.26c-0.549,0-1.047,0.099-1.494,0.295
		c-0.448,0.197-0.836,0.479-1.164,0.842c-0.327,0.365-0.581,0.81-0.762,1.335c-0.18,0.525-0.271,1.116-0.271,1.772
		c0,1.338,0.323,2.386,0.973,3.144c0.648,0.759,1.528,1.138,2.638,1.138c0.588,0,1.1-0.102,1.535-0.305
		c0.434-0.203,0.838-0.489,1.213-0.859l1.305,1.271c-0.535,0.549-1.145,0.971-1.826,1.263s-1.438,0.438-2.267,0.438
		c-0.843,0-1.624-0.131-2.347-0.395c-0.723-0.262-1.352-0.65-1.886-1.164c-0.535-0.513-0.956-1.146-1.264-1.898
		C156.824,44.104,156.67,43.244,156.67,42.277z"/>
	<path fill="#FFFFFF" d="M168.906,36.385h7.903v1.755h-5.577v2.991h4.715v1.755h-4.715v3.456h5.777v1.756h-8.104V36.385z"/>
</g>
<g enable-background="new    ">
	<path fill="#FFFFFF" stroke="#000000" stroke-width="2" stroke-linecap="round" stroke-miterlimit="10" d="M9.717,41.336h9.204
		V19.138H10.8v-7.174c2.436-0.496,4.511-1.06,6.226-1.692c1.714-0.631,3.384-1.465,5.008-2.504h8.527v33.568h7.715v9.34H9.717
		V41.336z"/>
	<path fill="#FFFFFF" stroke="#000000" stroke-width="2" stroke-linecap="round" stroke-miterlimit="10" d="M60.068,51.488
		c-2.392,0-4.558-0.485-6.497-1.455c-1.94-0.97-3.621-2.403-5.042-4.298c-1.421-1.896-2.516-4.24-3.282-7.038
		c-0.768-2.798-1.15-6.023-1.15-9.679c0-3.654,0.383-6.869,1.15-9.644c0.767-2.775,1.861-5.076,3.282-6.903s3.102-3.203,5.042-4.128
		c1.939-0.924,4.105-1.387,6.497-1.387c2.346,0,4.5,0.463,6.463,1.387c1.962,0.925,3.654,2.312,5.076,4.162
		c1.421,1.851,2.515,4.152,3.282,6.903c0.767,2.752,1.151,5.956,1.151,9.61c0,3.655-0.384,6.881-1.151,9.679
		c-0.768,2.798-1.861,5.143-3.282,7.038c-1.421,1.895-3.113,3.328-5.076,4.298C64.569,51.003,62.414,51.488,60.068,51.488z
		 M60.068,42.555c0.677,0,1.32-0.17,1.929-0.508c0.609-0.339,1.139-1.004,1.591-1.996c0.45-0.992,0.812-2.369,1.083-4.129
		c0.271-1.76,0.406-4.061,0.406-6.903c0-2.842-0.135-5.12-0.406-6.835c-0.271-1.714-0.632-3.046-1.083-3.993
		c-0.452-0.947-0.981-1.567-1.591-1.861c-0.609-0.293-1.252-0.44-1.929-0.44s-1.32,0.147-1.929,0.44
		c-0.609,0.294-1.14,0.914-1.59,1.861c-0.452,0.947-0.812,2.279-1.083,3.993c-0.271,1.715-0.406,3.993-0.406,6.835
		c0,2.843,0.136,5.144,0.406,6.903s0.631,3.137,1.083,4.129c0.45,0.992,0.981,1.657,1.59,1.996
		C58.749,42.385,59.392,42.555,60.068,42.555z"/>
</g>
</svg>
